<svg id="Layer_1" enable-background="new 0 0 512 512" height="512" viewBox="0 0 512 512" width="512" xmlns="http://www.w3.org/2000/svg"><g><path d="m55.993 336c-7.062 0-10.712-8.602-5.657-13.657l13.748-13.748c8.122-8.122 18.921-12.595 30.407-12.595 8.454 0 16.53-4.038 21.603-10.801l13.499-17.999c2.65-3.535 7.666-4.251 11.2-1.6 3.535 2.651 4.251 7.666 1.6 11.2l-13.499 17.999c-8.078 10.771-20.939 17.201-34.403 17.201-7.213 0-13.994 2.809-19.094 7.909l-13.747 13.748c-1.562 1.562-3.61 2.343-5.657 2.343z" fill="#595965"/><path d="m245.653 381.66-128 128c-3.141 3.121-8.18 3.12-11.32 0l-24-24c-3.12-3.13-3.12-8.19 0-11.32l128-128c3.13-3.12 8.19-3.12 11.32 0l24 24c3.12 3.13 3.12 8.19 0 11.32z" fill="#aa7569"/><path d="m245.707 370.34-24-24c-3.13-3.12-8.19-3.12-11.32 0-8.407 8.407-18.308 18.308-18.308 18.308l18.787 18.852-115.319 115.32 10.84 10.84c3.141 3.121 8.18 3.12 11.32 0l128-128c3.12-3.13 3.12-8.19 0-11.32z" fill="#9a6758"/><path d="m477.653 181.66-216 216c-3.141 3.121-8.18 3.12-11.32 0l-136-136c-3.12-3.13-3.12-8.19 0-11.32l216-216c3.13-3.12 8.19-3.12 11.32 0l136 136c3.12 3.13 3.12 8.19 0 11.32z" fill="#edebfd"/><path d="m477.653 170.34c-188.397-188.397-104-104-136-136-3.13-3.12-8.19-3.12-11.32 0-8.224 8.224-16.223 16.223-24 24 3.13-3.12 8.19-3.12 11.32 0l111.66 111.66-197.66 197.66c-3.14 3.12-8.18 3.12-11.32 0 10.383 10.383 5.127 5.127 30 30 3.127 3.107 8.168 3.133 11.32 0l216-216c3.12-3.13 3.12-8.19 0-11.32z" fill="#d2d2fc"/><path d="m74.523 351.59c-12.65 4.22-22.72 14.29-26.94 26.94-2.425 7.274-12.756 7.273-15.18 0-4.22-12.65-14.29-22.72-26.94-26.94-7.274-2.425-7.274-12.755 0-15.18 12.65-4.22 22.72-14.29 26.94-26.94 2.425-7.274 12.756-7.273 15.18 0 4.22 12.65 14.29 22.72 26.94 26.94 7.274 2.425 7.273 12.755 0 15.18z" fill="#f1cc76"/><path d="m74.523 336.41c-3.189-1.064-2.53-1.257-2.53-.41 0 3.44-2.2 6.5-5.47 7.59-12.65 4.22-22.72 14.29-26.94 26.94-1.103 3.309-4.299 5.692-8.141 5.426.345.846.67 1.702.96 2.574 2.425 7.274 12.756 7.273 15.18 0 4.22-12.65 14.29-22.72 26.94-26.94 7.275-2.425 7.274-12.755.001-15.18z" fill="#ebb15d"/><path d="m425.653 233.66-48 48c-3.77 3.77-10.13 2.86-12.68-1.83-20.688-37.911-4.132-7.559-96-176-1.7-3.11-1.15-6.98 1.36-9.49l48-48c3.83-3.81 10.16-2.81 12.68 1.83 90.393 165.73 71.793 131.633 96 176 1.7 3.11 1.15 6.98-1.36 9.49z" fill="#79cb9c"/><path d="m325.653 333.66-48 48c-3.77 3.77-10.13 2.86-12.68-1.83-20.688-37.911-4.132-7.559-96-176-1.7-3.11-1.15-6.98 1.36-9.49l48-48c3.83-3.81 10.16-2.81 12.68 1.83 90.393 165.73 71.793 131.632 96 176 1.7 3.11 1.15 6.98-1.36 9.49z" fill="#79cb9c"/><path d="m511.993 8v200c0 7.102-8.628 10.692-13.66 5.66l-200-200c-5.024-5.046-1.443-13.66 5.66-13.66h200c4.42 0 8 3.58 8 8z" fill="#e48c9b"/><path d="m511.993 8v200c0 7.1-8.63 10.69-13.66 5.66l-26.34-26.34v-179.32c0-4.42-3.58-8-8-8h40c4.42 0 8 3.58 8 8z" fill="#cc5b6f"/><g fill="#63ac7d"><path d="m231.013 148.17c-2.525-4.651-8.858-5.63-12.68-1.83l-7.971 7.971 82.814 151.826-44.263 44.263 16.06 29.43c2.523 4.646 8.896 5.614 12.68 1.83l48-48c2.51-2.51 3.06-6.38 1.36-9.49z"/><path d="m427.013 224.17-96-176c-2.525-4.651-8.858-5.63-12.68-1.83l-7.971 7.971 82.814 151.826-44.263 44.263 16.06 29.43c2.549 4.695 8.921 5.589 12.68 1.83l48-48c2.51-2.51 3.06-6.38 1.36-9.49z"/></g></g></svg>