<svg id="Layer_1" enable-background="new 0 0 512 512" height="512" viewBox="0 0 512 512" width="512" xmlns="http://www.w3.org/2000/svg"><g><path d="m288 112.017v25.23c0 4.81-4.203 8.454-8.82 7.96-15.36-1.58-31-1.58-46.36 0-4.766.487-8.82-3.267-8.82-7.96v-25.23c0-28.343 34.494-42.722 54.62-22.63 6.05 6.06 9.38 14.1 9.38 22.63z" fill="#f1cc76"/><path d="m244.018 82.352c11.624 4.713 19.982 16.148 19.982 29.665v25.23c0 2.26-.96 4.42-2.64 5.94-2.262 2.033-3.512-.174 17.82 2.02 4.615.494 8.82-3.148 8.82-7.96v-25.23c0-22.566-22.892-38.21-43.982-29.665z" fill="#ebb15d"/><path d="m495.59 378.547-16 48c-1.09 3.27-4.15 5.47-7.59 5.47h-432c-3.44 0-6.5-2.2-7.59-5.47l-16-48c-1.716-5.169 2.122-10.53 7.59-10.53h464c5.468 0 9.306 5.361 7.59 10.53z" fill="#edebfd"/><path d="m488 368.017h-40c5.468 0 9.306 5.361 7.59 10.53l-16 48c-1.09 3.27-4.15 5.47-7.59 5.47h40c3.44 0 6.5-2.2 7.59-5.47l16-48c1.716-5.169-2.122-10.53-7.59-10.53z" fill="#d2d2fc"/><path d="m496 368.017v8c0 4.42-3.58 8-8 8h-464c-4.42 0-8-3.58-8-8v-8c0-59.78 22.11-117.05 62.26-161.27 92.973-102.419 251.303-104.537 347.45-8.44 45.33 45.34 70.29 105.61 70.29 169.71z" fill="#f1cc76"/><path d="m496 368.017v8c0 4.42-3.58 8-8 8h-40c4.42 0 8-3.58 8-8v-8c0-126.418-97.115-228.929-220.11-239.16 139.77-11.589 260.11 98.277 260.11 239.16z" fill="#ebb15d"/><path d="m504 385.017h-496c-4.418 0-8-3.582-8-8s3.582-8 8-8h496c4.418 0 8 3.582 8 8s-3.582 8-8 8z" fill="#d2d2fc"/></g></svg>