<svg id="Layer_1" enable-background="new 0 0 512 512" height="512" viewBox="0 0 512 512" width="512" xmlns="http://www.w3.org/2000/svg"><g><path d="m152 104v32c0 4.42-3.58 8-8 8h-32c-4.42 0-8-3.58-8-8v-32c0-4.42 3.58-8 8-8h32c4.42 0 8 3.58 8 8z" fill="#595965"/><path d="m248 216c0 4.42-3.58 8-8 8h-224c-4.42 0-8-3.58-8-8 0-48.52 39.48-88 88-88h64c48.52 0 88 39.48 88 88z" fill="#edebfd"/><path d="m248 216c0 4.42-3.58 8-8 8h-40c4.42 0 8-3.58 8-8 0-48.52-39.48-88-88-88h40c48.52 0 88 39.48 88 88z" fill="#d2d2fc"/><path d="m248 216v288c0 4.42-3.58 8-8 8h-224c-4.42 0-8-3.58-8-8v-288c0-4.42 3.58-8 8-8h224c4.42 0 8 3.58 8 8z" fill="#f1cc76"/><path d="m240 208h-40c4.42 0 8 3.58 8 8v288c0 4.42-3.58 8-8 8h40c4.42 0 8-3.58 8-8v-288c0-4.42-3.58-8-8-8z" fill="#ebb15d"/><path d="m184 40v64c0 4.42-3.58 8-8 8h-96c-4.42 0-8-3.58-8-8v-48c0-3.91 2.83-7.25 6.68-7.89 77.173-12.866 56.165-9.365 96-16 4.83-.81 9.32 2.91 9.32 7.89z" fill="#f1cc76"/><path d="m184 40v64c0 4.42-3.58 8-8 8h-40c4.42 0 8-3.58 8-8 0-69.863.208-64.851-.48-66.7l31.16-5.19c4.83-.81 9.32 2.91 9.32 7.89z" fill="#ebb15d"/><path d="m248 224h-240c-4.418 0-8-3.582-8-8s3.582-8 8-8h240c4.418 0 8 3.582 8 8s-3.582 8-8 8z" fill="#ebb15d"/><path d="m248 512h-240c-4.418 0-8-3.582-8-8s3.582-8 8-8h240c4.418 0 8 3.582 8 8s-3.582 8-8 8z" fill="#ebb15d"/><path d="m248 256v208c0 4.42-3.58 8-8 8h-128c-13.23 0-24-10.77-24-24v-176c0-13.23 10.77-24 24-24h128c4.42 0 8 3.58 8 8z" fill="#e48c9b"/><path d="m240 248h-40c4.42 0 8 3.58 8 8v208c0 4.42-3.58 8-8 8h40c4.42 0 8-3.58 8-8v-208c0-4.42-3.58-8-8-8z" fill="#cc5b6f"/><path d="m248 296v128c0 4.42-3.58 8-8 8h-40c-39.7 0-72-32.3-72-72s32.3-72 72-72h40c4.42 0 8 3.58 8 8z" fill="#79cb9c"/><path d="m240 288h-40c4.42 0 8 3.58 8 8v128c0 4.42-3.58 8-8 8h40c4.42 0 8-3.58 8-8v-128c0-4.42-3.58-8-8-8z" fill="#63ac7d"/><g fill="#e48c9b"><path d="m268.145 64h-28.145c-4.418 0-8-3.582-8-8s3.582-8 8-8h28.145c16.639 0 32.751-4.878 46.595-14.107l36.227-24.151c9.558-6.374 20.683-9.742 32.172-9.742h40.861c4.418 0 8 3.582 8 8s-3.582 8-8 8h-40.861c-8.319 0-16.375 2.439-23.298 7.054l-36.227 24.151c-16.481 10.988-35.662 16.795-55.469 16.795z"/><path d="m400 176c-17.598 0-34.154-9.374-43.208-24.464-20.554-34.256-58.139-55.536-98.087-55.536h-34.705c-4.418 0-8-3.582-8-8s3.582-8 8-8h34.705c45.536 0 88.378 24.257 111.808 63.304 6.177 10.299 17.477 16.696 29.487 16.696 4.418 0 8 3.582 8 8s-3.582 8-8 8z"/><path d="m377.373 72h-25.373c-4.418 0-8-3.582-8-8s3.582-8 8-8h25.373c12.454 0 24.163-4.85 32.971-13.657 11.829-11.829 27.555-18.343 44.283-18.343h25.373c4.418 0 8 3.582 8 8s-3.582 8-8 8h-25.373c-12.454 0-24.163 4.85-32.971 13.657-11.829 11.829-27.555 18.343-44.283 18.343z"/><path d="m424 144c-4.418 0-8-3.582-8-8 0-17.645-14.355-32-32-32h-8c-4.418 0-8-3.582-8-8s3.582-8 8-8h8c26.468 0 48 21.533 48 48 0 4.419-3.582 8-8 8z"/><path d="m458.344 85.657c-5.705-5.703-14.982-5.703-20.688 0-3.123 3.124-8.188 3.124-11.313 0-3.124-3.125-3.124-8.189.001-11.314 11.941-11.94 31.371-11.94 43.313 0 5.705 5.703 14.982 5.703 20.688 0l7.999-8c3.125-3.124 8.189-3.124 11.314 0 3.124 3.124 3.124 8.189 0 11.313l-8 8c-11.943 11.941-31.371 11.943-43.314.001z"/></g><path d="m184 64v16h-24c-4.42 0-8-3.58-8-8s3.58-8 8-8z" fill="#595965"/></g></svg>