<svg id="Layer_1" enable-background="new 0 0 512 512" height="512" viewBox="0 0 512 512" width="512" xmlns="http://www.w3.org/2000/svg"><g><path d="m32 240h448v160h-448z" fill="#edebfd"/><path d="m512 136v240c0 13.23-10.77 24-24 24h-16c-2.21 0-4.22-.9-5.67-2.35-1.43-1.45-2.33-3.44-2.33-5.65v-144h-416v144c0 4.42-3.58 8-8 8h-16c-13.23 0-24-10.77-24-24v-240c0-13.23 10.77-24 24-24h464c13.23 0 24 10.77 24 24z" fill="#f1cc76"/><path d="m512 136v240c0 13.23-10.77 24-24 24h-16c-2.21 0-4.22-.9-5.67-2.35 8.08-3.86 13.67-12.12 13.67-21.65v-240c0-13.23-10.77-24-24-24h32c13.23 0 24 10.77 24 24z" fill="#ebb15d"/><path d="m464 240h-416v16h32v144h16v-144h80v144h16v-144h32v144h16v-144h80v144h16v-144h80v144h13v-144h35z" fill="#d2d2fc"/><path d="m312 152v48c0 4.42-3.58 8-8 8h-96c-4.42 0-8-3.58-8-8v-48c0-4.42 3.58-8 8-8h96c4.42 0 8 3.58 8 8z" fill="#c8effd"/><path d="m304 144h-32c4.42 0 8 3.58 8 8v48c0 4.42-3.58 8-8 8h32c4.42 0 8-3.58 8-8v-48c0-4.42-3.58-8-8-8z" fill="#a0e1fd"/><circle cx="128" cy="184" fill="#e48c9b" r="24"/><path d="m120 161.377c21.28 7.552 21.284 37.693 0 45.246 15.59 5.532 32-6.114 32-22.623 0-16.55-16.441-28.144-32-22.623z" fill="#cc5b6f"/><circle cx="56" cy="184" fill="#e48c9b" r="24"/><path d="m48 161.377c21.28 7.552 21.284 37.693 0 45.246 15.59 5.532 32-6.114 32-22.623 0-16.55-16.441-28.144-32-22.623z" fill="#cc5b6f"/><path d="m472 168h-104c-4.418 0-8-3.582-8-8s3.582-8 8-8h104c4.418 0 8 3.582 8 8s-3.582 8-8 8z" fill="#edebfd"/><path d="m456 176c-4.418 0-8-3.582-8-8v-16c0-4.418 3.582-8 8-8s8 3.582 8 8v16c0 4.418-3.582 8-8 8z" fill="#595965"/><path d="m472 216h-104c-4.418 0-8-3.582-8-8s3.582-8 8-8h104c4.418 0 8 3.582 8 8s-3.582 8-8 8z" fill="#edebfd"/><path d="m384 224c-4.418 0-8-3.582-8-8v-16c0-4.418 3.582-8 8-8s8 3.582 8 8v16c0 4.418-3.582 8-8 8z" fill="#595965"/><path d="m328 112h16v128h-16z" fill="#ebb15d"/><path d="m168 112h16v128h-16z" fill="#ebb15d"/><g fill="#d2d2fc"><path d="m368 336h16v64h-16z"/><path d="m272 336h16v64h-16z"/><path d="m128 336h16v64h-16z"/></g><path d="m160 240v88c0 4.418-3.582 8-8 8h-32c-4.418 0-8-3.582-8-8v-88z" fill="#595965"/><path d="m304 240v88c0 4.418-3.582 8-8 8h-32c-4.418 0-8-3.582-8-8v-88z" fill="#595965"/><path d="m400 240v88c0 4.418-3.582 8-8 8h-32c-4.418 0-8-3.582-8-8v-88z" fill="#595965"/><path d="m112 240v16h24v72c0 4.42-3.58 8-8 8h24c4.42 0 8-3.58 8-8 0-9.048 0-76.75 0-88-21.097 0-27.375 0-48 0z" fill="#44454e"/><path d="m256 240v16h24v72c0 4.42-3.58 8-8 8h24c4.42 0 8-3.58 8-8 0-9.048 0-76.75 0-88-21.097 0-27.375 0-48 0z" fill="#44454e"/><path d="m352 240v16h24v72c0 4.42-3.58 8-8 8h24c4.42 0 8-3.58 8-8 0-9.048 0-76.75 0-88-21.097 0-27.375 0-48 0z" fill="#44454e"/></g></svg>