<svg id="Layer_1" enable-background="new 0 0 512.044 512.044" height="512" viewBox="0 0 512.044 512.044" width="512" xmlns="http://www.w3.org/2000/svg"><g><path d="m264.022 128v112c0 1.58-.47 3.12-1.34 4.44-9.35 14.02-13.88 30.99-12.76 47.81l11.86 177.85c1.607 22.231-16.215 41.9-39.21 41.9-12.12 0-23.24-5.53-30.55-14.58-7.3 9.04-18.43 14.58-30.55 14.58h-2.9c-12.12 0-23.24-5.53-30.55-14.57-7.257 8.921-18.296 14.57-30.55 14.57-22.654 0-40.722-19.199-39.21-41.9 12.984-194.698 12.03-179.249 12.03-182.99 0-15.25-4.47-30-12.92-42.67-.88-1.31-1.35-2.86-1.35-4.44v-112c0-1.69.54-3.34 1.53-4.71l64-88c1.51-2.07 3.91-3.29 6.47-3.29h64c2.56 0 4.96 1.22 6.47 3.29l64 88c.99 1.37 1.53 3.02 1.53 4.71z" fill="#e48c9b"/><path d="m264.022 128v112c0 1.58-.47 3.12-1.34 4.44-9.35 14.02-13.88 30.99-12.76 47.81l11.86 177.85c2.257 31.156-31.936 52.561-59.22 36.43 12.41-7.36 20.32-21.3 19.22-36.43l-11.86-177.85c-1.12-16.82 3.41-33.79 12.76-47.81.87-1.32 1.34-2.86 1.34-4.44v-112c0-1.69-.54-3.34-1.53-4.71l-64-88c-1.51-2.07-3.91-3.29-6.47-3.29h40c2.56 0 4.96 1.22 6.47 3.29l64 88c.99 1.37 1.53 3.02 1.53 4.71z" fill="#cc5b6f"/><path d="m264.022 128v104c0 4.42-3.58 8-8 8h-192c-4.42 0-8-3.58-8-8v-104c0-4.42 3.58-8 8-8h192c4.42 0 8 3.58 8 8z" fill="#f1cc76"/><path d="m256.022 120h-40c4.42 0 8 3.58 8 8v104c0 4.42-3.58 8-8 8h40c4.42 0 8-3.58 8-8v-104c0-4.42-3.58-8-8-8z" fill="#ebb15d"/><g fill="#cc5b6f"><circle cx="184.022" cy="384" r="8"/><circle cx="136.022" cy="336" r="8"/><circle cx="192.022" cy="288" r="8"/><circle cx="144.022" cy="88" r="8"/></g><path d="m216.022 8v32c0 4.42-3.58 8-8 8h-96c-4.42 0-8-3.58-8-8v-32c0-4.42 3.58-8 8-8h96c4.42 0 8 3.58 8 8z" fill="#f1cc76"/><path d="m208.022 0h-40c4.42 0 8 3.58 8 8v32c0 4.42-3.58 8-8 8h40c4.42 0 8-3.58 8-8v-32c0-4.42-3.58-8-8-8z" fill="#ebb15d"/><path d="m440.022 472v16c0 13.23-10.77 24-24 24h-96c-13.23 0-24-10.77-24-24v-16c0-4.42 3.58-8 8-8h128c4.42 0 8 3.58 8 8z" fill="#edebfd"/><path d="m432.022 464h-32c4.42 0 8 3.58 8 8v16c0 13.23-10.77 24-24 24h32c13.23 0 24-10.77 24-24v-16c0-4.42-3.58-8-8-8z" fill="#d2d2fc"/><path d="m455.992 280.67-4.67 56c-.34 4.14-3.81 7.33-7.97 7.33h-150.66c-4.16 0-7.63-3.19-7.97-7.33l-4.67-56c-.397-4.659 3.285-8.67 7.97-8.67h160c4.676 0 8.368 4.002 7.97 8.67z" fill="#edebfd"/><path d="m448.022 272h-32c4.676 0 8.368 4.002 7.97 8.67l-4.67 56c-.34 4.14-3.81 7.33-7.97 7.33h32c4.16 0 7.63-3.19 7.97-7.33l4.67-56c.397-4.659-3.284-8.67-7.97-8.67z" fill="#d2d2fc"/><path d="m451.322 336.66-11.33 136c-.34 4.15-3.81 7.34-7.97 7.34h-128c-4.16 0-7.63-3.19-7.97-7.34l-11.33-136c-.396-4.642 3.278-8.66 7.97-8.66h150.66c4.669 0 8.368 3.995 7.97 8.66z" fill="#e48c9b"/><path d="m443.352 328h-32c4.669 0 8.367 3.995 7.97 8.66l-11.33 136c-.34 4.15-3.81 7.34-7.97 7.34h32c4.16 0 7.63-3.19 7.97-7.34l11.33-136c.396-4.643-3.278-8.66-7.97-8.66z" fill="#cc5b6f"/><circle cx="352.022" cy="432" fill="#cc5b6f" r="8"/><circle cx="392.022" cy="376" fill="#cc5b6f" r="8"/></g></svg>