<svg id="Layer_1" enable-background="new 0 0 512.01 512.01" height="512" viewBox="0 0 512.01 512.01" width="512" xmlns="http://www.w3.org/2000/svg"><g><path d="m512 392.016v64c0 17.65-14.36 32-32 32h-64c-7.102 0-10.692-8.628-5.66-13.66l88-88c5.048-5.026 13.66-1.441 13.66 5.66z" fill="#edebfd"/><path d="m512 160.016v232c0 4.42-3.58 8-8 8h-64c-8.82 0-16 7.18-16 16v64c0 4.42-3.58 8-8 8h-384c-17.64 0-32-14.35-32-32v-296c0-4.42 3.58-8 8-8h496c4.42 0 8 3.579 8 8z" fill="#edebfd"/><path d="m504 152.016h-40c4.42 0 8 3.58 8 8v232c0 4.42-3.58 8-8 8h40c4.42 0 8-3.58 8-8v-232c0-4.421-3.58-8-8-8z" fill="#d2d2fc"/><path d="m509.66 397.675-88 88c-5.017 5.017-13.66 1.432-13.66-5.66v-64c0-17.65 14.36-32 32-32h64c7.102.001 10.693 8.628 5.66 13.66z" fill="#d2d2fc"/><path d="m363.58 302.845-47.99 46.77 11.33 66.05c.832 4.893-2.934 9.35-7.89 9.35-2.818 0 1.455 1.8-63.03-32.1l-59.31 31.18c-5.83 3.066-12.725-1.868-11.61-8.43l11.33-66.05-47.99-46.77c-4.737-4.628-2.11-12.696 4.44-13.65l66.31-9.63 29.66-60.09c2.913-5.935 11.427-5.936 14.34 0l29.66 60.09 66.31 9.63c6.553.955 9.174 9.025 4.44 13.65z" fill="#f1cc76"/><path d="m359.14 289.195-66.31-9.63-29.66-60.09c-2.913-5.935-11.427-5.936-14.34 0l-11.83 23.968 17.83 36.123 66.31 9.63c6.552.955 9.174 9.024 4.44 13.65l-47.99 46.77 10.303 60.067c30.154 15.852 28.461 15.333 31.136 15.333 4.962 0 8.72-4.464 7.89-9.35l-11.33-66.05 47.99-46.77c4.738-4.629 2.111-12.696-4.439-13.651z" fill="#ebb15d"/><path d="m512 104.016v56c0 4.42-3.58 8-8 8h-496c-4.42 0-8-3.58-8-8v-56c0-17.65 14.36-32 32-32h448c17.64 0 32 14.35 32 32z" fill="#e48c9b"/><path d="m480 72.016h-40c17.64 0 32 14.35 32 32v56c0 4.42-3.58 8-8 8h40c4.42 0 8-3.58 8-8v-56c0-17.65-14.36-32-32-32z" fill="#cc5b6f"/><path d="m136 56.016v48c0 17.65-14.36 32-32 32s-32-14.35-32-32v-48c0-17.65 14.36-32 32-32s32 14.35 32 32z" fill="#595965"/><path d="m92 26.359c11.713 4.757 20 16.251 20 29.657v48c0 13.405-8.287 24.9-20 29.657 20.943 8.505 44-6.973 44-29.657v-48c0-22.697-23.067-38.158-44-29.657z" fill="#44454e"/><path d="m440 56.016v48c0 17.65-14.36 32-32 32s-32-14.35-32-32v-48c0-17.65 14.36-32 32-32s32 14.35 32 32z" fill="#595965"/><path d="m396 26.359c11.713 4.757 20 16.251 20 29.657v48c0 13.405-8.287 24.9-20 29.657 20.943 8.505 44-6.973 44-29.657v-48c0-22.697-23.067-38.158-44-29.657z" fill="#44454e"/></g></svg>