<svg id="Layer_1" enable-background="new 0 0 512.049 512.049" height="512" viewBox="0 0 512.049 512.049" width="512" xmlns="http://www.w3.org/2000/svg"><g><path d="m472.025 240.049v144c0 30.88-25.12 56-56 56h-48c-4.42 0-8-3.58-8-8v-32c0-4.42 3.58-8 8-8h48c4.41 0 8-3.59 8-8v-144c0-4.41-3.59-8-8-8h-48c-4.42 0-8-3.58-8-8v-32c0-4.42 3.58-8 8-8h48c30.88 0 56 25.12 56 56z" fill="#c8effd"/><path d="m416.025 184.049h-48c30.88 0 56 25.12 56 56v144c0 30.88-25.12 56-56 56h48c30.88 0 56-25.12 56-56v-144c0-30.88-25.12-56-56-56z" fill="#a0e1fd"/><path d="m432.025 88.049c0 39.44-26.52 74.32-64.5 84.81-3.599 1.013-7.519-.66-9.26-4.08-2.74-5.39-8.2-8.73-14.24-8.73-4.42 0-8-3.58-8-8v-48c0-4.41-3.59-8-8-8h-64c-4.42 0-8-3.58-8-8 0-48.52 39.48-88 88-88 48.52 0 88 39.48 88 88z" fill="#f1cc76"/><path d="m432.025 88.049c0 39.44-26.52 74.32-64.5 84.81-3.6 1.01-7.52-.66-9.26-4.08-1.49-2.94-3.8-5.27-6.56-6.78 24.59-15.9 40.32-43.57 40.32-73.95 0-41.64-29.08-76.63-68-85.7 55.054-12.928 108 29.154 108 85.7z" fill="#ebb15d"/><path d="m352.025 104.049v48c0 4.42-3.58 8-8 8h-272c-4.42 0-8-3.58-8-8v-48c0-13.23 10.77-24 24-24h240c13.23 0 24 10.77 24 24z" fill="#c8effd"/><path d="m328.025 80.049h-48c13.23 0 24 10.77 24 24v48c0 4.42-3.58 8-8 8h48c4.42 0 8-3.58 8-8v-48c0-13.23-10.77-24-24-24z" fill="#a0e1fd"/><path d="m376.025 176.049v280c0 30.88-25.12 56-56 56h-224c-30.88 0-56-25.12-56-56v-280c0-17.65 14.35-32 32-32h272c18.133 0 32 14.765 32 32z" fill="#c8effd"/><path d="m344.025 144.049h-48c18.133 0 32 14.765 32 32v280c0 30.88-25.12 56-56 56h48c30.88 0 56-25.12 56-56v-280c0-17.251-13.886-32-32-32z" fill="#a0e1fd"/><path d="m344.025 240.049v216c0 13.23-10.77 24-24 24h-224c-13.23 0-24-10.77-24-24v-240c0-5.336 5.141-9.21 10.3-7.66l32.61 9.78c29.62 8.89 61.14 9.62 91.15 2.12 32.8-8.2 67.25-7.4 99.63 2.31l32.61 9.79c3.38 1.01 5.7 4.13 5.7 7.66z" fill="#f1cc76"/><path d="m320.025 456.049h-224c-13.23 0-24-10.77-24-24v24c0 13.23 10.77 24 24 24h224c13.23 0 24-10.77 24-24v-24c0 13.23-10.77 24-24 24z" fill="#ebb15d"/><path d="m256.025 120.049c0 4.42-3.58 8-8 8h-184v-16h184c4.42 0 8 3.58 8 8z" fill="#a0e1fd"/><path d="m352.025 112.049v16h-56c-4.42 0-8-3.58-8-8s3.58-8 8-8z" fill="#a0e1fd"/><path d="m312.025 192.049v64c0 4.42-3.58 8-8 8h-64c-4.42 0-8-3.58-8-8v-64c0-4.42 3.58-8 8-8h64c4.42 0 8 3.58 8 8z" fill="#edebfd"/><path d="m304.025 184.049h-16c4.42 0 8 3.58 8 8v64c0 4.42-3.58 8-8 8h16c4.42 0 8-3.58 8-8v-64c0-4.42-3.58-8-8-8z" fill="#d2d2fc"/><path d="m210.935 312.709-45.25 45.25c-3.141 3.121-8.18 3.12-11.32 0l-45.25-45.25c-3.13-3.13-3.13-8.19 0-11.32l45.25-45.25c3.13-3.13 8.19-3.13 11.32 0l45.25 45.25c3.13 3.13 3.13 8.19 0 11.32z" fill="#edebfd"/><path d="m210.935 301.389-45.25-45.25c-3.13-3.13-8.19-3.13-11.32 0l-.84.84 44.41 44.41c3.13 3.13 3.13 8.19 0 11.32l-44.41 44.41c1.639 1.639 3.298 3.18 6.5 3.18 2.05 0 4.09-.78 5.66-2.34l45.25-45.25c3.13-3.13 3.13-8.19 0-11.32z" fill="#d2d2fc"/><path d="m312.025 368.049c0 44.11-35.89 80-80 80-21.68 0-41.96-8.52-57.12-24-3.06-3.14-3.04-8.16.06-11.26l101.8-101.8c3.1-3.1 8.12-3.13 11.26-.06 15.48 15.16 24 35.44 24 57.12z" fill="#faf0d3"/><path d="m288.025 310.929c-3.14-3.07-8.16-3.04-11.26.06l-6.641 6.641c38.961 47.729 10.79 120.362-50.159 129.524 48.925 7.332 92.06-30.664 92.06-79.105 0-21.68-8.52-41.96-24-57.12z" fill="#f4e1a1"/><path d="m239.965 447.61c-4.023 0-7.487-3.026-7.941-7.117l-7.95-71.56c-.564-5.085 3.73-9.395 8.834-8.834l71.56 7.95c4.391.488 7.556 4.443 7.068 8.834s-4.439 7.554-8.834 7.068l-61.622-6.846 6.846 61.622c.528 4.749-3.193 8.883-7.961 8.883z" fill="#f4e1a1"/><g fill="#ebb15d"><circle cx="128.025" cy="432.049" r="8"/><circle cx="120.025" cy="376.049" r="8"/><circle cx="248.025" cy="296.049" r="8"/></g></g></svg>