<svg id="Layer_1" enable-background="new 0 0 512.025 512.025" height="512" viewBox="0 0 512.025 512.025" width="512" xmlns="http://www.w3.org/2000/svg"><g><path d="m456.013 464.025h-400c-5.884 0-9.795-6.17-7.19-11.51 51.337-104.696-109.155 223.595 181.83-372.36.94-1.93 2.62-3.4 4.66-4.08 6.063-2.031 8.089 3.95 20.7 3.95 12.717 0 14.598-5.994 20.7-3.95 2.04.68 3.72 2.15 4.66 4.08 42.109 86.243 86.047 176.184 181.83 372.36 2.612 5.354-1.319 11.51-7.19 11.51z" fill="#f1cc76"/><path d="m456.013 464.025h-48c5.87 0 9.8-6.16 7.19-11.51-195.343-400.108-182.045-373.122-183.19-374.33.9-.96 2.03-1.69 3.3-2.11 6.06-2.03 8.09 3.95 20.7 3.95 12.72 0 14.6-5.99 20.7-3.95 2.04.68 3.72 2.15 4.66 4.08 42.11 86.24 86.05 176.18 181.83 372.36 2.61 5.35-1.32 11.51-7.19 11.51z" fill="#ebb15d"/><path d="m418.533 361.025c-385.541 107.485-359.58 100.41-361.25 100.41-5.93 0-9.77-6.22-7.19-11.51l40.8-83.56c1-2.05 2.82-3.57 5.01-4.19 3.41-.957 211.771-59.461 284.22-79.8.456.913 35.728 73.156 38.41 78.65z" fill="#e48c9b"/><path d="m342.553 205.435c-63.255 17.895-178.183 50.406-200.82 56.81l49.81-101.99c85.23-24.425 60.46-17.326 113.11-32.42.468.955 37.645 77.067 37.9 77.6z" fill="#e48c9b"/><path d="m488.013 472.025v16c0 13.23-10.77 24-24 24h-416c-13.23 0-24-10.77-24-24v-16c0-13.23 10.77-24 24-24h416c13.23 0 24 10.77 24 24z" fill="#edebfd"/><path d="m464.013 448.025h-40c13.23 0 24 10.77 24 24v16c0 13.23-10.77 24-24 24h40c13.23 0 24-10.77 24-24v-16c0-13.23-10.77-24-24-24z" fill="#d2d2fc"/><path d="m505.693 135.845c-12.93 2.78-23.08 12.93-25.86 25.86-1.795 8.383-13.841 8.402-15.64 0-2.78-12.93-12.93-23.08-25.86-25.86-8.383-1.795-8.402-13.841 0-15.64 12.93-2.78 23.08-12.93 25.86-25.86 1.803-8.42 13.829-8.329 15.64 0 2.78 12.93 12.93 23.08 25.86 25.86 8.382 1.795 8.402 13.842 0 15.64z" fill="#f1cc76"/><path d="m505.693 120.205c-12.93-2.78-23.08-12.93-25.86-25.86-1.702-7.826-13.444-9.265-15.82.709 2.995 12.587 12.99 22.422 25.68 25.151 8.383 1.795 8.402 13.841 0 15.64-12.69 2.729-22.685 12.563-25.68 25.151.057.238.128.469.18.709 1.795 8.383 13.841 8.402 15.64 0 2.78-12.93 12.93-23.08 25.86-25.86 8.382-1.794 8.402-13.841 0-15.64z" fill="#ebb15d"/><path d="m73.693 327.845c-12.93 2.78-23.08 12.93-25.86 25.86-1.795 8.383-13.841 8.402-15.64 0-2.78-12.93-12.93-23.08-25.86-25.86-8.383-1.795-8.402-13.841 0-15.64 12.93-2.78 23.08-12.93 25.86-25.86 1.798-8.398 13.823-8.356 15.64 0 2.78 12.93 12.93 23.08 25.86 25.86 8.382 1.795 8.402 13.842 0 15.64z" fill="#f1cc76"/><path d="m73.693 312.205c-12.93-2.78-23.08-12.93-25.86-25.86-1.703-7.831-13.445-9.261-15.82.709 2.995 12.587 12.99 22.422 25.68 25.151 8.383 1.795 8.402 13.841 0 15.64-12.69 2.729-22.685 12.563-25.68 25.151.057.238.128.469.18.709 1.795 8.383 13.841 8.402 15.64 0 2.78-12.93 12.93-23.08 25.86-25.86 8.382-1.794 8.402-13.841 0-15.64z" fill="#ebb15d"/><circle cx="256.013" cy="48.025" fill="#e48c9b" r="48"/><g fill="#cc5b6f"><path d="m244.013 1.544c20.681 5.341 36 24.154 36 46.481 0 22.13-14.905 41.036-35.998 46.476 30.166 7.785 59.998-14.851 59.998-46.476 0-31.272-29.626-54.326-60-46.481z"/><path d="m342.553 205.435-42.17 11.93c-13.99-28.64-26.33-53.9-37.83-77.46l42.1-12.07c2.015 4.11 37.724 77.233 37.9 77.6z"/><path d="m418.533 361.025c-14.67 4.09-28.75 8.01-42.25 11.78-14.02-28.71-26.72-54.73-38.37-78.58l42.21-11.85c4.349 8.689-12.911-26.481 38.41 78.65z"/></g></g></svg>