<svg id="Layer_1" enable-background="new 0 0 512.018 512.018" height="512" viewBox="0 0 512.018 512.018" width="512" xmlns="http://www.w3.org/2000/svg"><g><path d="m64 113.996v373.67c0 13.23-10.77 24-24 24-13.246 0-24-10.69-24-24v-430.55c0-8.231 10.963-11.055 14.97-3.92 34.791 61.842 33.03 57.82 33.03 60.8z" fill="#edebfd"/><path d="m63.947 489.19c.006-.101.479-375.512-.279-377.419-.09-.886 3.482 5.734-32.698-58.575-4.009-7.139-14.97-4.305-14.97 3.92v27.09l24 42.667v360.793c0 7.771-3.715 14.697-9.464 19.078-1.3.369-2.638.644-4.017.789 15.222 10.348 36.297.21 37.428-18.343z" fill="#d2d2fc"/><path d="m487.84.346c-5.91 0-11.41 2.12-15.9 6.12-25.67 22.82-61.53 29.33-93.57 17.01l-4.13-1.6c-29.79-11.45-62.87-9.13-90.74 6.37l-27.5 15.27-25.82-14.34c-28.266-15.705-61.589-19.066-96.55-5.71-31.567 12.176-67.775 5.937-93.56-17-15.592-13.859-40.07-2.612-40.07 17.99 0 4.12 1.07 8.19 3.09 11.8l51.3 91.2c34.055 60.467 109.938 80.408 168.75 47.72 9.097-5.047 17.719-10.51 32.86-10.51 15.189 0 24.211 5.705 32.86 10.51 59.612 33.121 135.146 12.052 168.75-47.73l51.31-91.2c9.013-16.142-2.739-35.9-21.08-35.9zm-263.61 123.43c-42.568 37.781-109.976 20.311-128.71-33.61-1.07-3.06-.18-6.46 2.25-8.61 42.64-37.831 110.008-20.218 128.71 33.61 1.07 3.06.18 6.46-2.25 8.61zm192.25-33.61c-18.745 53.953-86.169 71.367-128.71 33.61-2.43-2.15-3.32-5.55-2.25-8.61 18.709-53.849 86.084-71.429 128.71-33.61 2.43 2.15 3.32 5.55 2.25 8.61z" fill="#9da0df"/><path d="m487.84.346c-10.405 0-15.164 5.774-20.49 9.94 5.21 7.18 6.51 17.11 1.57 25.96l-51.31 91.2c-19.3 34.34-52.44 55.91-88.45 61.77 50 8.16 102.11-14.91 128.45-61.77l51.31-91.2c9.01-16.14-2.74-35.9-21.08-35.9z" fill="#8286c6"/></g></svg>