<svg id="Layer_1" enable-background="new 0 0 512 512" height="512" viewBox="0 0 512 512" width="512" xmlns="http://www.w3.org/2000/svg"><g><path d="m376 480c-4.418 0-8-3.582-8-8v-144c0-4.418 3.582-8 8-8s8 3.582 8 8v144c0 4.418-3.582 8-8 8z" fill="#edebfd"/><path d="m448 168v88c0 4.42-3.58 8-8 8h-128c-4.42 0-8-3.58-8-8v-88c0-4.42 3.58-8 8-8h128c4.42 0 8 3.58 8 8z" fill="#edebfd"/><path d="m448 168v88c0 4.42-3.58 8-8 8h-40c4.42 0 8-3.58 8-8v-88c0-4.42-3.58-8-8-8h40c4.42 0 8 3.58 8 8z" fill="#d2d2fc"/><path d="m240 283.31v220.69c0 4.42-3.58 8-8 8h-160c-4.42 0-8-3.58-8-8v-220.69c0-24.91 9.7-48.32 27.31-65.94 5.46-5.45 10.06-11.68 13.67-18.51 2.848-5.371 10.39-5.721 13.73-.69 15.854 23.781 50.754 23.739 66.58 0 3.36-5.061 10.895-4.657 13.73.69 3.61 6.83 8.21 13.06 13.67 18.51 17.428 17.448 27.31 41.079 27.31 65.94z" fill="#79cb9c"/><path d="m240 283.31v220.69c0 4.42-3.58 8-8 8h-40c4.42 0 8-3.58 8-8v-220.69c0-24.86-9.88-48.49-27.31-65.94-1.54-1.54-3.01-3.14-4.41-4.8 6.61-2.93 12.56-7.73 17.01-14.4 3.36-5.06 10.9-4.66 13.73.69 3.61 6.83 8.21 13.06 13.67 18.51 17.43 17.45 27.31 41.08 27.31 65.94z" fill="#63ac7d"/><path d="m240 288v160c0 4.42-3.58 8-8 8h-160c-4.42 0-8-3.58-8-8v-160c0-4.42 3.58-8 8-8h160c4.42 0 8 3.58 8 8z" fill="#f1cc76"/><path d="m240 288v160c0 4.42-3.58 8-8 8h-40c4.42 0 8-3.58 8-8v-160c0-4.42-3.58-8-8-8h40c4.42 0 8 3.58 8 8z" fill="#ebb15d"/><circle cx="152" cy="360" fill="#faf0d3" r="32"/><path d="m448 256v8c0 39.7-32.3 72-72 72s-72-32.3-72-72v-8c0-4.42 3.58-8 8-8h128c4.42 0 8 3.58 8 8z" fill="#faf0d3"/><path d="m448 256v8c0 47.724-45.949 82.514-92 69.17 30-8.68 52-36.41 52-69.17v-8c0-4.42-3.58-8-8-8h40c4.42 0 8 3.58 8 8z" fill="#f4e1a1"/><path d="m440 504c0 4.42-3.58 8-8 8h-112c-4.42 0-8-3.58-8-8 0-22.06 17.94-40 40-40h48c22.06 0 40 17.94 40 40z" fill="#edebfd"/><path d="m400 464h-40c22.06 0 40 17.94 40 40 0 4.42-3.58 8-8 8h40c4.42 0 8-3.58 8-8 0-22.06-17.94-40-40-40z" fill="#d2d2fc"/><path d="m198.61 207.03c-22.151 33.279-71.078 33.266-93.22 0-1.66-2.5-1.759-5.667-.4-8.21 4.875-9.071 8.178-20.168 8.83-31.79l6.19-111.47c.24-4.24 3.74-7.56 7.99-7.56h48c4.25 0 7.75 3.32 7.99 7.56l6.19 111.48c.62 11.19 3.6 21.89 8.84 31.81 1.341 2.529 1.254 5.674-.41 8.18z" fill="#f1cc76"/><path d="m199.02 198.85c-5.24-9.92-8.22-20.62-8.84-31.81l-6.19-111.48c-.24-4.24-3.74-7.56-7.99-7.56h-23.95c4.25 0 7.75 3.32 7.99 7.56l6.19 111.48c.62 11.19 3.6 21.89 8.84 31.81 1.341 2.528 1.254 5.674-.41 8.18-8.149 12.243-20.607 20.594-34.635 23.655 22.916 5.002 45.935-4.649 58.585-23.655 1.626-2.449 1.783-5.591.41-8.18z" fill="#ebb15d"/><path d="m200 16v32c0 8.82-7.18 16-16 16h-64c-8.82 0-16-7.18-16-16v-32c0-8.82 7.18-16 16-16h64c8.82 0 16 7.18 16 16z" fill="#aa7569"/><path d="m184 0h-40c8.82 0 16 7.18 16 16v32c0 8.82-7.18 16-16 16h40c8.82 0 16-7.18 16-16v-32c0-8.82-7.18-16-16-16z" fill="#9a6758"/></g></svg>