<svg id="Layer_1" enable-background="new 0 0 512.021 512.021" height="512" viewBox="0 0 512.021 512.021" width="512" xmlns="http://www.w3.org/2000/svg"><g><path d="m288.01 392.021v80c0 4.42-3.58 8-8 8h-48c-4.42 0-8-3.58-8-8v-80c0-4.42 3.58-8 8-8h48c4.42 0 8 3.58 8 8z" fill="#edebfd"/><path d="m280.01 384.021c-15.254 0-32.746 0-48 0-4.42 0-8 3.58-8 8v24h40v56c0 4.42-3.58 8-8 8h24c4.42 0 8-3.58 8-8 0-12.716 0-57.69 0-80 0-4.42-3.58-8-8-8z" fill="#d2d2fc"/><path d="m280.01 64.021v80c0 4.42-3.58 8-8 8h-32c-4.42 0-8-3.58-8-8v-80c0-4.42 3.58-8 8-8h32c4.42 0 8 3.58 8 8z" fill="#edebfd"/><path d="m272.01 56.021h-16c4.42 0 8 3.58 8 8v80c0 4.42-3.58 8-8 8h16c4.42 0 8-3.58 8-8v-80c0-4.42-3.58-8-8-8z" fill="#d2d2fc"/><path d="m280.01 32.021c0 13.23-10.77 24-24 24s-24-10.77-24-24c0-12.74 9.57-32 24-32 14.43 0 24 19.26 24 32z" fill="#e48c9b"/><path d="m248.01 2.118c9.857 5.324 16 19.7 16 29.903 0 10.426-6.69 19.319-16 22.623 15.588 5.532 32-6.114 32-22.623 0-17.741-15.472-38.831-32-29.903z" fill="#cc5b6f"/><path d="m176.01 64.021v80c0 4.42-3.58 8-8 8h-32c-4.42 0-8-3.58-8-8v-80c0-4.42 3.58-8 8-8h32c4.42 0 8 3.58 8 8z" fill="#edebfd"/><path d="m168.01 56.021h-16c4.42 0 8 3.58 8 8v80c0 4.42-3.58 8-8 8h16c4.42 0 8-3.58 8-8v-80c0-4.42-3.58-8-8-8z" fill="#d2d2fc"/><path d="m176.01 32.021c0 13.23-10.77 24-24 24s-24-10.77-24-24c0-12.74 9.57-32 24-32s24 19.26 24 32z" fill="#e48c9b"/><path d="m144.01 2.118c9.857 5.324 16 19.7 16 29.903 0 10.426-6.69 19.319-16 22.623 15.588 5.532 32-6.114 32-22.623 0-17.741-15.472-38.831-32-29.903z" fill="#cc5b6f"/><path d="m384.01 64.021v80c0 4.42-3.58 8-8 8h-32c-4.42 0-8-3.58-8-8v-80c0-4.42 3.58-8 8-8h32c4.42 0 8 3.58 8 8z" fill="#edebfd"/><path d="m376.01 56.021h-16c4.42 0 8 3.58 8 8v80c0 4.42-3.58 8-8 8h16c4.42 0 8-3.58 8-8v-80c0-4.42-3.58-8-8-8z" fill="#d2d2fc"/><path d="m384.01 32.021c0 13.23-10.77 24-24 24s-24-10.77-24-24c0-12.74 9.57-32 24-32s24 19.26 24 32z" fill="#e48c9b"/><path d="m352.01 2.118c9.857 5.324 16 19.7 16 29.903 0 10.426-6.69 19.319-16 22.623 15.589 5.532 32-6.114 32-22.623 0-17.741-15.472-38.831-32-29.903z" fill="#cc5b6f"/><path d="m464.01 199.511v144.51c0 4.42-3.58 8-8 8h-400c-4.42 0-8-3.58-8-8v-144.51c0-7.707 9.88-10.946 14.44-4.74 12.018 16.326 34.415 17.388 47.96 4.09 3.11-3.05 8.09-3.05 11.2 0 12.44 12.213 32.342 12.23 44.8 0 3.11-3.05 8.09-3.05 11.2 0 12.44 12.213 32.342 12.23 44.8 0 3.11-3.05 8.09-3.05 11.2 0 12.44 12.213 32.342 12.23 44.8 0 3.11-3.05 8.09-3.05 11.2 0 12.44 12.213 32.342 12.23 44.8 0 3.11-3.05 8.09-3.05 11.2 0 12.44 12.213 32.342 12.23 44.8 0 3.11-3.05 8.09-3.05 11.2 0 13.544 13.297 35.941 12.237 47.96-4.09 4.563-6.21 14.44-2.961 14.44 4.74z" fill="#f1cc76"/><path d="m449.57 194.771c-2.631 3.573-5.901 6.521-9.56 8.725v140.525c0 4.42-3.58 8-8 8h24c4.42 0 8-3.58 8-8v-144.51c0-7.707-9.88-10.946-14.44-4.74z" fill="#ebb15d"/><path d="m472.01 160.021v15.3c0 38.242-43.469 63.145-76 39.69-16.659 12.016-39.328 12.026-56 0-16.659 12.016-39.328 12.026-56 0-16.659 12.016-39.328 12.026-56 0-16.659 12.016-39.328 12.026-56 0-16.659 12.016-39.328 12.026-56 0-20.959 15.111-50.456 10.962-66.44-10.76-11.04-15.008-9.56-27.73-9.56-44.23 0-17.65 14.35-32 32-32h368c17.65 0 32 14.35 32 32z" fill="#e48c9b"/><path d="m440.01 128.021h-24c17.65 0 32 14.35 32 32v15.3c0 22.355-15.315 41.603-36.178 47.134 19.715 5.146 39.298-2.825 50.628-18.204 11.003-14.981 9.55-27.631 9.55-44.23 0-17.65-14.35-32-32-32z" fill="#cc5b6f"/><path d="m480.01 344.021v24c0 17.65-14.35 32-32 32h-384c-17.65 0-32-14.35-32-32v-24c0-4.42 3.58-8 8-8h432c4.42 0 8 3.58 8 8z" fill="#edebfd"/><path d="m472.01 336.021h-24c4.42 0 8 3.58 8 8v24c0 17.65-14.35 32-32 32h24c17.65 0 32-14.35 32-32v-24c0-4.42-3.58-8-8-8z" fill="#d2d2fc"/><path d="m344.01 504.021c0 4.42-3.58 8-8 8h-160c-4.42 0-8-3.58-8-8 0-22.06 17.94-40 40-40h96c22.06 0 40 17.94 40 40z" fill="#edebfd"/><path d="m304.01 464.021h-24c22.06 0 40 17.94 40 40 0 4.42-3.58 8-8 8h24c4.42 0 8-3.58 8-8 0-22.06-17.94-40-40-40z" fill="#d2d2fc"/><path d="m488.01 352.021h-464c-4.418 0-8-3.582-8-8s3.582-8 8-8h464c4.418 0 8 3.582 8 8s-3.581 8-8 8z" fill="#d2d2fc"/><g fill="#edebfd"><circle cx="88.01" cy="168.021" r="8"/><circle cx="144.01" cy="168.021" r="8"/><circle cx="200.01" cy="168.021" r="8"/><circle cx="256.01" cy="168.021" r="8"/><circle cx="312.01" cy="168.021" r="8"/><circle cx="368.01" cy="168.021" r="8"/><circle cx="424.01" cy="168.021" r="8"/></g><path d="m344.01 280.021c0 4.42-3.58 8-8 8h-288v-16h288c4.42 0 8 3.58 8 8z" fill="#ebb15d"/><path d="m464.01 272.021v16h-96c-4.42 0-8-3.58-8-8s3.58-8 8-8z" fill="#ebb15d"/></g></svg>