<svg id="Layer_1" enable-background="new 0 0 512.142 512.142" height="512" viewBox="0 0 512.142 512.142" width="512" xmlns="http://www.w3.org/2000/svg"><g><path d="m445.439 466.882c-22.206 2.605-14.393 1.691-34.18 4 .767 13.289-9.854 25.26-23.98 25.26h-71.63c-3.246 9.158-12.01 16-22.65 16h-73.86c-10.634 0-19.403-6.837-22.65-16h-71.63c-14.121 0-24.747-11.969-23.98-25.26-19.794-2.31-11.981-1.396-34.18-4-15.87-2.275-24.437-18.171-19.34-32.04l38.34-103.59c17.41-47.02 46.87-88.94 85.22-121.23 1.44-1.21 3.26-1.88 5.15-1.88h160c1.91 0 3.76.68 5.21 1.93 37.66 32.27 66.78 73.87 84.23 120.3l39.25 104.41c5.153 14.034-3.536 29.838-19.32 32.1z" fill="#edebfd"/><g fill="#d2d2fc"><path d="m464.759 434.783-39.25-104.41c-17.45-46.43-46.57-88.03-84.23-120.3-1.45-1.25-3.3-1.93-5.21-1.93h-26c1.91 0 3.76.68 5.21 1.93 37.66 32.27 66.78 73.87 84.23 120.3l39.25 104.41c5.153 14.033-3.536 29.837-19.32 32.1l-34.18 4c.726 13.276-9.799 25.26-23.98 25.26h26c14.186 0 24.706-11.989 23.98-25.26 36.463-4.267 34.133-3.99 34.37-4.03 15.11-2.141 24.419-17.667 19.13-32.07z"/><path d="m138.509 330.192-37.63 140.69-15.68-1.83 37.85-142.96c1.13-4.27 5.5-6.82 9.78-5.68 4.27 1.13 6.81 5.51 5.68 9.78z"/><path d="m213.188 401.533-16.7 94.61h-16.25l17.19-97.39c.77-4.35 4.92-7.25 9.27-6.49 4.35.77 7.26 4.919 6.49 9.27z"/><path d="m411.259 470.882-37.63-140.69c-1.13-4.27 1.41-8.65 5.68-9.78 4.28-1.14 8.65 1.41 9.78 5.68l37.85 142.96z"/></g><path d="m345.449 184.852c-.92 10.33-1.38 20.86-1.38 31.29 0 4.42-3.58 8-8 8h-160c-4.42 0-8-3.58-8-8 0-31.432-3.446-32.91.69-37.4 1.51-1.66 3.66-2.6 5.9-2.6h162.82c4.686 0 8.389 4.026 7.97 8.71z" fill="#edebfd"/><path d="m343.379 178.743c-1.51-1.66-3.66-2.6-5.9-2.6h-23c4.686 0 8.389 4.025 7.97 8.71-.92 10.33-1.38 20.86-1.38 31.29 0 4.42-3.58 8-8 8h23c4.42 0 8-3.58 8-8 0-31.433 3.446-32.911-.69-37.4z" fill="#d2d2fc"/><path d="m331.9 496.142h-16.25l-16.7-94.61c-.77-4.35 2.14-8.5 6.49-9.27s8.5 2.14 9.27 6.49z" fill="#d2d2fc"/><path d="m372.709 74.772c-10.844 29.84-22.893 60.702-27.26 110.07-.37 4.13-3.82 7.3-7.97 7.3h-162.82c-4.15 0-7.6-3.17-7.97-7.3-5.942-67.175-26.688-101.878-29.78-119.44-5.686-32.183 17.692-65.26 56.86-65.26 16.55 0 32.12 7.29 42.72 20.01l19.58 23.49 19.57-23.49c10.61-12.72 26.18-20.01 42.73-20.01 43.158 0 66.953 40.082 54.34 74.63z" fill="#e48c9b"/><path d="m307.448 1.238c29.376 5.914 49.046 34.361 43.781 64.165-3.087 17.535-23.84 52.291-29.78 119.44-.37 4.13-3.82 7.3-7.97 7.3h24c4.15 0 7.6-3.17 7.97-7.3 4.43-50.078 17.143-82.231 27.26-110.07 14.596-39.981-19.651-82.626-65.261-73.535z" fill="#cc5b6f"/></g></svg>