<svg id="Layer_1" enable-background="new 0 0 512 512" height="512" viewBox="0 0 512 512" width="512" xmlns="http://www.w3.org/2000/svg"><g><path d="m152 72v32c0 4.42-3.58 8-8 8h-80c-4.42 0-8-3.58-8-8v-32c0-4.42 3.58-8 8-8h80c4.42 0 8 3.58 8 8z" fill="#d2d2fc"/><path d="m448 72v32c0 4.42-3.58 8-8 8h-80c-4.42 0-8-3.58-8-8v-32c0-4.42 3.58-8 8-8h80c4.42 0 8 3.58 8 8z" fill="#d2d2fc"/><path d="m512 128v288c0 17.64-14.35 32-32 32h-448c-17.65 0-32-14.36-32-32v-288c0-17.64 14.35-32 32-32h448c17.65 0 32 14.36 32 32z" fill="#edebfd"/><path d="m480 96h-40c17.65 0 32 14.36 32 32v288c0 17.64-14.35 32-32 32h40c17.65 0 32-14.36 32-32v-288c0-17.64-14.35-32-32-32z" fill="#d2d2fc"/><circle cx="112" cy="208" fill="#9da0df" r="80"/><path d="m192 208c0 50.391-46.403 88.559-96 78.39 36.47-7.43 64-39.76 64-78.39s-27.53-70.96-64-78.39c49.556-10.161 96 27.963 96 78.39z" fill="#8286c6"/><circle cx="400" cy="209" fill="#9da0df" r="80"/><path d="m480 209c0 50.391-46.403 88.559-96 78.39 36.47-7.43 64-39.76 64-78.39s-27.53-70.96-64-78.39c49.556-10.161 96 27.963 96 78.39z" fill="#8286c6"/><circle cx="112" cy="208" fill="#e48c9b" r="24"/><path d="m104 185.377c21.28 7.551 21.284 37.693 0 45.246 15.588 5.532 32-6.114 32-22.623 0-16.55-16.442-28.145-32-22.623z" fill="#cc5b6f"/><path d="m424 209c0 16.598-16.561 28.177-32 22.62-9.31-3.29-16-12.19-16-22.62s6.69-19.33 16-22.62c15.428-5.554 32 6.012 32 22.62z" fill="#e48c9b"/><path d="m392.004 186.378c21.273 7.554 21.279 37.687 0 45.243 15.388 5.536 31.996-5.98 31.996-22.621 0-16.62-16.584-28.166-31.996-22.622z" fill="#cc5b6f"/><path d="m304 136v80c0 4.42-3.58 8-8 8h-80c-4.42 0-8-3.58-8-8v-80c0-4.42 3.58-8 8-8h80c4.42 0 8 3.58 8 8z" fill="#9da0df"/><path d="m296 128h-32c4.42 0 8 3.58 8 8v80c0 4.42-3.58 8-8 8h32c4.42 0 8-3.58 8-8v-80c0-4.42-3.58-8-8-8z" fill="#8286c6"/><path d="m96 360v48c0 4.42-3.58 8-8 8h-24c-17.65 0-32-14.36-32-32s14.35-32 32-32h24c4.42 0 8 3.58 8 8z" fill="#e48c9b"/><path d="m192 384c0 17.64-14.35 32-32 32h-24c-4.42 0-8-3.58-8-8v-48c0-4.42 3.58-8 8-8h24c17.65 0 32 14.36 32 32z" fill="#e48c9b"/><path d="m160 352h-32c17.65 0 32 14.36 32 32s-14.35 32-32 32h32c17.65 0 32-14.36 32-32s-14.35-32-32-32z" fill="#cc5b6f"/><path d="m144 360v48c0 4.42-3.58 8-8 8h-48c-4.42 0-8-3.58-8-8v-48c0-4.42 3.58-8 8-8h48c4.42 0 8 3.58 8 8z" fill="#e48c9b"/><path d="m384 360v48c0 4.42-3.58 8-8 8h-24c-17.65 0-32-14.36-32-32s14.35-32 32-32h24c4.42 0 8 3.58 8 8z" fill="#e48c9b"/><path d="m480 384c0 17.64-14.35 32-32 32h-24c-4.42 0-8-3.58-8-8v-48c0-4.42 3.58-8 8-8h24c17.65 0 32 14.36 32 32z" fill="#e48c9b"/><path d="m448 352h-32c17.65 0 32 14.36 32 32s-14.35 32-32 32h32c17.65 0 32-14.36 32-32s-14.35-32-32-32z" fill="#cc5b6f"/><path d="m432 360v48c0 4.42-3.58 8-8 8h-48c-4.42 0-8-3.58-8-8v-48c0-4.42 3.58-8 8-8h48c4.42 0 8 3.58 8 8z" fill="#e48c9b"/><path d="m232 416c-4.418 0-8-3.582-8-8v-128c0-4.418 3.582-8 8-8s8 3.582 8 8v128c0 4.418-3.582 8-8 8z" fill="#595965"/><path d="m248 304h-32c-4.418 0-8-3.582-8-8s3.582-8 8-8h32c4.418 0 8 3.582 8 8s-3.582 8-8 8z" fill="#9da0df"/><path d="m288 416c-4.418 0-8-3.582-8-8v-128c0-4.418 3.582-8 8-8s8 3.582 8 8v128c0 4.418-3.582 8-8 8z" fill="#595965"/><path d="m304 344h-32c-4.418 0-8-3.582-8-8s3.582-8 8-8h32c4.418 0 8 3.582 8 8s-3.582 8-8 8z" fill="#9da0df"/><g fill="#595965"><path d="m72 328h-16c-4.418 0-8-3.582-8-8s3.582-8 8-8h16c4.418 0 8 3.582 8 8s-3.582 8-8 8z"/><path d="m120 328h-16c-4.418 0-8-3.582-8-8s3.582-8 8-8h16c4.418 0 8 3.582 8 8s-3.582 8-8 8z"/><path d="m168 328h-16c-4.418 0-8-3.582-8-8s3.582-8 8-8h16c4.418 0 8 3.582 8 8s-3.582 8-8 8z"/><path d="m360 328h-16c-4.418 0-8-3.582-8-8s3.582-8 8-8h16c4.418 0 8 3.582 8 8s-3.582 8-8 8z"/><path d="m408 328h-16c-4.418 0-8-3.582-8-8s3.582-8 8-8h16c4.418 0 8 3.582 8 8s-3.582 8-8 8z"/><path d="m456 328h-16c-4.418 0-8-3.582-8-8s3.582-8 8-8h16c4.418 0 8 3.582 8 8s-3.582 8-8 8z"/></g><path d="m368 352h16v64h-16z" fill="#cc5b6f"/><path d="m416 352h16v64h-16z" fill="#cc5b6f"/><path d="m80 352h16v64h-16z" fill="#cc5b6f"/><path d="m128 352h16v64h-16z" fill="#cc5b6f"/></g></svg>