<svg id="Layer_1" enable-background="new 0 0 512 512" height="512" viewBox="0 0 512 512" width="512" xmlns="http://www.w3.org/2000/svg"><g><path d="m192 88v32c0 4.42-3.58 8-8 8h-80c-4.42 0-8-3.58-8-8v-32c0-4.42 3.58-8 8-8h80c4.42 0 8 3.58 8 8z" fill="#595965"/><path d="m184 80h-40c4.42 0 8 3.58 8 8v32c0 4.42-3.58 8-8 8h40c4.42 0 8-3.58 8-8v-32c0-4.42-3.58-8-8-8z" fill="#44454e"/><path d="m488 88v32c0 4.42-3.58 8-8 8h-80c-4.42 0-8-3.58-8-8v-32c0-4.42 3.58-8 8-8h80c4.42 0 8 3.58 8 8z" fill="#595965"/><path d="m480 80h-40c4.42 0 8 3.58 8 8v32c0 4.42-3.58 8-8 8h40c4.42 0 8-3.58 8-8v-32c0-4.42-3.58-8-8-8z" fill="#44454e"/><path d="m112 88v32c0 4.42-3.58 8-8 8h-48c-4.42 0-8-3.58-8-8v-32c0-4.42 3.58-8 8-8h48c4.42 0 8 3.58 8 8z" fill="#595965"/><path d="m104 80h-24c4.42 0 8 3.58 8 8v32c0 4.42-3.58 8-8 8h24c4.42 0 8-3.58 8-8v-32c0-4.42-3.58-8-8-8z" fill="#44454e"/><path d="m376 128h-192c-6 0-9.794-6.312-7.16-11.58l33.37-66.73c5.46-10.91 16.42-17.69 28.62-17.69h82.34c12.2 0 23.16 6.78 28.62 17.69l33.37 66.73c2.64 5.28-1.176 11.58-7.16 11.58z" fill="#f1cc76"/><path d="m383.16 116.42-33.37-66.73c-5.46-10.91-16.42-17.69-28.62-17.69h-41c12.2 0 23.16 6.78 28.62 17.69l33.37 66.73c2.64 5.28-1.176 11.58-7.16 11.58h41c6 0 9.794-6.312 7.16-11.58z" fill="#ebb15d"/><path d="m512 216v232c0 17.64-14.35 32-32 32h-448c-17.65 0-32-14.36-32-32v-232c0-4.42 3.58-8 8-8h496c4.42 0 8 3.58 8 8z" fill="#edebfd"/><path d="m504 208h-40c4.42 0 8 3.58 8 8v232c0 17.64-14.35 32-32 32h40c17.65 0 32-14.36 32-32v-232c0-4.42-3.58-8-8-8z" fill="#d2d2fc"/><g fill="#e48c9b"><path d="m384 120v68.67c0 6.916-8.156 10.504-13.25 6.03-3.32-2.213-35.367-34.7-90.75-34.7-34.359 0-66.48 12.921-90.66 34.63h-.01c-.03.02-.05.05-.08.07-5.173 4.491-13.25.824-13.25-6.03v-68.67c0-4.42 3.58-8 8-8h192c4.42 0 8 3.58 8 8z"/><path d="m192 120v68.67c0 2.28-.97 4.43-2.66 5.96-.462 0-12.742 11.355-22.43 25.82-1.49 2.22-3.98 3.55-6.65 3.55h-152.26c-4.42 0-8-3.58-8-8v-72c0-17.64 14.35-32 32-32h152c4.42 0 8 3.58 8 8z"/><path d="m512 144v72c0 4.42-3.58 8-8 8h-104.26c-2.67 0-5.16-1.33-6.65-3.55-9.46-14.125-21.262-25.048-22.42-25.82-.273 0-2.67-2.508-2.67-5.96v-68.67c0-4.42 3.58-8 8-8h104c17.65 0 32 14.36 32 32z"/></g><path d="m480 112h-40c17.65 0 32 14.36 32 32v72c0 4.42-3.58 8-8 8h40c4.42 0 8-3.58 8-8v-72c0-17.64-14.35-32-32-32z" fill="#cc5b6f"/><circle cx="448" cy="416" fill="#e48c9b" r="32"/><path d="m440 385.012c13.789 3.562 24 16.108 24 30.988s-10.211 27.426-24 30.988c20.235 5.227 40-10.124 40-30.988 0-20.907-19.799-36.206-40-30.988z" fill="#cc5b6f"/><circle cx="136" cy="168" fill="#f1cc76" r="24"/><path d="m128 145.377c21.28 7.552 21.284 37.693 0 45.246 15.588 5.532 32-6.114 32-22.623 0-16.55-16.441-28.145-32-22.623z" fill="#ebb15d"/><path d="m472 160h-64c-4.418 0-8-3.582-8-8s3.582-8 8-8h64c4.418 0 8 3.582 8 8s-3.582 8-8 8z" fill="#ebb15d"/><path d="m384 112c0 103.444.17 96-.31 96-4.265-5.02-10.221-11.122-15.69-15.68v-80.32z" fill="#cc5b6f"/><path d="m192 112v80.32c-6.55 5.458-12.672 12.127-15.69 15.68-.482 0-.31 7.383-.31-96z" fill="#cc5b6f"/><path d="m432 296c0 83.81-68.19 152-152 152s-152-68.19-152-152c0-44.873 19.476-85.38 50.67-113.29 57.609-51.575 144.958-51.649 202.67 0 31.045 27.806 50.66 68.23 50.66 113.29z" fill="#595965"/><path d="m432 296c0 90.362-78.651 160.665-168 151.16 76.32-8.02 136-72.75 136-151.16 0-77.921-58.913-143.033-135.95-151.15 89.774-9.459 167.95 60.914 167.95 151.15z" fill="#44454e"/><circle cx="280" cy="296" fill="#c8effd" r="120"/><path d="m400 296c0 74.46-67.319 130.736-140 118.32 56.69-9.54 100-58.96 100-118.32s-43.31-108.78-100-118.32c72.799-12.436 140 44.008 140 118.32z" fill="#a0e1fd"/></g></svg>