<svg id="Layer_1" enable-background="new 0 0 512.098 512.098" height="512" viewBox="0 0 512.098 512.098" width="512" xmlns="http://www.w3.org/2000/svg"><g><path d="m512.019 99.16c0 5.196-1.242 10.822-2.44 13.52l-17.09 38.87c-2.242 5.126-8.921 6.384-12.89 2.52-36.12-35.07-81.57-56.83-131.43-62.95-3.97-.49-6.97-3.83-7.03-7.83-.17-12.49-3.75-24.66-10.35-35.19-3.343-5.362.534-12.25 6.78-12.25 7.2 0 13.97-3.84 17.68-10.02l1.25-2.08c8.12-13.52 23.45-20.82 39.07-18.59 19.301 2.772 33.59 19.296 33.59 38.72v2.16c0 13.316 13.205 22.626 25.77 18.08l4.73-1.71c25.224-9.112 52.36 9.46 52.36 36.75z" fill="#79cb9c"/><path d="m405.019 43.88v2.16c0 10.558 8.509 19.23 19.23 19.23 5.059 0 7.568-1.76 13.142-3.46-5.365-3.748-8.232-9.641-8.232-15.77v-2.16c0-26.564-25.988-45.375-51.203-37.199 16.325 5.295 27.063 20.458 27.063 37.199z" fill="#63ac7d"/><path d="m460.847 62.029c21.09 6.809 32.08 29.522 24.813 50.091-.104.33.841-1.854-14.856 33.849 2.987 2.619 5.924 5.313 8.796 8.101 3.981 3.876 10.656 2.587 12.89-2.52 18.219-41.437 17.206-39.099 17.31-39.43 10.797-30.559-18.275-60.066-48.953-50.091z" fill="#63ac7d"/><path d="m152.819 494.37-40.54 15.39c-26.398 9.023-52.22-10.399-52.22-36.8 0-7.841 2.128-12.731 4.05-18.02 3.442-9.535-1.155-20.332-10.73-24.3-3.902-1.611-6.756-1.46-9.52-1.46-21.193 0-39.11-17.333-39.11-39.13 0-13.66 7.27-26.5 18.98-33.53l2.08-1.25c6.18-3.71 10.02-10.48 10.02-17.68 0-6.32 6.974-10.1 12.26-6.77 10.021 6.33 22.376 10.175 35.18 10.34 4 .05 7.34 3.05 7.83 7.03 6.22 50.68 28.54 96.69 64.56 133.07 4.065 4.087 2.579 11.054-2.84 13.11z" fill="#79cb9c"/><path d="m64.109 430.8c4.474-12.392-4.65-25.76-18.09-25.76h-2.16c-17.057 0-32.008-11.235-37.181-27.025-8.307 25.488 11.097 51.165 37.181 51.165h2.16c6.051 0 12.013 2.851 15.752 8.221.466-1.523.684-2.05 2.338-6.601z" fill="#63ac7d"/><path d="m147.282 472.332c-35.875 13.619-35.081 13.307-35.183 13.358-20.586 7.221-43.37-3.901-50.13-24.768-9.802 30.284 18.895 59.576 50.31 48.837l40.54-15.39c5.409-2.052 6.911-9.017 2.84-13.11-2.884-2.912-5.67-5.893-8.377-8.927z" fill="#63ac7d"/><path d="m133.429 124.32c-7.336 73.531-6.845 69.474-7.23 70.63-.666 2.061-1.341 2.15-6.55 11.23-1.965 3.432-6.184 4.941-9.92 3.44-13.97-5.61-29.65-6.44-44.15-2.31-3.64 1.03-7.51-.63-9.27-3.98l-7.83-14.9c-16.337-27.602 7.958-61.353 39.08-55.05 8.69 1.71 17.865-.787 24.52-7.39l7.59-7.98c5.243-5.508 14.517-1.26 13.76 6.31z" fill="#79cb9c"/><path d="m206.159 119.67c-32.543 18.692-61.13 46.385-80.83 77.14-4.552 7.054-15.537 3.21-14.7-5.11 8.334-83.554 5.339-53.581 12.83-128.44.479-4.73 4.968-8.045 9.7-7.01l65.47 14.55c3.87.86 6.53 4.44 6.24 8.4-.77 10.39.87 20.95 4.73 30.54 1.49 3.71.02 7.94-3.44 9.93z" fill="#faf0d3"/><path d="m209.599 109.74c-3.86-9.59-5.5-20.15-4.73-30.54.29-3.96-2.37-7.54-6.24-8.4l-65.47-14.55c-4.738-1.037-9.221 2.285-9.7 7.01l-.658 6.577 62.828 13.963c3.87.86 6.53 4.44 6.24 8.4-1.399 18.883 5.027 29.378 5.281 32.961 2.967-1.892 5.96-3.741 9.009-5.492 3.46-1.989 4.93-6.219 3.44-9.929z" fill="#f4e1a1"/><path d="m357.139 83.07c.063 4.815-4.121 8.641-8.98 8.05-48.99-6.02-99.42 4.12-142 28.55-4.177 2.397-9.58.579-11.4-3.95-12.33-30.632-5.767-66.643 18.6-91.01 38.215-38.215 102.258-30.978 130.99 14.89 8.15 13.01 12.58 28.04 12.79 43.47z" fill="#e48c9b"/><path d="m258.419 1.351c40.239 6.977 69.174 41.587 69.72 81.719.031 2.408-1.025 4.802-3.076 6.404 7.71.157 15.421.703 23.096 1.646 4.858.591 9.043-3.234 8.98-8.05-.697-51.225-46.976-90.692-98.72-81.719z" fill="#cc5b6f"/><path d="m119.649 206.18c-24.077 41.965-34.725 91.84-28.55 142 .589 4.814-3.174 8.98-7.94 8.98-20.718 0-42.395-8.56-58.47-24.67-32.915-32.895-32.924-86.186 0-119.11 24.319-24.319 60.307-30.938 91-18.6 4.509 1.803 6.376 7.177 3.96 11.4z" fill="#e48c9b"/><path d="m89.738 332.583c-1.552 2.252-4.056 3.457-6.579 3.457-39.75 0-77.088-30.427-82.463-73.66-6.293 50.61 32.776 94.103 82.353 94.78 5.092 0 8.618-4.336 8.05-8.98-.634-5.157-1.077-10.37-1.361-15.597z" fill="#cc5b6f"/><path d="m493.369 225.51-267.88 267.89c-22.419 22.398-58.332 21.958-80.33 0-95.478-95.229-95.936-250.655 0-346.59 98.61-98.602 252.041-96.735 348.22-1.63 22.375 22.395 21.977 58.386-.01 80.33z" fill="#f1cc76"/><g fill="#ebb15d"><path d="m493.379 145.18c-6.818-6.742-13.388-12.721-21.493-19.145 13.456 22.266 9.923 51.07-8.517 69.474l-267.88 267.891c-18.932 18.914-47.628 21.644-69.486 8.482 6.119 7.718 12.826 15.205 19.156 21.518 21.987 21.947 57.9 22.409 80.33 0l267.88-267.89c21.946-21.904 22.43-57.889.01-80.33z"/><circle cx="171.849" cy="414.44" r="9.529"/><circle cx="185.325" cy="454.868" r="9.529"/><circle cx="212.277" cy="427.916" r="9.529"/></g></g></svg>