<svg id="Layer_1" enable-background="new 0 0 512.009 512.009" height="512" viewBox="0 0 512.009 512.009" width="512" xmlns="http://www.w3.org/2000/svg"><g><path d="m8.009 512.006c-7.064 0-10.711-8.602-5.657-13.657l80-80c3.124-3.123 8.189-3.123 11.313 0 3.125 3.125 3.125 8.189 0 11.314l-80 80c-1.561 1.562-3.609 2.343-5.656 2.343z" fill="#edebfd"/><path d="m141.919 429.416-18.59 18.59c-6.24 6.24-16.4 6.24-22.64 0-30.45-30.449-23.439-23.439-36.68-36.68-6.24-6.24-6.24-16.4 0-22.64l18.59-18.59c3.59-3.59 9.61-2.97 12.38 1.32.69 1.06-2.61-2.37 44.32 44.56 1.31 1.35 4.45 2.55 4.91 6.93.26 2.4-.58 4.8-2.29 6.51z" fill="#595965"/><path d="m141.919 429.416-18.59 18.59c-6.24 6.24-16.4 6.24-22.64 0l-25.67-25.67c6.05 3.19 13.73 2.25 18.81-2.83l18.59-18.59c2.45-2.45 3.09-6.27 1.37-9.45l25.51 24.51c1.31 1.35 4.45 2.55 4.91 6.93.26 2.4-.58 4.8-2.29 6.51z" fill="#44454e"/><path d="m512.009 112.006c0 53.887-38.077 98.846-88.69 109.57-3.089.62-5.997-.532-7.81-2.71-.343-.441-122.065-122.116-122.37-122.37-2.27-1.9-3.31-4.9-2.7-7.8 10.734-50.659 55.733-88.69 109.57-88.69 61.76 0 112 50.24 112 112z" fill="#595965"/><path d="m512.009 112.006c0 53.89-38.08 98.85-88.69 109.57-3.09.62-6-.53-7.81-2.71-.11-.14-13.16-13.21-30.71-30.77 1.76 1.36 4.08 1.97 6.52 1.48 77.697-16.457 113.18-106.106 70.22-171.1 30.38 20.03 50.47 54.48 50.47 93.53z" fill="#44454e"/><path d="m379.589 255.166c-20.68 10.33-40.13 23.11-57.82 37.97l-161.38 135.56c-8.571 7.201-20.235 7.206-28.4 1.82-3.038-1.98-1.414-.646-24.64-23.83-25.56-25.51-24.22-24.12-25.81-26.59-5.76-8.9-5.05-20.34 1.79-28.47l135.54-161.37c14.87-17.7 27.65-37.15 37.98-57.83 2.42-4.83 8.91-5.97 12.82-2.08l112 112c3.88 3.88 2.77 10.4-2.08 12.82z" fill="#edebfd"/><path d="m379.589 255.166c-20.68 10.33-40.13 23.11-57.82 37.97l-161.38 135.56c-8.571 7.201-20.235 7.206-28.4 1.82-3.038-1.98-1.414-.646-24.64-23.83 7.18 1.74 14.98.1 21.04-4.99l161.38-135.56c17.69-14.86 37.14-27.64 57.82-37.97 4.85-2.42 5.96-8.94 2.08-12.82l32 27c3.88 3.88 2.77 10.4-2.08 12.82z" fill="#d2d2fc"/><path d="m426.359 240.976-17.38 17.38c-9.335 9.315-24.542 9.378-33.94 0l-121.38-121.38c-9.35-9.36-9.35-24.58 0-33.94l17.38-17.38c9.364-9.364 24.893-9.223 33.94.01 129.621 129.61 121.732 121.646 122.83 122.96 7.89 9.42 7.26 23.64-1.45 32.35z" fill="#9da0df"/><path d="m427.809 208.626c-1.017-1.217-10.985-11.125-33.431-33.57 9.692 9.9 8.863 25.038-.019 33.919l-17.38 17.38c-9.342 9.322-24.549 9.371-33.939 0l31.999 31.999c9.41 9.389 24.617 9.303 33.94 0l17.38-17.38c8.71-8.708 9.34-22.928 1.45-32.348z" fill="#8286c6"/><path d="m480.009 208.006c-2.047 0-4.095-.781-5.657-2.343l-168-168c-3.125-3.125-3.125-8.189 0-11.314 3.124-3.123 8.189-3.123 11.313 0l168 168c5.055 5.055 1.408 13.657-5.656 13.657z" fill="#9da0df"/><path d="m304.979 232.006c0 6.67-2.6 12.94-7.31 17.66l-24 24c-9.746 9.726-25.561 9.738-35.32 0-9.678-9.699-9.824-25.475 0-35.32l24-24c15.584-15.552 42.63-4.668 42.63 17.66z" fill="#e48c9b"/><path d="m292.591 210.436c5.528 9.464 4.351 21.939-3.922 30.23l-24 24c-8.166 8.149-20.631 9.509-30.243 3.908 8.317 14.239 27.743 16.569 39.243 5.092l24-24c11.557-11.582 9.073-30.98-5.078-39.23z" fill="#cc5b6f"/><path d="m120.009 376.006c-7.064 0-10.711-8.602-5.657-13.657l8-8c3.124-3.123 8.189-3.123 11.313 0 3.125 3.125 3.125 8.189 0 11.314l-8 8c-1.561 1.562-3.609 2.343-5.656 2.343z" fill="#595965"/><path d="m144.009 400.006c-7.064 0-10.711-8.602-5.657-13.657l8-8c3.124-3.123 8.189-3.123 11.313 0 3.125 3.125 3.125 8.189 0 11.314l-8 8c-1.561 1.562-3.609 2.343-5.656 2.343z" fill="#595965"/><path d="m128.009 104.006c-4.418 0-8-3.582-8-8v-88c0-4.418 3.582-8 8-8s8 3.582 8 8v88c0 4.418-3.582 8-8 8z" fill="#cc5b6f"/><path d="m200.009 24.006v32c0 5.204-4.888 9.024-9.94 7.76l-64-16c-3.56-.89-6.06-4.09-6.06-7.76v-32c0-5.227 4.92-9.02 9.94-7.76l64 16c3.56.89 6.06 4.09 6.06 7.76z" fill="#e48c9b"/><path d="m193.949 16.246-9.94-2.485v26.245c0 4.411-3.571 8-8 8-1.403 0 3.144 1.031-56-13.755v5.755c0 3.67 2.5 6.87 6.06 7.76 69.405 17.351 64.525 16.24 65.94 16.24 4.429 0 8-3.589 8-8v-32c0-3.67-2.5-6.87-6.06-7.76z" fill="#cc5b6f"/><path d="m440.009 424.006c-4.418 0-8-3.582-8-8v-88c0-4.418 3.582-8 8-8s8 3.582 8 8v88c0 4.418-3.582 8-8 8z" fill="#63ac7d"/><ellipse cx="96.009" cy="96.006" fill="#e48c9b" rx="40" ry="32"/><path d="m117.612 69.096c9.496 20.879-10.002 42.91-37.603 42.91-7.955 0-15.367-1.875-21.603-5.09 5.588 12.287 20.332 21.09 37.603 21.09 22.06 0 40-14.36 40-32 0-11.279-7.341-21.209-18.397-26.91z" fill="#cc5b6f"/><path d="m512.009 344.006v32c0 5.204-4.888 9.024-9.94 7.76l-64-16c-3.56-.89-6.06-4.09-6.06-7.76v-32c0-5.227 4.92-9.02 9.94-7.76l64 16c3.56.89 6.06 4.09 6.06 7.76z" fill="#79cb9c"/><path d="m505.949 336.246-9.94-2.485v26.245c0 4.411-3.571 8-8 8-1.403 0 3.144 1.031-56-13.755v5.755c0 3.67 2.5 6.87 6.06 7.76 69.405 17.351 64.525 16.24 65.94 16.24 4.429 0 8-3.589 8-8v-32c0-3.67-2.5-6.87-6.06-7.76z" fill="#63ac7d"/><ellipse cx="408.009" cy="416.006" fill="#79cb9c" rx="40" ry="32"/><path d="m429.612 389.096c9.496 20.879-10.002 42.91-37.603 42.91-7.955 0-15.367-1.875-21.603-5.09 5.588 12.287 20.332 21.09 37.603 21.09 22.06 0 40-14.36 40-32 0-11.279-7.341-21.209-18.397-26.91z" fill="#63ac7d"/></g></svg>