<svg id="Layer_1" enable-background="new 0 0 512 512" height="512" viewBox="0 0 512 512" width="512" xmlns="http://www.w3.org/2000/svg"><g><path d="m456 280v112c0 4.42-3.58 8-8 8h-128c-4.42 0-8-3.58-8-8v-112c0-4.42 3.58-8 8-8h128c4.42 0 8 3.58 8 8z" fill="#79cb9c"/><path d="m448 272h-40c4.42 0 8 3.58 8 8v112c0 4.42-3.58 8-8 8h40c4.42 0 8-3.58 8-8v-112c0-4.42-3.58-8-8-8z" fill="#63ac7d"/><path d="m456 280v64c0 4.42-3.58 8-8 8h-48c-4.42 0-8-3.58-8-8v-64c0-4.42 3.58-8 8-8h48c4.42 0 8 3.58 8 8z" fill="#f1cc76"/><path d="m328 280v112c0 4.42-3.58 8-8 8h-128c-4.42 0-8-3.58-8-8v-112c0-4.42 3.58-8 8-8h128c4.42 0 8 3.58 8 8z" fill="#79cb9c"/><path d="m200 280v112c0 4.42-3.58 8-8 8h-128c-4.42 0-8-3.58-8-8v-112c0-4.42 3.58-8 8-8h128c4.42 0 8 3.58 8 8z" fill="#79cb9c"/><path d="m192 272h-32c4.42 0 8 3.58 8 8v112c0 4.42-3.58 8-8 8h32c4.42 0 8-3.58 8-8v-112c0-4.42-3.58-8-8-8z" fill="#63ac7d"/><path d="m200 280v64c0 4.42-3.58 8-8 8h-48c-4.42 0-8-3.58-8-8v-64c0-4.42 3.58-8 8-8h48c4.42 0 8 3.58 8 8z" fill="#f1cc76"/><path d="m320 272h-32c4.42 0 8 3.58 8 8v112c0 4.42-3.58 8-8 8h32c4.42 0 8-3.58 8-8v-112c0-4.42-3.58-8-8-8z" fill="#63ac7d"/><path d="m312 288h80v16h-80z" fill="#63ac7d"/><path d="m328 280v64c0 4.42-3.58 8-8 8h-48c-4.42 0-8-3.58-8-8v-64c0-4.42 3.58-8 8-8h48c4.42 0 8 3.58 8 8z" fill="#f1cc76"/><path d="m456 280v64c0 4.42-3.58 8-8 8h-40c4.42 0 8-3.58 8-8v-64c0-4.42-3.58-8-8-8h40c4.42 0 8 3.58 8 8z" fill="#ebb15d"/><path d="m456 184c0 4.42-3.58 8-8 8h-128c-4.42 0-8-3.58-8-8 0-22.666 10.34-44.152 28-58.24 3.72-2.97 6.77-6.81 8.84-11.12 3.526-7.322 3.16-12.766 3.16-18.64 0-4.42 3.58-8 8-8s8 3.58 8 8c0 13.01 7.33 24 16 24s16-10.99 16-24c0-4.42 3.58-8 8-8s8 3.58 8 8v4.78c0 9.77 4.38 18.88 12.01 24.98 17.533 14.003 27.99 35.439 27.99 58.24z" fill="#79cb9c"/><path d="m328 184c0 4.42-3.58 8-8 8h-128c-4.42 0-8-3.58-8-8 0-22.562 10.269-44.095 28-58.24 3.72-2.97 6.77-6.81 8.84-11.12 3.526-7.322 3.16-12.766 3.16-18.64 0-4.42 3.58-8 8-8s8 3.58 8 8c0 13.01 7.33 24 16 24s16-10.99 16-24c0-4.42 3.58-8 8-8s8 3.58 8 8v4.78c0 9.77 4.38 18.88 12.01 24.98 17.533 14.003 27.99 35.439 27.99 58.24z" fill="#79cb9c"/><path d="m200 184c0 4.42-3.58 8-8 8h-128c-4.42 0-8-3.58-8-8 0-22.562 10.269-44.095 28-58.24 3.72-2.97 6.77-6.81 8.84-11.12 3.526-7.321 3.16-12.766 3.16-18.64 0-4.42 3.58-8 8-8s8 3.58 8 8c0 13.01 7.33 24 16 24s16-10.99 16-24c0-4.42 3.58-8 8-8s8 3.58 8 8v4.78c0 9.77 4.38 18.88 12.01 24.98 17.665 14.108 27.99 35.62 27.99 58.24z" fill="#79cb9c"/><path d="m172.01 125.76c-7.63-6.1-12.01-15.21-12.01-24.98v-4.78c0-4.42-3.58-8-8-8s-8 3.58-8 8c0 6.902-2.064 13.236-5.296 17.662 2.048 4.658 5.201 8.816 9.306 12.098 17.665 14.108 27.99 35.62 27.99 58.24 0 4.42-3.58 8-8 8h24c4.42 0 8-3.58 8-8 0-22.607-10.315-44.124-27.99-58.24z" fill="#63ac7d"/><path d="m160 40v56c0 22.06-14.35 40-32 40s-32-17.94-32-40v-56c0-4.42 3.58-8 8-8h48c4.42 0 8 3.58 8 8z" fill="#f1cc76"/><path d="m152 32h-24c4.42 0 8 3.58 8 8v56c0 16.757-8.283 31.127-20 37.072 21.173 10.745 44-9.015 44-37.072v-56c0-4.42-3.58-8-8-8z" fill="#ebb15d"/><path d="m168 8v32c0 4.42-3.58 8-8 8h-64c-4.42 0-8-3.58-8-8v-32c0-4.42 3.58-8 8-8h64c4.42 0 8 3.58 8 8z" fill="#aa7569"/><path d="m160 0h-32c4.42 0 8 3.58 8 8v32c0 4.42-3.58 8-8 8h32c4.42 0 8-3.58 8-8v-32c0-4.42-3.58-8-8-8z" fill="#9a6758"/><path d="m300.01 125.76c-7.63-6.1-12.01-15.21-12.01-24.98v-4.78c0-4.42-3.58-8-8-8s-8 3.58-8 8c0 6.902-2.064 13.236-5.296 17.662 2.048 4.658 5.201 8.816 9.306 12.098 17.533 14.003 27.99 35.439 27.99 58.24 0 4.42-3.58 8-8 8h24c4.42 0 8-3.58 8-8 0-22.799-10.455-44.235-27.99-58.24z" fill="#63ac7d"/><path d="m288 40v56c0 22.06-14.36 40-32 40-17.65 0-32-17.94-32-40v-56c0-4.42 3.58-8 8-8h48c4.42 0 8 3.58 8 8z" fill="#f1cc76"/><path d="m280 32h-24c4.42 0 8 3.58 8 8v56c0 16.756-8.288 31.125-20.002 37.071 21.135 10.727 44.002-8.957 44.002-37.071v-56c0-4.42-3.58-8-8-8z" fill="#ebb15d"/><path d="m296 8v32c0 4.42-3.58 8-8 8h-64c-4.42 0-8-3.58-8-8v-32c0-4.42 3.58-8 8-8h64c4.42 0 8 3.58 8 8z" fill="#aa7569"/><path d="m288 0h-32c4.42 0 8 3.58 8 8v32c0 4.42-3.58 8-8 8h32c4.42 0 8-3.58 8-8v-32c0-4.42-3.58-8-8-8z" fill="#9a6758"/><path d="m428.01 125.76c-7.63-6.1-12.01-15.21-12.01-24.98v-4.78c0-4.42-3.58-8-8-8s-8 3.58-8 8c0 6.902-2.064 13.236-5.296 17.662 2.048 4.658 5.201 8.816 9.306 12.098 17.533 14.003 27.99 35.439 27.99 58.24 0 4.42-3.58 8-8 8h24c4.42 0 8-3.58 8-8 0-22.799-10.455-44.235-27.99-58.24z" fill="#63ac7d"/><path d="m416 40v56c0 22.06-14.36 40-32 40s-32-17.94-32-40v-56c0-4.42 3.58-8 8-8h48c4.42 0 8 3.58 8 8z" fill="#f1cc76"/><path d="m408 32h-24c4.42 0 8 3.58 8 8v56c0 16.755-8.287 31.124-20 37.07 21.169 10.747 44-9.018 44-37.07v-56c0-4.42-3.58-8-8-8z" fill="#ebb15d"/><path d="m424 8v32c0 4.42-3.58 8-8 8h-64c-4.42 0-8-3.58-8-8v-32c0-4.42 3.58-8 8-8h64c4.42 0 8 3.58 8 8z" fill="#aa7569"/><path d="m416 0h-32c4.42 0 8 3.58 8 8v32c0 4.42-3.58 8-8 8h32c4.42 0 8-3.58 8-8v-32c0-4.42-3.58-8-8-8z" fill="#9a6758"/><path d="m512 264v144c0 4.42-3.58 8-8 8s-8-3.58-8-8c0-4.41-3.59-8-8-8h-40c-4.42 0-8-3.58-8-8v-112c0-4.42 3.58-8 8-8h40c4.41 0 8-3.59 8-8 0-4.42 3.58-8 8-8s8 3.58 8 8z" fill="#aa7569"/><path d="m501.333 256c-5.893 0-10.667 3.58-10.667 8 0 4.41-4.787 8-10.667 8v128c5.88 0 10.667 3.59 10.667 8 0 4.42 4.773 8 10.667 8 5.893 0 10.667-3.58 10.667-8v-144c0-4.42-4.773-8-10.667-8z" fill="#9a6758"/><path d="m72 280v112c0 4.42-3.58 8-8 8h-40c-4.41 0-8 3.59-8 8 0 4.42-3.58 8-8 8s-8-3.58-8-8v-144c0-4.42 3.58-8 8-8s8 3.58 8 8c0 4.41 3.59 8 8 8h40c4.42 0 8 3.58 8 8z" fill="#aa7569"/><path d="m64 272h-32c4.42 0 8 3.58 8 8v112c0 4.42-3.58 8-8 8h32c4.42 0 8-3.58 8-8v-112c0-4.42-3.58-8-8-8z" fill="#9a6758"/><path d="m392 288h64v16h-64z" fill="#ebb15d"/><path d="m264 288v16h32v40c0 4.42-3.58 8-8 8h32c4.42 0 8-3.58 8-8 0-6.777 0-51.708 0-56-32.807 0-30.397 0-64 0z" fill="#ebb15d"/><path d="m200 288h64v16h-64z" fill="#63ac7d"/><path d="m136 288v16h32v40c0 4.42-3.58 8-8 8h32c4.42 0 8-3.58 8-8 0-6.777 0-51.708 0-56-32.807 0-30.397 0-64 0z" fill="#ebb15d"/><path d="m72 288h64v16h-64z" fill="#63ac7d"/><path d="m440 287h72v17h-72z" fill="#9a6758"/><path d="m0 272h72v32h-72z" fill="#9a6758"/><path d="m512 200v64c0 13.23-10.77 24-24 24h-464c-13.23 0-24-10.77-24-24v-64c0-13.23 10.77-24 24-24h464c13.23 0 24 10.77 24 24z" fill="#aa7569"/><path d="m488 176h-32c13.23 0 24 10.77 24 24v64c0 13.23-10.77 24-24 24h32c13.23 0 24-10.77 24-24v-64c0-13.23-10.77-24-24-24z" fill="#9a6758"/><g fill="#e2e0e0"><circle cx="40" cy="248" r="8"/><circle cx="40" cy="216" r="8"/><circle cx="472" cy="248" r="8"/><circle cx="472" cy="216" r="8"/></g><path d="m512 408v80c0 13.23-10.77 24-24 24h-464c-13.23 0-24-10.77-24-24v-80c0-13.23 10.77-24 24-24h464c13.23 0 24 10.77 24 24z" fill="#aa7569"/><path d="m488 384h-32c13.23 0 24 10.77 24 24v80c0 13.23-10.77 24-24 24h32c13.23 0 24-10.77 24-24v-80c0-13.23-10.77-24-24-24z" fill="#9a6758"/><circle cx="40" cy="472" fill="#e2e0e0" r="8"/><circle cx="40" cy="424" fill="#e2e0e0" r="8"/><circle cx="472" cy="472" fill="#e2e0e0" r="8"/><circle cx="472" cy="424" fill="#e2e0e0" r="8"/></g></svg>