<svg id="Layer_1" enable-background="new 0 0 512.007 512.007" height="512" viewBox="0 0 512.007 512.007" width="512" xmlns="http://www.w3.org/2000/svg"><g><path d="m472.003 88.003v17c0 39.15-31.85 71-71 71h-17c-4.42 0-8-3.58-8-8v-3.34c0-3.18 1.88-6.06 4.8-7.33 17.976-7.847 24.594-29.819 14.4-46.18-1.95-3.14-1.51-7.19 1.08-9.83 13.47-13.75 31.49-21.32 50.72-21.32h17c4.42 0 8 3.581 8 8z" fill="#79cb9c"/><path d="m464.003 80.003c-18.572 0-18.382-.068-22.209.208 3.555.813 6.209 3.988 6.209 7.792v17c0 37.399-29.072 68.115-65.801 70.789 1.26.291.412.211 18.801.211 39.15 0 71-31.85 71-71v-17c0-4.419-3.58-8-8-8z" fill="#63ac7d"/><circle cx="368.003" cy="128.003" fill="#e48c9b" r="48"/><path d="m387.203 171.994c-10.2 4.479-21.28 5.05-31.2 2.49 21.12-5.46 36-24.52 36-46.48 0-14.39-6.42-27.6-16.8-36.51-4.42-3.78-9.55-6.79-15.2-8.771v-2.05c5.34-.91 10.75-.9 16-.01 13.06 2.19 25.15 9.76 32.79 22.04 15.271 24.58 5.45 57.49-21.59 69.291z" fill="#cc5b6f"/><path d="m408.003 24.003c0 4.42-3.58 8-8 8-13.23 0-24 10.77-24 24v32c0 1.25-.29 2.44-.8 3.49-1.29 2.67-4.03 4.51-7.2 4.51-4.42 0-8-3.58-8-8v-32c0-22.06 17.94-40 40-40 4.42 0 8 3.581 8 8z" fill="#aa7569"/><g fill="#ebb19c"><path d="m328.003 272.013c0 4.37-3.51 7.92-7.87 7.99h-272.13c-4.42 0-8-3.58-8-8v-72c0-4.42 3.58-8 8-8h240c13.23 0 24 10.77 24 24v40c0 4.402 3.535 8 8.02 8 4.388 0 7.98 3.581 7.98 8.01z"/><path d="m408.003 304.003v72c0 4.42-3.58 8-8 8h-352c-4.42 0-8-3.58-8-8v-72c0-4.42 3.58-8 8-8h192c13.247 0 24 10.689 24 24 0 2.14.83 4.16 2.35 5.67 4.99 5.024 13.65 1.441 13.65-5.67 0-13.23 10.77-24 24-24h96c4.42 0 8 3.581 8 8z"/><path d="m376.003 248.414v23.59c0 4.42-3.58 8-8 8h-48c-4.35-.07-7.85-3.6-7.87-7.97-.02-4.469 3.641-8.03 7.94-8.03 4.37-.03 7.93-3.81 7.93-8.41v-7.59c0-13.224 10.658-24 24.02-24 13.168-.001 23.98 10.96 23.98 24.41z"/></g><path d="m408.003 304.003v8h-104c-4.41 0-8 3.59-8 8 0 21.241-25.795 32.097-40.97 16.99-4.54-4.56-7.03-10.59-7.03-16.99 0-4.412-3.544-8-8-8h-192c-4.42 0-8-3.58-8-8v-32c0-4.42 3.58-8 8-8h320c4.42 0 8 3.58 8 8v16c0 4.412 3.544 8 8 8h16c4.42 0 8 3.581 8 8z" fill="#edebfd"/><path d="m376.003 248.414v23.59c0-4.42-3.58-8-8-8h-8.01c-.2-4.41-3.68-7.97-7.92-8-4.616 0-8.07 3.656-8.07 8h-23.93c4.37-.03 7.93-3.81 7.93-8.41v-7.59c0-13.224 10.658-24 24.02-24 13.168-.001 23.98 10.96 23.98 24.41z" fill="#e58d72"/><path d="m408.003 312.003v64c0 4.42-3.58 8-8 8h-8v-57.37c-12.399 4.415-26.203-2.072-30.64-14.63z" fill="#e58d72"/><path d="m408.003 304.003v8h-46.64c-1.813-5.097-1.36-4.303-1.36-47.59 0-.14 0-.27-.01-.41h8.01c4.42 0 8 3.58 8 8v16c0 4.412 3.544 8 8 8h16c4.42 0 8 3.581 8 8z" fill="#d2d2fc"/><path d="m296.003 264.003v-32c0-4.41-3.59-8-8-8h-240c-4.42 0-8-3.58-8-8v-16c0-4.42 3.58-8 8-8h240c13.23 0 24 10.77 24 24v40c0 4.402 3.535 8 8.02 8z" fill="#e58d72"/><path d="m344.003 264.003c0 7.594.339 11.036-1.48 16-7.824 21.561-37.738 21.005-45.16 0-1.688-4.746-1.36-7.941-1.36-16z" fill="#d2d2fc"/><path d="m472.003 168.003v208c0 4.42-3.58 8-8 8h-64c-4.42 0-8-3.58-8-8v-65.37c-15.35 5.465-32-5.823-32-22.63v-39.59c0-7.512-8.607-11.123-13.67-6.06-1.5 1.49-2.33 3.51-2.33 5.65v7.59c0 13.405-10.757 24.41-24 24.41-13.421-.02-24-10.845-24-24v-40c0-4.41-3.59-8-8-8h-240c-4.42 0-8-3.58-8-8v-32c0-4.42 3.58-8 8-8h416c4.42 0 8 3.581 8 8z" fill="#aa7569"/><path d="m464.003 160.003h-40c4.42 0 8 3.58 8 8v208c0 4.42-3.58 8-8 8h40c4.42 0 8-3.58 8-8v-208c0-4.419-3.58-8-8-8z" fill="#9a6758"/><path d="m511.763 377.943-6.91 27.64c-5.97 23.91-26.7 40.92-51.05 42.33-4.014 12.009-8.706 26.108-8.74 26.21-4.37 13.09-16.57 21.88-30.36 21.88h-317.4c-13.79 0-25.99-8.79-30.36-21.88-.531-1.596-4.78-14.363-8.74-26.21-24.35-1.41-45.08-18.42-51.05-42.33l-6.91-27.64c-1.262-5.03 2.543-9.94 7.76-9.94h496c5.228 0 9.02 4.92 7.76 9.94z" fill="#edebfd"/><path d="m504.003 368.003h-39c5.227 0 9.02 4.92 7.76 9.94l-6.91 27.64c-5.97 23.91-26.7 40.92-51.05 42.33l-8.74 26.21c-4.37 13.09-16.57 21.88-30.36 21.88h39c13.79 0 25.99-8.79 30.36-21.88l8.74-26.21c24.35-1.41 45.08-18.42 51.05-42.33l6.91-27.64c1.263-5.03-2.542-9.94-7.76-9.94z" fill="#d2d2fc"/><path d="m136.003 456.003c0 4.42-3.58 8-8 8h-64.43l-5.34-16h69.77c4.42 0 8 3.581 8 8z" fill="#d2d2fc"/><path d="m453.773 448.003-5.34 16h-256.43c-4.42 0-8-3.58-8-8s3.58-8 8-8z" fill="#d2d2fc"/></g></svg>