<svg id="Layer_1" enable-background="new 0 0 513.06 513.06" height="512" viewBox="0 0 513.06 513.06" width="512" xmlns="http://www.w3.org/2000/svg"><g><path d="m252.909 291.265c.11 2.26-.73 4.46-2.33 6.06l-38.13 38.13c-3.413 3.391-9.027 3.05-11.98-.76l-22.58-22.58c-3.8-2.946-4.174-8.566-.76-11.98l38.24-38.24c1.61-1.61 3.83-2.46 6.11-2.33 5.527.316 5.023 3.553 17.02 15.52 10.944 10.975 14.149 10.818 14.41 16.18z" fill="#ebb19c"/><path d="m167.219 380.615c-15.481 15.323 5.537-5.478-126.27 124.96-9.29 9.29-24.499 9.361-33.91-.03-9.39-9.37-9.383-24.578.01-33.95 31.639-31.971 104.637-105.738 124.92-126.23 3.393-3.414 9.035-3.108 12.02.73l22.5 22.51c3.813 2.944 4.165 8.596.73 12.01z" fill="#ebb19c"/><path d="m267.339 392.325c0 .1.504-.494-43.18 43.18-10.623 10.623-28.284 8.999-36.7-3.3-21.88-31.97-17.71-63.35-17.52-64.67.24-1.71 1.04-3.3 2.26-4.53l22.63-22.63c1.23-1.22 2.81-2.02 4.53-2.26 1.32-.19 32.7-4.37 64.67 17.52 12.341 8.439 13.887 26.113 3.31 36.69z" fill="#e48c9b"/><path d="m274.269 373.075c-.66-7.09-4.39-13.44-10.24-17.44-1.698-1.163-3.394-2.237-5.085-3.257 4.063 8.929 2.342 19.72-4.885 26.947 0 .1.504-.494-43.18 43.18-7.08 7.08-17.523 8.876-26.346 5.154.925 1.512 1.887 3.028 2.926 4.546 8.464 12.368 26.125 13.874 36.7 3.3l43.18-43.17c0-.353 8.104-6.733 6.93-19.26z" fill="#cc5b6f"/><path d="m174.469 313.225c-.24 1.72-1.04 3.3-2.26 4.53l-22.63 22.63c-1.23 1.22-2.82 2.02-4.53 2.26-16.925 2.218-42.696-2.485-64.67-17.52-12.316-8.428-13.91-26.102-3.29-36.7l43.16-43.18c10.624-10.602 28.282-9.001 36.7 3.31 21.89 31.97 17.71 63.35 17.52 64.67z" fill="#e48c9b"/><path d="m249.979 285.475c-22.58-18.516-21.369-25.502-28.5-25.91-2.28-.13-4.5.72-6.11 2.33l-14.45 14.45c5.89 8.121 13.422 16.702 22.042 24.598l-22.512 22.512c-2.817 2.798-7.35 3.187-10.612.608l10.632 10.632c2.958 3.815 8.564 4.153 11.98.76l38.13-38.13c3.299-3.299 3.116-8.814-.6-11.85z" fill="#e58d72"/><path d="m513.059 167.985c0 93.115-75.516 167.46-167.5 167.46-95.978 0-172.152-80.46-167.19-176.18 4.501-87.084 76.267-158.74 167.23-158.74 92.541 0 167.46 74.898 167.46 167.46z" fill="#edebfd"/><path d="m513.059 167.985c0 100.68-88.042 178.432-187.99 166.22 82.43-10.08 146.99-80.12 146.99-166.22 0-85.62-64.11-156.14-146.98-166.22 100.369-12.27 187.98 65.919 187.98 166.22z" fill="#d2d2fc"/><g fill="#e48c9b"><path d="m421.449 30.415c-7.166 7.177-7.874 7.872-9.2 9.25-34.484 35.543-55.55 81.682-60.23 129.65-.597 5.904-7.179 9.19-12.33 5.92-.884-.629-.85-.528-3.99-3.81-38.28-40.08-56.17-98.06-41.02-158.92.7-2.79 2.84-4.99 5.6-5.76 36.328-10.156 73.814-7.468 105.83 5.06 1.594.632 12.58 5.166 13.22 5.79 4.88 2.4 6 8.94 2.12 12.82z"/><path d="m513.029 171.255c-.491 26.079-6.958 50.704-18.11 72.62-2.46 4.84-8.96 5.87-12.79 2.02-7.438-7.449-12.154-12.367-20.54-19.42-58.292-49.109-116.549-48.302-120.98-50.72-4.933-2.234-6.095-9.134-2.21-12.89 41.246-41.246 102.254-59.554 163.49-43.2 2.61.69 4.68 2.65 5.53 5.19.636 1.773 3.406 13.724 4.55 23.89.1 0 1.3 11.239 1.06 22.51z"/><path d="m393.509 324.265c-.7 2.85-2.91 5.08-5.75 5.81-37.592 9.783-79.56 6.566-117.3-12.38-4.84-2.42-5.95-8.94-2.06-12.81 19.25-19.21 34.43-37.38 47.86-65.74 10.16-21.44 16.69-44.2 19.44-67.72.362-3.202.392-3.632.4-3.69.644-6.704 8.848-9.627 13.62-4.87 40.793 40.802 58.94 100.35 43.79 161.4z"/><path d="m349.719 174.185c-39.516 39.496-98.219 58.99-159.62 44.24-2.85-.67-5.11-2.84-5.89-5.66-10.88-39.33-7.1-81.15 10.62-117.75 2.395-4.939 8.957-6.063 12.86-2.16 19.254 19.29 37.442 34.463 65.75 47.87 22.56 10.69 46.58 17.36 71.41 19.84 6.701.675 9.627 8.841 4.87 13.62z"/></g><path d="m206.147 382.319c-2.047 0-4.095-.781-5.657-2.343l-16.971-16.971c-3.125-3.125-3.125-8.189 0-11.314 3.124-3.123 8.189-3.123 11.313 0l16.971 16.971c5.055 5.055 1.408 13.657-5.656 13.657z" fill="#cc5b6f"/><path d="m155.236 331.407c-2.047 0-4.095-.781-5.657-2.343l-16.971-16.97c-3.124-3.124-3.125-8.189 0-11.313 3.125-3.125 8.19-3.124 11.314-.001l16.971 16.97c5.054 5.055 1.405 13.657-5.657 13.657z" fill="#cc5b6f"/><path d="m166.489 368.605-22.5-22.51c-2.991-3.845-8.633-4.138-12.02-.73l-11.7 11.82c.5 2.31 1.51 4.55 3.06 6.52.919 1.178.064.245 18.239 18.419l-112.619 111.451c-6.957 6.957-17.583 9.021-26.843 4.83 6.869 15.294 27.024 18.989 38.843 7.17 89.63-88.7-100.068 99.061 126.27-124.96 3.43-3.409 3.088-9.062-.73-12.01z" fill="#e58d72"/><path d="m213.159 324.955c-.859-1.146.408.207-23.98-24.17-6.284-6.279-16.41-6.229-22.63-.01l-33.94 33.94c-5.73 5.73-6.27 14.82-1.28 21.18.922 1.183-.434-.254 23.9 24.08 6.182 6.182 16.32 6.32 22.64 0l33.94-33.94c5.69-5.69 6.26-14.73 1.35-21.08zm-12.67 9.76c-.06-.06-.11-.13-.16-.2.06.08.11.12.17.2z" fill="#e48c9b"/><path d="m213.159 324.955c-.806-1.074-.922-1.123-8.032-8.229 5.177 6.818 4.109 15.693-1.318 21.119l-33.94 33.94c-6.325 6.325-16.568 6.265-22.744.089l8.104 8.101c6.182 6.182 16.32 6.32 22.64 0l33.94-33.94c5.69-5.69 6.26-14.73 1.35-21.08z" fill="#cc5b6f"/><path d="m325.069 334.205c26.22-3.21 50.64-12.48 71.74-26.42-.83 5.47-1.93 10.96-3.3 16.48-.7 2.85-2.91 5.08-5.75 5.81-20.993 5.463-41.933 6.584-62.69 4.13z" fill="#cc5b6f"/><path d="m421.449 30.415c-7.166 7.177-7.874 7.872-9.2 9.25-24.18-20.3-54.18-33.89-87.16-37.9.106-.027 2.79-.314 2.94-.33 32.383-3.398 64.751 2.865 91.28 16.15.01 0 .02.01.02.01 4.88 2.4 6 8.94 2.12 12.82z" fill="#cc5b6f"/><path d="m494.919 243.875c-2.46 4.84-8.96 5.87-12.79 2.02-7.438-7.449-12.154-12.367-20.54-19.42 13.187-35.413 14.176-75.609 1.52-112.66 12.76.46 25.75 2.37 38.78 5.85 2.59.685 4.805 2.653 5.65 5.61.083.248.155.616.25.95 10.443 41.771 4.959 82.614-12.87 117.65z" fill="#cc5b6f"/></g></svg>