<svg id="Layer_1" enable-background="new 0 0 512 512" height="512" viewBox="0 0 512 512" width="512" xmlns="http://www.w3.org/2000/svg"><g><path d="m128 8v48c0 4.42-3.58 8-8 8h-80c-4.42 0-8-3.58-8-8v-48c0-4.42 3.58-8 8-8h80c4.42 0 8 3.58 8 8z" fill="#edebfd"/><path d="m120 0h-24c4.42 0 8 3.58 8 8v48c0 4.42-3.58 8-8 8h24c4.42 0 8-3.58 8-8v-48c0-4.42-3.58-8-8-8z" fill="#d2d2fc"/><path d="m147.91 124.34-56.57 56.57c-3.127 3.126-8.197 3.113-11.31 0l-28.28-28.28c-18.72-18.72-18.72-49.17 0-67.88 18.71-18.72 49.16-18.72 67.88 0l28.28 28.28c3.13 3.12 3.13 8.19 0 11.31z" fill="#595965"/><path d="m147.91 113.03-28.28-28.28c-20.851-20.852-55.817-18.23-73.134 6.246 18.721-13.248 44.875-11.505 61.634 5.254l28.28 28.28c3.13 3.12 3.13 8.19 0 11.31l11.5-11.5c3.13-3.12 3.13-8.19 0-11.31z" fill="#44454e"/><path d="m181.85 135.66-79.19 79.19c-3.127 3.127-8.184 3.136-11.32 0l-11.31-11.31c-9.344-9.344-9.412-24.528 0-33.94l56.57-56.57c9.345-9.344 24.528-9.411 33.94 0l11.31 11.31c3.13 3.13 3.13 8.19 0 11.32z" fill="#edebfd"/><path d="m181.85 124.34-11.31-11.31c-6.746-6.746-16.514-8.65-24.97-5.667 6.474 2.283 8.369 5.066 20.28 16.977 3.13 3.13 3.13 8.19 0 11.32l-76.85 76.85 2.34 2.34c3.127 3.127 8.184 3.136 11.32 0l79.19-79.19c3.13-3.13 3.13-8.19 0-11.32z" fill="#d2d2fc"/><path d="m80 121c-4.418 0-8-3.582-8-8v-80c0-4.418 3.582-8 8-8s8 3.582 8 8v80c0 4.418-3.582 8-8 8z" fill="#d2d2fc"/><path d="m480 8v48c0 4.42-3.58 8-8 8h-80c-4.42 0-8-3.58-8-8v-48c0-4.42 3.58-8 8-8h80c4.42 0 8 3.58 8 8z" fill="#edebfd"/><path d="m472 0h-24c4.42 0 8 3.58 8 8v48c0 4.42-3.58 8-8 8h24c4.42 0 8-3.58 8-8v-48c0-4.42-3.58-8-8-8z" fill="#d2d2fc"/><path d="m460.25 152.63-28.28 28.28c-3.114 3.113-8.183 3.126-11.31 0l-56.57-56.57c-3.13-3.12-3.13-8.19 0-11.31l28.28-28.28c18.72-18.72 49.17-18.72 67.88 0 18.72 18.71 18.72 49.16 0 67.88z" fill="#595965"/><path d="m460.25 84.75c-11.649-11.656-27.85-16.051-42.936-13.192 37.45 7.098 52.289 53.72 24.936 81.072l-24.935 24.935c3.122 3.122 4.939 5.685 8.995 5.685 2.05 0 4.1-.78 5.66-2.34l28.28-28.28c18.72-18.72 18.72-49.17 0-67.88z" fill="#44454e"/><path d="m431.97 203.54-11.31 11.31c-3.127 3.127-8.184 3.136-11.32 0l-79.19-79.19c-3.13-3.13-3.13-8.19 0-11.32l11.31-11.31c9.345-9.344 24.528-9.411 33.94 0l56.57 56.57c9.345 9.344 9.412 24.528 0 33.94z" fill="#edebfd"/><path d="m419.9 157.55c8.949 9.411 8.802 24.258-.43 33.49l-11.31 11.31c-3.112 3.112-8.151 3.148-11.31.01l12.49 12.49c3.127 3.127 8.184 3.136 11.32 0l11.31-11.31c9.346-9.346 9.41-24.53 0-33.94-12.12-12.12-13.324-13.497-12.07-12.05z" fill="#d2d2fc"/><path d="m432 121c-4.418 0-8-3.582-8-8v-80c0-4.418 3.582-8 8-8s8 3.582 8 8v80c0 4.418-3.582 8-8 8z" fill="#d2d2fc"/><path d="m512 448v56c0 4.42-3.58 8-8 8h-496c-4.42 0-8-3.58-8-8v-56c0-4.42 3.58-8 8-8h496c4.42 0 8 3.58 8 8z" fill="#ebb19c"/><path d="m504 440h-40c4.42 0 8 3.58 8 8v56c0 4.42-3.58 8-8 8h40c4.42 0 8-3.58 8-8v-56c0-4.42-3.58-8-8-8z" fill="#e58d72"/><g fill="#f4e1a1"><path d="m208.007 424.002c-2.833 0-5.578-1.509-7.03-4.171l-96-176c-2.116-3.879-.687-8.738 3.192-10.854 3.879-2.114 8.738-.686 10.854 3.192l96 176c2.923 5.359-1.008 11.833-7.016 11.833z"/><path d="m471.994 368c-1.695 0-3.403-.536-4.854-1.646l-272-208c-3.51-2.684-4.179-7.704-1.496-11.214 2.683-3.511 7.704-4.181 11.214-1.495l272 208c6.051 4.626 2.777 14.355-4.864 14.355z"/><path d="m303.993 424.002c-6.008 0-9.938-6.474-7.016-11.833l96-176c2.115-3.878 6.974-5.307 10.854-3.192 3.878 2.116 5.308 6.976 3.192 10.854l-96 176c-1.452 2.662-4.197 4.171-7.03 4.171z"/><path d="m40.006 368c-7.644 0-10.911-9.732-4.865-14.354l272-208c3.509-2.686 8.529-2.016 11.214 1.495 2.684 3.51 2.014 8.53-1.496 11.214l-272 208c-1.45 1.109-3.158 1.645-4.853 1.645z"/></g><path d="m504 16h-496c-4.418 0-8-3.582-8-8s3.582-8 8-8h496c4.418 0 8 3.582 8 8s-3.582 8-8 8z" fill="#595965"/></g></svg>