<svg id="Layer_1" enable-background="new 0 0 512 512" height="512" viewBox="0 0 512 512" width="512" xmlns="http://www.w3.org/2000/svg"><g><path d="m512 96v320c0 17.64-14.36 32-32 32h-448c-17.64 0-32-14.36-32-32v-320c0-17.64 14.36-32 32-32h448c17.64 0 32 14.36 32 32z" fill="#595965"/><path d="m480 64h-40c17.64 0 32 14.36 32 32v320c0 17.64-14.36 32-32 32h40c17.64 0 32-14.36 32-32v-320c0-17.64-14.36-32-32-32z" fill="#44454e"/><circle cx="192" cy="256" fill="#edebfd" r="152"/><path d="m180 104.473c78.222 6.139 140 71.756 140 151.527s-61.778 145.388-140 151.527c88.697 6.955 164-63.352 164-151.527 0-88.229-75.357-158.478-164-151.527z" fill="#d2d2fc"/><circle cx="416" cy="152" fill="#edebfd" r="40"/><path d="m408 112.805c18.238 3.715 32 19.875 32 39.195s-13.762 35.48-32 39.195c24.861 5.066 48-14.026 48-39.195 0-25.167-23.136-44.261-48-39.195z" fill="#d2d2fc"/><circle cx="192" cy="256" fill="#aa7569" r="40"/><path d="m184 216.805c18.238 3.715 32 19.875 32 39.195s-13.762 35.48-32 39.195c24.861 5.066 48-14.026 48-39.195 0-25.167-23.136-44.261-48-39.195z" fill="#9a6758"/><path d="m288 264c-4.418 0-8-3.582-8-8 0-48.523-39.477-88-88-88-4.418 0-8-3.582-8-8s3.582-8 8-8c57.346 0 104 46.654 104 104 0 4.418-3.582 8-8 8z" fill="#d2d2fc"/><path d="m88 256c0-4.418 3.582-8 8-8s8 3.582 8 8c0 51.04 43.633 91.936 95.345 87.699 4.391-.369 8.267 2.914 8.628 7.317.362 4.403-2.914 8.267-7.317 8.628-60.601 4.997-112.656-42.878-112.656-103.644z" fill="#d2d2fc"/><path d="m417.94 144.239c-4.283-1.071-8.63 1.534-9.701 5.82l-27.518 110.069c-2.074 8.295-8.469 14.907-16.69 17.256l-80.926 23.122c-2.88-2.783-6.792-4.506-11.105-4.506-8.822 0-16 7.178-16 16s7.178 16 16 16c7.469 0 13.742-5.152 15.495-12.084 12.7-3.621 36.373-10.415 80.932-23.146 13.702-3.915 24.361-14.935 27.816-28.76l27.518-110.069c1.072-4.287-1.534-8.63-5.821-9.702z" fill="#aa7569"/><path d="m416 408c-4.418 0-8-3.582-8-8v-120c0-4.418 3.582-8 8-8s8 3.582 8 8v120c0 4.418-3.582 8-8 8z" fill="#edebfd"/><path d="m432 320h-32c-4.418 0-8-3.582-8-8s3.582-8 8-8h32c4.418 0 8 3.582 8 8s-3.582 8-8 8z" fill="#aa7569"/><g fill="#edebfd"><circle cx="472" cy="104" r="8"/><circle cx="472" cy="408" r="8"/><circle cx="40" cy="104" r="8"/><circle cx="40" cy="408" r="8"/></g></g></svg>