<svg id="Layer_1" enable-background="new 0 0 512.027 512.027" height="512" viewBox="0 0 512.027 512.027" width="512" xmlns="http://www.w3.org/2000/svg"><g><path d="m307.944 408.001h-103.25c-5.061 0-8.847-4.652-7.84-9.58l6.44-32c.75-3.73 4.03-6.42 7.84-6.42h90.17c3.79 0 7.06 2.66 7.83 6.38l6.64 32c1.016 4.877-2.687 9.62-7.83 9.62z" fill="#edebfd"/><path d="m231.854 305.581c-7.02 34.897-27.995 139.077-37.01 183.86-2.459 13.149-13.97 22.56-27.19 22.56-17.337 0-30.327-15.736-27.21-32.7.312-1.401 20.927-96.207 38.59-177.28.65-2.98 2.9-5.25 5.71-6.02 2.225-.614 2.817 0 9.27 0h30c5.06 0 8.846 4.652 7.84 9.58z" fill="#edebfd"/><path d="m307.944 408.001h-22.51l-9.96-48h25.83c3.79 0 7.06 2.66 7.83 6.38l6.64 32c1.016 4.877-2.687 9.62-7.83 9.62z" fill="#d2d2fc"/><path d="m351.524 432.881c-10.606-2.532-22.168.349-30.38 8.75-4.438 4.554-12.244 2.332-13.55-3.96-25.194-121.347-20.778-100.067-27.41-132.04-1.025-4.935 2.717-9.63 7.83-9.63 32.622 0 32.47.095 36.77-.28 3.976-.32 7.569 2.267 8.48 6.18 7.857 34.12 2.713 11.77 27.94 121.42 1.337 5.823-3.956 10.965-9.68 9.56z" fill="#edebfd"/><path d="m361.204 423.321c-29.804-129.519-27.934-121.565-28.233-122.38-1.234-3.383-4.595-5.516-8.187-5.22-4.295.375-4.206.28-36.77.28-5.122 0-8.853 4.703-7.83 9.63l4.64 22.37h37.446l21.934 95.32c.797 3.47-.783 7.222-4.254 8.943 3.912-.491 7.768-.292 11.574.617 5.735 1.408 11.014-3.751 9.68-9.56z" fill="#d2d2fc"/><circle cx="344.014" cy="464.001" fill="#aa7569" r="48"/><path d="m331.979 417.514c21.246 5.452 36.035 24.458 36.035 46.487 0 22.328-15.319 41.14-36 46.481 30.406 7.852 60-15.237 60-46.481 0-31.804-29.935-54.215-60.035-46.487z" fill="#9a6758"/><path d="m464.014 240.001c0 17.654-14.312 32-32 32h-39.16c-6.385 0-10.205-7.139-6.65-12.45 8.68-12.96 13.45-28.08 13.78-43.72.09-4.35 3.65-7.83 8-7.83h24.03c17.64 0 32 14.36 32 32z" fill="#aa7569"/><path d="m432.014 208.001h-24c17.64 0 32 14.36 32 32 0 17.654-14.312 32-32 32h24c8.53 0 16.57-3.33 22.63-9.38 20.012-20.046 5.879-54.62-22.63-54.62z" fill="#9a6758"/><path d="m119.174 272.001h-39.16c-28.532 0-42.632-34.585-22.63-54.62 6.06-6.05 14.1-9.38 22.63-9.38h24.03c4.35 0 7.91 3.48 8 7.83.33 15.64 5.1 30.76 13.78 43.72 3.544 5.296-.245 12.45-6.65 12.45z" fill="#aa7569"/><path d="m352.014 144.001v16c0 4.42-3.58 8-8 8h-176c-4.42 0-8-3.58-8-8v-16c0-13.23 10.77-24 24-24h144c13.23 0 24 10.77 24 24z" fill="#e48c9b"/><path d="m224.014 296.001c-13.858 0-23.053 0-39.27 0-2.81.77-5.06 3.04-5.71 6.02l-5.66 25.98h37.967l-32.497 161.44c-1.842 9.849-8.946 18.263-19.235 21.361 15.756 4.779 32.209-5.179 35.235-21.361 34.699-172.38-30.283 150.663 37.01-183.86 1.008-4.939-2.79-9.58-7.84-9.58z" fill="#d2d2fc"/><path d="m328.014 120.001h-40c13.23 0 24 10.77 24 24v16c0 4.42-3.58 8-8 8h40c4.42 0 8-3.58 8-8v-16c0-13.23-10.77-24-24-24z" fill="#cc5b6f"/><path d="m416.014 192.001c0 24.262.011 22.72-.03 24.25-1.058 49.273-39.112 91.267-89.87 95.41-5.513.488 2.356.34-132.1.34-55.202 0-98-44.849-98-98v-22c0-4.42 3.58-8 8-8h304c4.42 0 8 3.58 8 8z" fill="#595965"/><path d="m408.014 184.001h-39c4.42 0 8 3.58 8 8 0 24.262.011 22.72-.03 24.25-1.058 49.273-39.112 91.267-89.87 95.41-6.998.619-4.879.34 30.9.34 54.726 0 98-44.38 98-98v-22c0-4.42-3.58-8-8-8z" fill="#44454e"/><path d="m432.014 176.001c0 13.272-10.713 24-24 24h-304c-13.23 0-24-10.77-24-24 0-13.247 10.689-24 24-24h304c13.23 0 24 10.77 24 24z" fill="#aa7569"/><path d="m408.014 152.001h-40c13.23 0 24 10.77 24 24 0 13.272-10.713 24-24 24h40c6.4 0 12.43-2.49 16.99-7.03 14.959-15.024 4.433-40.97-16.99-40.97z" fill="#9a6758"/><g fill="#d2d2fc"><path d="m253.014 80.001c-7.065 0-10.711-8.602-5.657-13.657l6.449-6.449c4.779-4.777 3.473-12.816-2.571-15.839-16.985-8.493-18.475-32.168-2.658-42.711 3.679-2.452 8.645-1.457 11.094 2.219 2.451 3.677 1.457 8.644-2.219 11.094-5.579 3.719-5.072 12.082.939 15.088 15.826 7.913 19.236 28.955 6.729 41.464l-6.449 6.449c-1.563 1.561-3.61 2.342-5.657 2.342z"/><path d="m204.014 103.001c-7.065 0-10.711-8.602-5.657-13.657l6.449-6.449c4.779-4.777 3.473-12.816-2.571-15.839-16.985-8.493-18.475-32.168-2.658-42.711 3.678-2.451 8.645-1.457 11.094 2.219 2.451 3.677 1.457 8.644-2.219 11.094-5.579 3.719-5.072 12.082.939 15.088 15.826 7.913 19.236 28.955 6.729 41.464l-6.449 6.449c-1.563 1.561-3.61 2.342-5.657 2.342z"/><path d="m309.014 103.001c-7.065 0-10.711-8.602-5.657-13.657l6.449-6.449c4.779-4.777 3.473-12.816-2.571-15.839-16.985-8.493-18.475-32.168-2.658-42.711 3.679-2.451 8.645-1.457 11.094 2.219 2.451 3.677 1.457 8.644-2.219 11.094-5.579 3.719-5.072 12.082.939 15.088 15.826 7.913 19.236 28.955 6.729 41.464l-6.449 6.449c-1.563 1.561-3.61 2.342-5.657 2.342z"/></g></g></svg>