<svg id="Layer_1" enable-background="new 0 0 512.077 512.077" height="512" viewBox="0 0 512.077 512.077" width="512" xmlns="http://www.w3.org/2000/svg"><g><path d="m256.037 496.077c-6.987 0-10.666-8.449-5.765-13.546 37.206-38.683 133.766-149.022 133.766-194.454 0-4.418 3.582-8 8-8s8 3.582 8 8c0 53.454-102.248 168.174-138.234 205.546-1.571 1.633-3.667 2.454-5.767 2.454z" fill="#edebfd"/><path d="m412.728 296.077h-41.38c-17.282 0-25.692-20.939-13.66-32.97l21.04-21.04c4.182-4.183 6.86-1.064 20.19-2.311 2.38-.229 4.73.62 6.42 2.301l21.05 21.05c12.099 12.096 3.484 32.97-13.66 32.97z" fill="#79cb9c"/><path d="m430.578 269.386c-2.056-4.979-3.11-5.2-25.24-27.329-4.195-4.171-6.813-1.054-20.22-2.301-1.805-.167-3.59.289-5.082 1.257.464.301.903.647 1.302 1.044 22.807 22.807 23.282 22.587 25.24 27.329 5.248 12.77-4.177 26.69-17.85 26.69h24c13.65.001 23.109-13.895 17.85-26.69z" fill="#63ac7d"/><path d="m496.038 136.077c0 66.895-48.799 125.317-112.38 119.62-29.848-2.746-56.011-20.24-72.96-44.83-2.23-3.21-1.79-7.57 1.02-10.29 38.231-36.966 42.719-102.503 12.5-146.2-2.23-3.22-1.8-7.58 1.02-10.3 18.061-17.467 41.591-28 66.8-28 57.35 0 104 53.83 104 120z" fill="#79cb9c"/><path d="m496.038 136.077c0 71.918-56.024 131.763-122.32 118.14 49.86-10.239 85.32-61.12 85.32-118.14 0-58.88-36.94-107.99-85.48-118.09 63.099-13.209 122.48 42.772 122.48 118.09z" fill="#63ac7d"/><path d="m322.368 225.157c-4.21-4.36-8.12-9.14-11.67-14.29-2.23-3.21-1.79-7.57 1.02-10.29 38.231-36.966 42.719-102.503 12.5-146.2-2.23-3.22-1.8-7.58 1.02-10.3 5.16-4.99 10.7-9.36 16.54-13.07 52.619 55.026 43.395 153.908-19.41 194.15z" fill="#63ac7d"/><path d="m256.038 512.077c-4.418 0-8-3.582-8-8v-232c0-4.418 3.582-8 8-8s8 3.582 8 8v232c0 4.418-3.581 8-8 8z" fill="#edebfd"/><path d="m256.038 496.077c-2.039 0-4.078-.774-5.639-2.325-.342-.341-34.626-34.479-68.45-74.165-47.043-55.197-69.911-92.981-69.911-115.51 0-4.418 3.582-8 8-8s8 3.582 8 8c0 39.153 105.22 150.112 133.639 178.325 5.09 5.059 1.425 13.675-5.639 13.675z" fill="#edebfd"/><path d="m276.728 280.077h-41.38c-17.282 0-25.692-20.939-13.66-32.97l21.05-21.05c4.207-4.208 6.925-1.035 20.18-2.301 2.38-.229 4.73.62 6.42 2.301l21.05 21.05c12.099 12.096 3.484 32.97-13.66 32.97z" fill="#e48c9b"/><path d="m294.578 253.386c-2.056-4.979-3.11-5.2-25.24-27.329-4.222-4.199-6.953-1.038-20.18-2.301-1.82-.183-3.62.275-5.124 1.255.465.302.904.648 1.304 1.046 22.807 22.807 23.282 22.587 25.24 27.329 5.248 12.77-4.177 26.69-17.85 26.69h24c13.65.001 23.109-13.895 17.85-26.69z" fill="#cc5b6f"/><path d="m140.728 312.077h-41.38c-17.282 0-25.692-20.939-13.66-32.97l21.05-21.05c4.2-4.201 6.951-1.037 20.18-2.301 2.38-.229 4.73.61 6.42 2.301l21.05 21.05c12.099 12.096 3.484 32.97-13.66 32.97z" fill="#f1cc76"/><path d="m158.578 285.386c-2.055-4.979-3.11-5.2-25.24-27.329-4.2-4.201-6.951-1.037-20.18-2.301-1.819-.176-3.617.278-5.12 1.254.464.301.901.648 1.3 1.047 22.807 22.807 23.282 22.587 25.24 27.329 5.248 12.77-4.177 26.69-17.85 26.69h24c13.65.001 23.109-13.895 17.85-26.69z" fill="#ebb15d"/><path d="m208.198 215.797c-36.382 66.942-118.272 75.908-164.78 17.46-17.66-22.18-27.38-51.01-27.38-81.18 0-66.17 46.65-120 104-120 20.95 0 41.802 7.137 59.92 21.9 2.99 2.43 3.82 6.64 1.98 10.02-25.42 46.76-15.18 109.69 24.28 141.771 2.99 2.429 3.82 6.649 1.98 10.029z" fill="#f1cc76"/><path d="m225.038 152.077c0 73.203-57.759 132.816-124.33 117.72 23.79-5.51 44.73-20.569 59.66-41.569-42.837-47.722-52.077-119.81-25.19-178.021-10.37-7.5-22.03-12.97-34.64-15.84 66.261-15.059 124.5 43.815 124.5 117.71z" fill="#ebb15d"/><path d="m360.038 120.077c0 69.504-51.591 125.559-112.4 119.6-55.671-5.052-95.6-59.248-95.6-119.6 0-64.65 44.951-120 104-120 59.391 0 104 55.879 104 120z" fill="#e48c9b"/><path d="m360.038 120.077c0 73.203-57.759 132.816-124.33 117.72 47.31-10.96 83.33-59.649 83.33-117.72 0-56.5-34.64-106.6-83.5-117.71 66.26-15.059 124.5 43.815 124.5 117.71z" fill="#cc5b6f"/></g></svg>