<svg id="Layer_1" enable-background="new 0 0 512 512" height="512" viewBox="0 0 512 512" width="512" xmlns="http://www.w3.org/2000/svg"><g><path d="m472 408c0 57.35-46.65 104-104 104h-224c-57.465 0-104-46.494-104-104 0-4.42 3.58-8 8-8h18.04c2.62 0 5.07 1.28 6.56 3.42 16.177 23.194 48.727 27.442 70.25 9.34 2.98-2.49 7.32-2.49 10.3 0 17.82 14.987 43.899 14.972 61.7 0 2.98-2.49 7.32-2.49 10.3 0 17.82 14.987 43.898 14.972 61.7 0 2.98-2.49 7.32-2.49 10.3 0 17.82 14.987 43.898 14.972 61.7 0 2.98-2.49 7.32-2.49 10.3 0 21.556 18.129 54.097 13.82 70.25-9.34 1.49-2.14 3.94-3.42 6.56-3.42h18.04c4.42 0 8 3.58 8 8z" fill="#ebb19c"/><path d="m472 408c0 57.35-46.65 104-104 104h-48c54.03 0 98.57-41.41 103.53-94.17 6.11-3.41 11.57-8.24 15.87-14.41 1.49-2.14 3.94-3.42 6.56-3.42h18.04c4.42 0 8 3.58 8 8z" fill="#e58d72"/><path d="m357.66 82.34c5.022 5.022 1.456 13.66-5.66 13.66h-96c-4.42 0-8-3.58-8-8v-64c0-4.42 3.58-8 8-8h96c7.102 0 10.692 8.628 5.66 13.66l-26.35 26.34z" fill="#e48c9b"/><path d="m331.31 56 26.35-26.34c5.022-5.022 1.456-13.66-5.66-13.66h-33c7.102 0 10.692 8.628 5.66 13.66l-26.35 26.34 26.35 26.34c5.022 5.022 1.456 13.66-5.66 13.66h33c7.102 0 10.692-8.628 5.66-13.66z" fill="#cc5b6f"/><path d="m256 136c-4.418 0-8-3.582-8-8v-120c0-4.418 3.582-8 8-8s8 3.582 8 8v120c0 4.418-3.582 8-8 8z" fill="#aa7569"/><path d="m463.5 400c-5.848 47.289-60.059 71.737-99.5 44.91-21.694 14.756-50.227 14.809-72 0-21.694 14.756-50.227 14.809-72 0-21.694 14.756-50.227 14.809-72 0-39.42 26.812-93.65 2.393-99.5-44.91h17.54c2.62 0 5.07 1.28 6.56 3.42 16.177 23.194 48.727 27.442 70.25 9.34 2.98-2.49 7.32-2.49 10.3 0 17.82 14.987 43.899 14.972 61.7 0 2.98-2.49 7.32-2.49 10.3 0 17.82 14.987 43.898 14.972 61.7 0 2.98-2.49 7.32-2.49 10.3 0 17.82 14.987 43.898 14.972 61.7 0 2.98-2.49 7.32-2.49 10.3 0 21.556 18.129 54.097 13.82 70.25-9.34 1.49-2.14 3.94-3.42 6.56-3.42z" fill="#e58d72"/><path d="m464 352v24c0 50.884-57.306 81.949-100 52.91-21.694 14.756-50.227 14.809-72 0-21.694 14.756-50.227 14.809-72 0-21.694 14.756-50.227 14.809-72 0-42.668 29.022-100-1.987-100-52.91v-24c0-4.42 3.58-8 8-8h400c4.42 0 8 3.58 8 8z" fill="#79cb9c"/><path d="m464 352v24c0 46.3-47.45 76.19-88.16 59.32 22.76-9.27 40.16-31.29 40.16-59.32v-24c0-4.42-3.58-8-8-8h48c4.42 0 8 3.58 8 8z" fill="#63ac7d"/><path d="m373.66 357.66-40 40c-3.129 3.108-8.168 3.132-11.32 0l-34.34-34.34 5.66-5.66c5.025-5.047 1.44-13.66-5.66-13.66h80c7.094 0 10.692 8.606 5.66 13.66z" fill="#f1cc76"/><path d="m293.66 357.66c-8.732 8.732-30.829 30.829-40 40-3.129 3.108-8.168 3.132-11.32 0l-40-40c-5.026-5.048-1.441-13.66 5.66-13.66h80c7.094 0 10.692 8.606 5.66 13.66z" fill="#f1cc76"/><path d="m220.68 376h-140.68c-13.08 0-24.7-6.3-32-16.03v-7.97c0-4.42 3.58-8 8-8h152c-7.093 0-10.692 8.606-5.66 13.66z" fill="#63ac7d"/><path d="m373.66 357.66-18.34 18.34h-54.64l-12.68-12.68-12.68 12.68h-54.64l-18.34-18.34c-5.026-5.048-1.441-13.66 5.66-13.66h160c7.094 0 10.692 8.606 5.66 13.66z" fill="#ebb15d"/><path d="m300.68 376h-25.36l12.68-12.68z" fill="#63ac7d"/><path d="m464 352v16.01c-6.89 5.19-15.22 7.99-24 7.99h-84.68l18.34-18.34c5.025-5.047 1.44-13.66-5.66-13.66h88c4.42 0 8 3.58 8 8z" fill="#63ac7d"/><path d="m80 280h352c22.091 0 40 17.909 40 40 0 22.091-17.909 40-40 40h-352c-22.091 0-40-17.909-40-40 0-22.091 17.909-40 40-40z" fill="#aa7569"/><path d="m466.65 300c-1.76 3.03-3.91 5.82-6.37 8.28-7.24 7.24-17.24 11.72-28.28 11.72h-352c-14.8 0-27.73-8.04-34.65-20 1.76-3.03 3.91-5.82 6.37-8.28 7.24-7.24 17.24-11.72 28.28-11.72h352c14.8 0 27.73 8.04 34.65 20z" fill="#9a6758"/><path d="m472 320c0 11.04-4.48 21.04-11.72 28.28s-17.24 11.72-28.28 11.72h-48c11.04 0 21.04-4.48 28.28-11.72s11.72-17.24 11.72-28.28c0-22.09-17.91-40-40-40h48c22.09 0 40 17.91 40 40z" fill="#9a6758"/><path d="m472 288c0 4.42-3.58 8-8 8h-416c-4.42 0-8-3.58-8-8 0-92.674 74.962-168 168-168h96c92.64 0 168 75.36 168 168z" fill="#ebb19c"/><path d="m472 288c0 4.42-3.58 8-8 8h-48c4.42 0 8-3.58 8-8 0-92.64-75.36-168-168-168h48c92.64 0 168 75.36 168 168z" fill="#e58d72"/><g fill="#aa7569"><circle cx="176" cy="176" r="8"/><circle cx="256" cy="176" r="8"/><circle cx="336" cy="176" r="8"/><circle cx="216" cy="224" r="8"/><circle cx="136" cy="224" r="8"/><circle cx="296" cy="224" r="8"/><circle cx="376" cy="224" r="8"/></g></g></svg>