<svg id="Layer_1" enable-background="new 0 0 512.027 512.027" height="512" viewBox="0 0 512.027 512.027" width="512" xmlns="http://www.w3.org/2000/svg"><g><path d="m416.017 440.024c0 66.265-172.945 93.735-270.59 52.63-85.089-35.841-59.647-108.261 71.58-122.55 3.583-.38 7.044 1.669 8.35 5.12 6.77 17.87 11.01 36.59 12.59 55.63.414 4.795 2.098 8.959 5.83 12.39 11.075 10.213 29.032 3.033 30.26-11.8 1.62-19.406 5.746-37.922 12.71-56.229 1.3-3.4 4.72-5.49 8.35-5.101 8.18.891 16.06 2.04 23.6 3.43 59.1 10.88 97.32 36.38 97.32 66.48z" fill="#79cb9c"/><path d="m416.017 440.024c0 48.95-94.36 76.73-183.03 71.34 73.3-4.38 139.03-30.479 139.03-71.34 0-28.05-33.2-52.11-85.55-64.06 1.604-4.452 5.131-6.226 8.63-5.851 8.18.891 16.06 2.04 23.6 3.43 59.1 10.881 97.32 36.381 97.32 66.481z" fill="#63ac7d"/><path d="m318.697 373.543c-7.818 18.098-12.955 38.094-14.67 58.641-1.586 19.007-17.096 31.84-34.01 31.84-17.752 0-32.491-13.595-33.96-31.26-1.851-21.455-6.802-41.955-16.02-62.4 2.39.66 4.4 2.43 5.32 4.86 7.022 18.535 10.955 36.677 12.64 56.21.786 9.392 8.635 16.59 18.02 16.59 8.705 0 17.174-6.446 18.07-17.18 1.58-18.98 5.84-37.7 12.66-55.63 1.3-3.4 4.72-5.49 8.35-5.101 8.18.891 16.06 2.041 23.6 3.43z" fill="#63ac7d"/><path d="m361.617 298.694c-40.626 32.858-67.16 80.416-71.64 134.09-2.32 28.017-36.156 41.435-57.04 22.24-6.255-5.759-10.114-13.385-10.93-22.84-4.308-51.814-29.913-100.019-71.14-133.12-78.029-62.711-84.197-178.648-14.19-249.28 64.202-64.816 169.855-67.626 237.29-.86 72.171 71.477 64.799 187.346-12.35 249.77z" fill="#e48c9b"/><path d="m361.617 298.694c-40.63 32.86-67.16 80.42-71.64 134.09-2.376 28.702-37.585 41.719-57.97 21.351 5.48-5.33 9.25-12.63 9.97-21.351 4.48-53.67 31.01-101.229 71.64-134.09 77.15-62.42 84.52-178.29 12.35-249.77-26.95-26.68-59.99-42.25-94.05-47.2 49.78-7.19 102.49 8.03 142.05 47.2 72.17 71.48 64.8 187.35-12.35 249.77z" fill="#cc5b6f"/><path d="m338.357 149.524-35.37 34.47 8.35 48.681c.848 4.892-2.95 9.35-7.88 9.35-2.785 0-.074.996-47.44-23.9l-43.72 22.98c-5.833 3.079-12.732-1.902-11.6-8.43l8.35-48.681-35.37-34.47c-4.759-4.65-2.101-12.695 4.43-13.65l48.88-7.1 21.86-44.29c2.913-5.935 11.427-5.936 14.34 0l21.86 44.29 48.88 7.1c6.531.955 9.189 9 4.43 13.65z" fill="#f1cc76"/><path d="m338.357 149.524-35.37 34.47 8.35 48.681c.85 4.89-2.95 9.35-7.88 9.35-1.73 0-1.33.39-12.29-5.36l-8.18-47.67 35.37-34.47c4.76-4.65 2.1-12.69-4.43-13.65l-48.88-7.1-20.26-41.06 4.06-8.23c2.91-5.94 11.43-5.94 14.34 0l21.86 44.29 48.88 7.1c6.53.958 9.19 8.998 4.43 13.649z" fill="#ebb15d"/></g></svg>