<svg id="Layer_1" enable-background="new 0 0 512 512" height="512" viewBox="0 0 512 512" width="512" xmlns="http://www.w3.org/2000/svg"><g><path d="m472 168v336c0 4.42-3.58 8-8 8h-416c-4.42 0-8-3.58-8-8v-336c0-4.42 3.58-8 8-8h416c4.42 0 8 3.58 8 8z" fill="#ebb19c"/><path d="m464 160h-416c-4.42 0-8 3.58-8 8v40c0-4.42 3.58-8 8-8h416c4.42 0 8 3.58 8 8v-40c0-4.42-3.58-8-8-8z" fill="#e58d72"/><path d="m464 160h-40c4.42 0 8 3.58 8 8v336c0 4.42-3.58 8-8 8h40c4.42 0 8-3.58 8-8v-336c0-4.42-3.58-8-8-8z" fill="#e58d72"/><path d="m312 168v336c0 4.42-3.58 8-8 8h-96c-4.42 0-8-3.58-8-8v-336c0-4.42 3.58-8 8-8h96c4.42 0 8 3.58 8 8z" fill="#696ead"/><path d="m304 160h-40c4.42 0 8 3.58 8 8v336c0 4.42-3.58 8-8 8h40c4.42 0 8-3.58 8-8v-336c0-4.42-3.58-8-8-8z" fill="#505795"/><path d="m304 160h-96c-4.42 0-8 3.58-8 8v32h112v-32c0-4.42-3.58-8-8-8z" fill="#505795"/><path d="m496 104v64c0 4.42-3.58 8-8 8h-464c-4.42 0-8-3.58-8-8v-64c0-13.23 10.77-24 24-24h432c13.23 0 24 10.77 24 24z" fill="#ebb19c"/><path d="m472 80h-40c13.23 0 24 10.77 24 24v64c0 4.42-3.58 8-8 8h40c4.42 0 8-3.58 8-8v-64c0-13.23-10.77-24-24-24z" fill="#e58d72"/><path d="m392 40v96c0 22.114-17.879 40-40 40-27.94 0-63.11-33.7-81.59-53.79-2.45-2.67-2.8-6.64-.87-9.7 1.61-2.54 2.46-5.48 2.46-8.51v-32c0-3.03-.85-5.97-2.46-8.51-1.93-3.06-1.58-7.03.87-9.7 18.48-20.09 53.65-53.79 81.59-53.79 22.114 0 40 17.879 40 40z" fill="#696ead"/><path d="m392 40v96c0 22.11-17.88 40-40 40-5.89 0-12.1-1.5-18.41-4.05 13.28-6.51 22.41-20.15 22.41-35.95v-96c0-15.81-9.14-29.45-22.42-35.95 6.31-2.55 12.53-4.05 18.42-4.05 22.11 0 40 17.88 40 40z" fill="#505795"/><path d="m242.46 112.51c1.93 3.06 1.58 7.03-.87 9.7-18.48 20.09-53.65 53.79-81.59 53.79-22.114 0-40-17.879-40-40v-96c0-22.114 17.879-40 40-40 27.94 0 63.11 33.7 81.59 53.79 2.45 2.67 2.8 6.64.87 9.7-1.61 2.54-2.46 5.48-2.46 8.51v32c0 3.03.85 5.97 2.46 8.51z" fill="#696ead"/><g fill="#505795"><path d="m322.97 71.43-34.97 13.99c0-13.634.078-14.705-.22-17.15l29.25-11.7c4.1-1.64 8.76.36 10.4 4.46s-.36 8.76-4.46 10.4z"/><path d="m327.43 114.97c-1.66 4.157-6.376 6.079-10.4 4.46l-29.25-11.7c.318-2.608.22-3.734.22-17.15l34.97 13.99c4.1 1.64 6.1 6.3 4.46 10.4z"/><path d="m224.22 107.73c-31.459 12.583-30.019 12.27-32.22 12.27-3.17 0-6.18-1.9-7.43-5.03-1.64-4.1.36-8.76 4.46-10.4l34.97-13.99c0 13.634-.078 14.705.22 17.15z"/><path d="m224.22 68.27c-.318 2.608-.22 3.734-.22 17.15l-34.97-13.99c-4.1-1.64-6.1-6.3-4.46-10.4s6.3-6.1 10.4-4.46z"/></g><path d="m288 72c0 34.564.084 33.234-.22 35.73-1.815 15.643-15.06 28.27-31.78 28.27-16.658 0-29.96-12.582-31.78-28.27-.302-2.475-.22-1.068-.22-35.73 0-28.21 34.351-42.866 54.62-22.63 5.889 5.854 9.38 14.009 9.38 22.63z" fill="#696ead"/><path d="m287.78 107.73c-2.463 21.167-24.474 33.798-43.78 25.95 10.74-4.33 18.43-14.31 19.78-25.95.3-2.5.22-1.17.22-35.73 0-13.299-8.219-24.852-19.82-29.68 21.807-8.739 43.82 7.835 43.82 29.68 0 34.56.08 33.23-.22 35.73z" fill="#505795"/></g></svg>