<svg id="Layer_1" enable-background="new 0 0 512.001 512.001" height="512" viewBox="0 0 512.001 512.001" width="512" xmlns="http://www.w3.org/2000/svg"><g><path d="m332.67 75.39-69.44 146.59c-2.872 6.091-11.584 6.1-14.46 0l-69.44-146.59c-2.671-5.622 1.853-12.028 8.07-11.38 43.368 4.582 90.981 4.883 137.2 0 6.215-.648 10.741 5.757 8.07 11.38z" fill="#79cb9c"/><path d="m332.67 75.39-69.44 146.59c-2.87 6.09-11.58 6.1-14.46 0l-10.35-21.85 63.55-134.15c7.57-.52 15.12-1.18 22.63-1.97 6.22-.651 10.74 5.759 8.07 11.38z" fill="#63ac7d"/><path d="m503.99 17.65c0 2.427 1.829-11.246-24.07 170.04-.935 6.524-8.903 9.177-13.58 4.53l-118.24-118.241c-4.621-4.643-2.017-12.572 4.45-13.57 60.53-9.28 111-27.15 138.46-49.02 5.239-4.17 12.98-.415 12.98 6.261z" fill="#e48c9b"/><path d="m479.92 187.689c-.94 6.52-8.9 9.18-13.58 4.53l-16.69-16.69c15-104.93 19.98-139.48 21.6-151.19 7.49-4.12 14.11-8.45 19.76-12.95 5.24-4.17 12.98-.42 12.98 6.26 0 2.43 1.83-11.249-24.07 170.04z" fill="#cc5b6f"/><path d="m163.9 73.981-118.24 118.24c-4.681 4.65-12.648 1.973-13.58-4.53-25.806-180.632-24.07-167.782-24.07-170.039 0-6.671 7.736-10.434 12.98-6.26 27.46 21.87 77.93 39.74 138.46 49.02 6.469.998 9.07 8.928 4.45 13.569z" fill="#e48c9b"/><path d="m163.9 73.981-118.24 118.24c-4.68 4.65-12.65 1.97-13.58-4.53-1.27-8.89-2.47-17.31-3.61-25.28l106.36-106.35c7.99 1.6 16.21 3.06 24.62 4.35 6.47 1 9.07 8.93 4.45 13.57z" fill="#cc5b6f"/><path d="m193.68 224.006c-12.93 2.78-23.08 12.93-25.86 25.86-1.795 8.383-13.841 8.402-15.64 0-2.78-12.93-12.93-23.08-25.86-25.86-8.383-1.795-8.402-13.841 0-15.64 12.93-2.78 23.08-12.93 25.86-25.86 1.795-8.383 13.841-8.402 15.64 0 2.78 12.93 12.93 23.08 25.86 25.86 8.383 1.794 8.402 13.841 0 15.64z" fill="#f1cc76"/><path d="m193.68 208.366c-12.93-2.78-23.08-12.93-25.86-25.86-1.795-8.383-13.841-8.402-15.64 0-.052.24-.123.471-.18.709 2.995 12.588 12.99 22.422 25.68 25.151 8.383 1.795 8.402 13.841 0 15.64-12.69 2.728-22.685 12.563-25.68 25.151.057.238.128.469.18.709 1.795 8.383 13.841 8.402 15.64 0 2.78-12.93 12.93-23.08 25.86-25.86 8.383-1.795 8.402-13.841 0-15.64z" fill="#ebb15d"/><path d="m393.68 469.006c-12.93 2.78-23.08 12.93-25.86 25.86-1.795 8.383-13.841 8.402-15.64 0-2.78-12.93-12.93-23.08-25.86-25.86-8.383-1.795-8.402-13.841 0-15.64 12.93-2.78 23.08-12.93 25.86-25.86 1.795-8.383 13.841-8.402 15.64 0 2.78 12.93 12.93 23.08 25.86 25.86 8.383 1.794 8.402 13.841 0 15.64z" fill="#f1cc76"/><path d="m393.68 453.366c-12.93-2.78-23.08-12.93-25.86-25.86-1.795-8.383-13.841-8.402-15.64 0-.052.24-.123.471-.18.709 2.995 12.588 12.99 22.422 25.68 25.151 8.383 1.795 8.402 13.841 0 15.64-12.69 2.728-22.685 12.563-25.68 25.151.057.238.128.469.18.709 1.795 8.383 13.841 8.402 15.64 0 2.78-12.93 12.93-23.08 25.86-25.86 8.383-1.795 8.402-13.842 0-15.64z" fill="#ebb15d"/><path d="m256 81.186c-111.188 0-213.118-27.056-253.64-67.325-3.134-3.115-3.149-8.18-.035-11.314s8.179-3.15 11.314-.035c37.133 36.901 136.796 62.674 242.361 62.674s205.229-25.773 242.36-62.675c3.134-3.114 8.198-3.099 11.314.035 3.114 3.134 3.099 8.199-.035 11.314-40.521 40.27-142.45 67.326-253.639 67.326z" fill="#edebfd"/><path d="m332.67 360.653-69.44 146.59c-2.872 6.091-11.584 6.1-14.46 0l-69.44-146.59c-2.671-5.622 1.853-12.028 8.07-11.38 43.368 4.582 90.981 4.883 137.2 0 6.215-.647 10.741 5.757 8.07 11.38z" fill="#e48c9b"/><path d="m332.67 360.653-69.44 146.59c-2.87 6.09-11.58 6.1-14.46 0l-10.35-21.85 63.55-134.15c7.57-.52 15.12-1.18 22.63-1.97 6.22-.65 10.74 5.76 8.07 11.38z" fill="#cc5b6f"/><path d="m503.99 303.441c0 2.427 1.829-11.246-24.07 170.04-.935 6.524-8.903 9.177-13.58 4.53l-118.24-118.24c-4.621-4.643-2.017-12.572 4.45-13.57 60.53-9.28 111-27.15 138.46-49.02 5.239-4.17 12.98-.416 12.98 6.26z" fill="#79cb9c"/><path d="m479.92 473.481c-.94 6.52-8.9 9.18-13.58 4.53l-17.68-17.68c13.03-91.24 18.82-131.54 21.38-149.54 7.99-4.32 15.02-8.87 20.97-13.61 5.24-4.17 12.98-.42 12.98 6.26 0 2.43 1.83-11.25-24.07 170.04z" fill="#63ac7d"/><path d="m163.9 359.773-118.24 118.24c-4.681 4.65-12.648 1.973-13.58-4.53-25.806-180.633-24.07-167.783-24.07-170.04 0-6.671 7.736-10.434 12.98-6.26 27.46 21.87 77.93 39.74 138.46 49.02 6.469.998 9.07 8.928 4.45 13.57z" fill="#79cb9c"/><path d="m163.9 359.773-118.24 118.24c-4.68 4.65-12.65 1.97-13.58-4.53-1.55-10.86-3-21.03-4.36-30.53l102.13-102.13c9.54 2.02 19.43 3.82 29.6 5.38 6.47 1 9.07 8.93 4.45 13.57z" fill="#63ac7d"/><path d="m256 366.186c-111.188 0-213.118-27.056-253.64-67.325-3.134-3.115-3.149-8.18-.035-11.314s8.179-3.15 11.314-.035c37.132 36.902 136.795 62.675 242.36 62.675s205.229-25.773 242.36-62.675c3.134-3.114 8.198-3.099 11.314.035 3.114 3.134 3.099 8.199-.035 11.314-40.52 40.269-142.449 67.325-253.638 67.325z" fill="#edebfd"/></g></svg>