<svg id="Layer_1" enable-background="new 0 0 512.025 512.025" height="512" viewBox="0 0 512.025 512.025" width="512" xmlns="http://www.w3.org/2000/svg"><g><path d="m256.013 64c-4.418 0-8-3.582-8-8v-48c0-4.418 3.582-8 8-8s8 3.582 8 8v48c0 4.418-3.582 8-8 8z" fill="#595965"/><path d="m310.013 77v37.8c0 5.025-4.653 9.004-9.92 7.77-30.04-7.42-62.059-7.435-92.16 0-5.07 1.23-9.92-2.593-9.92-7.77v-37.8c0-13.23 10.77-24 24-24h64c13.23 0 24 10.77 24 24z" fill="#edebfd"/><path d="m286.013 53h-38c13.23 0 24 10.77 24 24v37.8c0 1.806-.614 3.534-1.705 4.927 11.298 1.914 29.491 3.073 31.705 3.073 4.403 0 8-3.571 8-8v-37.8c0-13.23-10.77-24-24-24z" fill="#d2d2fc"/><path d="m464.013 304c0 116.884-97.156 212.32-216 207.85-133.257-5.06-228.524-133.902-192.45-263.85 25.21-90.925 111.237-155.86 208.45-151.84 109.476 4.089 200 93.991 200 207.84z" fill="#edebfd"/><path d="m464.013 304c0 122.586-106.267 219.638-229.49 206.9 105-10.8 186.49-99.86 186.49-206.9 0-109.23-83.32-196.41-186.77-206.92 122.276-12.654 229.77 82.813 229.77 206.92z" fill="#d2d2fc"/><path d="m463.863 312c.2-5.321.2-10.669 0-16h-95.98c-.51-16.17-2.56-32.26-6.07-48h94.65c-1.5-5.41-3.23-10.75-5.17-16h-93.6c-5.122-17.553-11.593-33.054-19.52-48h87.77c-4.211-5.937-8.221-10.98-12.54-16h-84.49c-17.02-27.05-39.17-50.97-64.9-69.99v-1.85c-5.156-.213-10.825-.214-16 0v1.85c-25.73 19.02-47.88 42.94-64.9 69.99h-84.49c-4.323 5.025-8.325 10.057-12.54 16h87.77c-7.927 14.946-14.398 30.447-19.52 48h-93.6c-1.94 5.25-3.67 10.59-5.17 16h94.65c-3.51 15.74-5.56 31.83-6.07 48h-95.98c-.2 5.321-.2 10.669 0 16h95.98c.51 16.17 2.56 32.26 6.07 48h-94.54c1.52 5.43 3.25 10.76 5.19 16h93.47c5.132 17.589 11.609 33.083 19.52 48h-87.64c3.92 5.54 8.11 10.88 12.55 16h84.35c17.02 27.05 39.17 50.97 64.9 69.99v1.86c5.257.198 10.616.202 16 0v-1.86c25.73-19.02 47.88-42.94 64.9-69.99h84.35c4.44-5.12 8.63-10.46 12.55-16h-87.64c7.911-14.917 14.388-30.412 19.52-48h93.47c1.94-5.24 3.67-10.57 5.19-16h-94.54c3.51-15.74 5.56-31.83 6.07-48zm-215.85 177.71c-17.6-14.44-32.9-31.23-45.59-49.71h45.59zm0-65.71h-55.7c-8.75-15.17-15.84-31.27-21.13-48h76.83zm0-64h-81.31c-3.78-15.63-5.99-31.71-6.54-48h87.85zm0-64h-87.85c.55-16.29 2.76-32.37 6.54-48h81.31zm0-64h-76.83c5.29-16.73 12.38-32.83 21.13-48h55.7zm0-64h-45.59c12.69-18.48 27.99-35.27 45.59-49.71zm16-49.71c17.6 14.44 32.9 31.23 45.59 49.71h-45.59zm0 65.71h55.7c8.75 15.17 15.84 31.27 21.13 48h-76.83zm0 305.71v-49.71h45.59c-12.69 18.48-27.99 35.27-45.59 49.71zm55.7-65.71h-55.7v-48h76.83c-5.29 16.73-12.38 32.83-21.13 48zm25.61-64h-81.31v-48h87.85c-.55 16.29-2.76 32.37-6.54 48zm-81.31-64v-48h81.31c3.78 15.63 5.99 31.71 6.54 48z" fill="#d2d2fc"/><path d="m505.693 143.82c-12.93 2.78-23.08 12.93-25.86 25.86-1.795 8.383-13.841 8.402-15.64 0-2.78-12.93-12.93-23.08-25.86-25.86-8.383-1.795-8.402-13.841 0-15.64 12.93-2.78 23.08-12.93 25.86-25.86 1.795-8.383 13.841-8.402 15.64 0 2.78 12.93 12.93 23.08 25.86 25.86 8.382 1.795 8.402 13.841 0 15.64z" fill="#f1cc76"/><path d="m505.693 128.18c-12.93-2.78-23.08-12.93-25.86-25.86-1.795-8.383-13.841-8.402-15.64 0-.052.24-.123.471-.18.709 2.995 12.588 12.99 22.422 25.68 25.151 8.383 1.795 8.402 13.841 0 15.64-12.69 2.728-22.685 12.563-25.68 25.151.057.238.128.469.18.709 1.795 8.383 13.841 8.402 15.64 0 2.78-12.93 12.93-23.08 25.86-25.86 8.382-1.795 8.402-13.841 0-15.64z" fill="#ebb15d"/><path d="m73.693 479.82c-12.93 2.78-23.08 12.93-25.86 25.86-1.795 8.383-13.841 8.402-15.64 0-2.78-12.93-12.93-23.08-25.86-25.86-8.383-1.795-8.402-13.841 0-15.64 12.93-2.78 23.08-12.93 25.86-25.86 1.795-8.383 13.841-8.402 15.64 0 2.78 12.93 12.93 23.08 25.86 25.86 8.382 1.795 8.402 13.841 0 15.64z" fill="#f1cc76"/><path d="m73.693 464.18c-12.93-2.78-23.08-12.93-25.86-25.86-1.795-8.383-13.841-8.402-15.64 0-.052.24-.123.471-.18.709 2.995 12.588 12.99 22.422 25.68 25.151 8.383 1.795 8.402 13.841 0 15.64-12.69 2.728-22.685 12.563-25.68 25.151.057.238.128.469.18.709 1.795 8.383 13.841 8.402 15.64 0 2.78-12.93 12.93-23.08 25.86-25.86 8.382-1.795 8.402-13.841 0-15.64z" fill="#ebb15d"/></g></svg>