<svg id="Layer_1" enable-background="new 0 0 512 512" height="512" viewBox="0 0 512 512" width="512" xmlns="http://www.w3.org/2000/svg"><g><circle cx="256" cy="256" fill="#f1cc76" r="256"/><path d="m512 256c0 146.886-123.302 264.503-272 255.51 134.03-8.25 240-119.39 240-255.51s-105.98-247.26-240-255.51c150.03-9.076 272 109.952 272 255.51z" fill="#ebb15d"/><path d="m464 256c0 112.499-89.5 203.651-200 207.85-62.455 2.347-120.234-23.064-160.56-66.61-73.895-79.771-73.962-202.637 0-282.48 40.038-43.235 97.686-68.973 160.56-66.61 111.371 4.232 200 96.215 200 207.85z" fill="#edebfd"/><path d="m464 256c0 122.937-106.382 218.815-227.98 207.04 104.9-10.08 187.98-98.65 187.98-207.04 0-107.58-82.3-196.91-187.95-207.04 122.841-11.789 227.95 85.258 227.95 207.04z" fill="#d2d2fc"/><path d="m280 136v102.12c0 6.885-8.18 10.57-13.34 5.96-6.056-5.436-15.257-5.442-21.32 0-5.148 4.6-13.34.939-13.34-5.96v-102.12c0-13.23 10.77-24 24-24 13.237 0 24 10.68 24 24z" fill="#595965"/><path d="m280 136v102.12c0 6.89-8.18 10.57-13.34 5.96-3.09-2.77-6.99-4.13-10.88-4.07.325-1.393.22 5.248.22-104.01 0-8.91-4.82-16.65-11.98-20.78 15.605-9.088 35.98 1.995 35.98 20.78z" fill="#44454e"/><path d="m244.08 266.66c4.6 5.148.939 13.34-5.96 13.34h-70.12c-13.23 0-24-10.77-24-24 0-13.237 10.68-24 24-24h70.12c6.903 0 10.557 8.195 5.96 13.34-5.436 6.056-5.443 15.257 0 21.32z" fill="#595965"/><path d="m241.691 263.144c-2.447 1.224 2.784.856-73.691.856-10.435 0-19.335-6.702-22.631-16.025-5.52 15.626 6.124 32.025 22.631 32.025h70.12c6.903 0 10.557-8.195 5.96-13.34-.959-1.069-1.757-2.254-2.389-3.516z" fill="#44454e"/><path d="m352 360c-2.048 0-4.095-.781-5.657-2.343l-79.03-79.03c-3.124-3.124-3.124-8.189 0-11.313 3.125-3.124 8.189-3.124 11.314 0l79.03 79.03c5.056 5.055 1.405 13.656-5.657 13.656z" fill="#e48c9b"/><g fill="#595965"><path d="m248 48.15v39.85c0 4.42 3.58 8 8 8s8-3.58 8-8v-39.85c-5.215-.196-10.574-.204-16 0z"/><path d="m463.85 248h-39.85c-4.42 0-8 3.58-8 8s3.58 8 8 8h39.85c.194-5.152.206-10.508 0-16z"/><path d="m256 416c-4.42 0-8 3.58-8 8v39.85c5.152.194 10.508.206 16 0v-39.85c0-4.42-3.58-8-8-8z"/><path d="m88 248h-39.85c-.194 5.152-.206 10.508 0 16h39.85c4.42 0 8-3.58 8-8s-3.58-8-8-8z"/><path d="m114.76 103.44c-3.92 3.63-7.69 7.4-11.32 11.32l28.11 28.1c3.12 3.12 8.165 3.145 11.31 0 3.13-3.12 3.13-8.19 0-11.31z"/><path d="m374.79 145.21c2.05 0 4.1-.79 5.66-2.35l28.11-28.1-11.32-11.32-28.1 28.11c-5.065 5.049-1.386 13.66 5.65 13.66z"/><path d="m369.14 369.14c-3.13 3.12-3.13 8.19 0 11.31l28.1 28.11c3.92-3.63 7.69-7.4 11.32-11.32l-28.11-28.1c-3.12-3.13-8.19-3.13-11.31 0z"/><path d="m131.55 369.14-28.11 28.1c3.63 3.92 7.4 7.69 11.32 11.32l28.1-28.11c3.13-3.12 3.13-8.19 0-11.31-3.12-3.13-8.19-3.13-11.31 0z"/></g><path d="m288 256c0 29.468-36.433 43.042-55.84 21.33-10.875-12.116-10.884-30.523 0-42.67 19.567-21.821 55.84-7.886 55.84 21.34z" fill="#f1cc76"/><path d="m277.34 232.16c-7.839-7.024-18.779-9.863-29.341-7.138 14.104 3.639 24.001 16.375 24.001 30.978 0 14.877-10.203 27.409-23.972 30.979 32.684 8.437 53.916-32.795 29.312-54.819z" fill="#ebb15d"/></g></svg>