<svg id="Layer_1" enable-background="new 0 0 512 512" height="512" viewBox="0 0 512 512" width="512" xmlns="http://www.w3.org/2000/svg"><g><path d="m416 56v400c0 30.88-25.12 56-56 56h-208c-30.88 0-56-25.12-56-56v-400c0-30.88 25.12-56 56-56h208c30.88 0 56 25.12 56 56z" fill="#696ead"/><path d="m360 0h-32c30.88 0 56 25.12 56 56v400c0 30.88-25.12 56-56 56h32c30.88 0 56-25.12 56-56v-400c0-30.88-25.12-56-56-56z" fill="#505795"/><path d="m384 56v400c0 13.23-10.77 24-24 24h-208c-13.23 0-24-10.77-24-24v-400c0-13.23 10.77-24 24-24h24c13.23 0 24 10.77 24 24 0 4.39 3.53 8 8 8h96c4.41 0 8-3.59 8-8 0-10.44 6.65-19.34 15.99-22.63 2.5-.89 5.2-1.37 8.01-1.37h24c13.23 0 24 10.77 24 24z" fill="#c8effd"/><path d="m384 56v400c0 13.23-10.77 24-24 24h-40c13.23 0 24-10.77 24-24v-400c0-10.43-6.7-19.33-16.01-22.63 2.5-.89 5.2-1.37 8.01-1.37h24c13.23 0 24 10.77 24 24z" fill="#a0e1fd"/><path d="m96 144h32v160h-32z" fill="#505795"/><path d="m221.66 157.66-27.32 27.31c-1.51 1.51-2.34 3.52-2.34 5.66v89.37c0 13.23-10.77 24-24 24h-40v-160h88c7.093 0 10.692 8.606 5.66 13.66z" fill="#a0e1fd"/><path d="m512 296v112c0 13.23-10.77 24-24 24h-128c-13.23 0-24-10.77-24-24v-89.37c0-2.14-.83-4.15-2.34-5.66l-27.32-27.31c-5.024-5.046-1.443-13.66 5.66-13.66h176c13.23 0 24 10.77 24 24z" fill="#e48c9b"/><path d="m488 272h-40c13.23 0 24 10.77 24 24v112c0 13.23-10.77 24-24 24h40c13.23 0 24-10.77 24-24v-112c0-13.23-10.77-24-24-24z" fill="#cc5b6f"/><g fill="#edebfd"><circle cx="384" cy="352" r="8"/><circle cx="424" cy="352" r="8"/><circle cx="464" cy="352" r="8"/></g><circle cx="296" cy="40" fill="#595965" r="8"/><path d="m264 48h-40c-4.418 0-8-3.582-8-8s3.582-8 8-8h40c4.418 0 8 3.582 8 8s-3.582 8-8 8z" fill="#595965"/><path d="m320 448h-128c-4.418 0-8-3.582-8-8s3.582-8 8-8h128c4.418 0 8 3.582 8 8s-3.582 8-8 8z" fill="#a0e1fd"/><path d="m205.66 141.66-27.32 27.31c-1.51 1.51-2.34 3.52-2.34 5.66v89.37c0 13.23-10.77 24-24 24h-128c-13.23 0-24-10.77-24-24v-112c0-13.23 10.77-24 24-24h176c7.093 0 10.692 8.606 5.66 13.66z" fill="#79cb9c"/><path d="m200 128h-40c7.093 0 10.692 8.606 5.66 13.66l-27.32 27.31c-1.51 1.51-2.34 3.52-2.34 5.66v89.37c0 13.23-10.77 24-24 24h40c13.23 0 24-10.77 24-24v-89.37c0-2.14.83-4.15 2.34-5.66l27.32-27.31c5.024-5.046 1.443-13.66-5.66-13.66z" fill="#63ac7d"/><path d="m136 199c0 7.86-2.88 15.42-8.12 21.29-.2.23-.44.5-34.22 34.31-3.12 3.12-8.203 3.117-11.32 0-33.78-33.81-34.02-34.08-34.24-34.33-5.22-5.85-8.1-13.41-8.1-21.27 0-24.754 26.91-39.892 48-27.71 21.099-12.187 48 2.964 48 27.71z" fill="#e48c9b"/><path d="m136 199c0 7.86-2.88 15.42-8.12 21.29-.2.23-.44.5-34.22 34.31-3.12 3.12-8.2 3.12-11.32 0-2.26-2.26-4.37-4.38-6.34-6.34 27.47-27.51 27.69-27.76 27.88-27.97 14.371-16.098 9.227-42.343-11.95-50.94 20.36-8.36 44.07 6.42 44.07 29.65z" fill="#cc5b6f"/></g></svg>