<svg id="Layer_1" enable-background="new 0 0 512.262 512.262" height="512" viewBox="0 0 512.262 512.262" width="512" xmlns="http://www.w3.org/2000/svg"><g><path d="m88.131 108.983v379.26c0 13.23-10.77 24-24 24-13.237 0-24-10.68-24-24v-408.32c0-7.421 9.26-10.84 14.09-5.19 8.94 10.49 19.2 19.8 30.49 27.69 2.14 1.5 3.42 3.95 3.42 6.56z" fill="#edebfd"/><path d="m84.711 102.423c-11.29-7.89-21.55-17.2-30.49-27.69-3.46-4.047-9.854-3.697-12.794.854-1.683 2.614-1.296 2.706-1.296 27.236 7.849 9.748 19.235 20.872 32 30.249v355.171c0 10.435-6.702 19.335-16.025 22.631 15.626 5.52 32.025-6.124 32.025-22.631 0-19.166 0-363.23 0-379.26 0-2.61-1.28-5.06-3.42-6.56z" fill="#d2d2fc"/><path d="m511.021 21.313-22.77 38.54c-47.319 80.071-148.159 110.766-232.12 70.31-73.805 35.544-161.722 16.384-214.09-45.05-12.7-14.877-16.476-22.63-40.8-63.8-4.305-7.274 4.267-15.431 11.33-10.73l5.1 3.4c52.46 34.98 119.81 34.31 171.57-1.7 20.419-14.184 45.385-15.879 66.89-6.13 21.498-9.745 46.462-8.06 66.89 6.13 51.76 36.01 119.11 36.68 171.57 1.7l5.1-3.4c7.064-4.702 15.635 3.458 11.33 10.73z" fill="#595965"/><g fill="#44454e"><path d="m275.021 12.283c-4.72-3.28-9.67-5.89-14.77-7.84 20.52-7.78 43.63-5.45 62.77 7.84 19.36 13.47 40.9 22 63.03 25.55-38.06 6.14-77.76-2.41-111.03-25.55z"/><path d="m511.021 21.313-22.77 38.54c-37.53 63.5-108.72 95.95-178.45 86.48 52.75-7.13 101.57-37.61 130.45-86.48l16.19-27.4c17.876-5.77 29.553-12.739 43.25-21.87 7.06-4.7 15.63 3.46 11.33 10.73z"/></g></g></svg>