<svg id="Layer_1" enable-background="new 0 0 512.05 512.05" height="512" viewBox="0 0 512.05 512.05" width="512" xmlns="http://www.w3.org/2000/svg"><g><path d="m289.094 134.881c.687 4.792-3.031 9.14-7.92 9.14h-50.28c-2.32 0-4.53-1.01-6.05-2.76-3.708-4.298-.81-6.52-.81-21.24 0-14.813-2.889-16.953.81-21.24 1.52-1.75 3.73-2.76 6.05-2.76h50.28c4.899 0 8.606 4.358 7.92 9.14-1.412 9.863-1.412 19.854 0 29.72z" fill="#595965"/><path d="m48.034 198.401v289.62c0 13.23-10.77 24-24 24-13.237 0-24-10.68-24-24v-368c0-2.85 1.49-5.36 3.74-6.76 5.16-3.315 12.26.354 12.26 6.76 0 27.38 10.55 53.22 29.71 72.78 1.47 1.5 2.29 3.51 2.29 5.6z" fill="#edebfd"/><path d="m47.95 489.943c.131-1.648.084 19.8.084-291.542 0-2.09-.82-4.1-2.29-5.6-32.526-33.205-29.17-71.512-29.95-74.697-1.871-7.774-13.165-8.253-15.445-.285-.447 1.563-.315-1.169-.315 42.302.597 1.432 1.232 2.848 1.894 4.252 3.258 18.164 10.701 35.504 22.106 50.659v272.989c0 8.87-4.84 16.64-12.02 20.78 15.314 8.892 34.556-1.479 35.936-18.858z" fill="#d2d2fc"/><path d="m240.034 120.021c0 35.24-15.34 67.891-41.05 90.38-46.937 41.029-119.264 39.964-164.67-6.4-22.1-22.57-34.28-52.39-34.28-83.98 0-66.17 53.83-120 120-120 66.457 0 120 53.903 120 120z" fill="#595965"/><circle cx="120.034" cy="120.021" fill="#c8effd" r="88"/><path d="m140.034 205.721c-55.054 12.929-108-29.154-108-85.7 0-56.55 52.951-98.628 108-85.7-38.92 9.07-68 44.06-68 85.7s29.08 76.63 68 85.7z" fill="#a0e1fd"/><path d="m512.034 120.021c0 66.17-53.83 120-120 120-29.06 0-57.1-10.52-78.95-29.62-54.703-47.849-54.744-132.875 0-180.76 21.85-19.1 49.89-29.62 78.95-29.62 66.17 0 120 53.83 120 120z" fill="#595965"/><path d="m512.034 120.021c0 72.389-64.014 128.631-136 118.93 58.64-7.84 104-58.19 104-118.93s-45.36-111.09-104-118.93c72.047-9.707 136 46.609 136 118.93z" fill="#44454e"/><circle cx="392.034" cy="120.021" fill="#c8effd" r="88"/><path d="m412.034 205.721c-55.054 12.929-108-29.154-108-85.7 0-56.55 52.951-98.628 108-85.7-38.92 9.07-68 44.06-68 85.7s29.08 76.63 68 85.7z" fill="#a0e1fd"/><path d="m240.034 120.021c0 72.389-64.014 128.631-136 118.93 58.64-7.84 104-58.19 104-118.93s-45.36-111.09-104-118.93c72.047-9.707 136 46.609 136 118.93z" fill="#44454e"/></g></svg>