<svg id="Layer_1" enable-background="new 0 0 512.046 512.046" height="512" viewBox="0 0 512.046 512.046" width="512" xmlns="http://www.w3.org/2000/svg"><g><path d="m480.023 113.216v334.83c0 4.42-3.58 8-8 8h-59.75c9.822 39.286 7.089 28.352 11.51 46.06 1.263 5.03-2.543 9.94-7.76 9.94h-128c-3.27 0-6.21-1.99-7.43-5.03l-24.57-61.43-24.57 61.43c-1.22 3.04-4.16 5.03-7.43 5.03h-128c-5.227 0-9.02-4.92-7.76-9.94 4.669-18.705 2.073-8.314 11.51-46.06h-59.75c-4.42 0-8-3.58-8-8v-334.83c0-28.23 16.81-53.56 42.84-64.51l114.06-48.03c8.026-3.397 14.945 6.822 8.76 13.03l-42.35 42.34 26.35 26.34c2.69 2.7 3.11 6.92 1 10.1l-28.89 43.33 102.23 138.74 102.23-138.74-28.89-43.33c-2.11-3.18-1.69-7.4 1-10.1l26.35-26.34-42.35-42.34c-6.174-6.196.723-16.431 8.76-13.03l114.07 48.03c26.02 10.95 42.83 36.28 42.83 64.51z" fill="#edebfd"/><path d="m437.193 48.706-114.07-48.03c-4.56-1.93-9.746.732-10.88 5.524l100.95 42.506c26.02 10.95 42.83 36.28 42.83 64.51v334.83c0 4.42-3.58 8-8 8h24c4.42 0 8-3.58 8-8v-334.83c0-28.23-16.81-53.56-42.83-64.51z" fill="#d2d2fc"/><path d="m110.029 456.048c-5.218 0-9.026-4.905-7.767-9.942l33.515-134.06-39.515-158.06c-1.071-4.287 1.535-8.63 5.821-9.702s8.63 1.534 9.702 5.821c42.667 170.667 40.715 161.021 40 163.881l-34 136c-.91 3.635-4.172 6.062-7.756 6.062z" fill="#d2d2fc"/><path d="m99.773 456.046-8 32h-51.75c-4.42 0-8-3.58-8-8v-32c0 4.42 3.58 8 8 8z" fill="#595965"/><path d="m79.773 456.046-8 32h20l8-32z" fill="#44454e"/><path d="m224.023 392.046h-64c-4.418 0-8-3.582-8-8s3.582-8 8-8h64c4.418 0 8 3.582 8 8s-3.582 8-8 8z" fill="#595965"/><path d="m402.017 456.048c-3.585 0-6.847-2.426-7.755-6.062l-34-136c-.708-2.824-3.164 8.777 40-163.881 1.071-4.286 5.416-6.889 9.701-5.821 4.286 1.072 6.893 5.415 5.82 9.702l-39.515 158.06 33.515 134.06c1.262 5.041-2.554 9.942-7.766 9.942z" fill="#d2d2fc"/><path d="m316.853 57.826-53.03 232c-1.882 8.254-13.715 8.267-15.6 0l-53.03-232c-1.131-4.963 2.614-9.78 7.8-9.78h106.06c5.156 0 8.936 4.792 7.8 9.78z" fill="#696ead"/><path d="m232.193 57.826c-1.131-4.963 2.614-9.78 7.8-9.78h-37c-5.193 0-8.929 4.823-7.8 9.78l53.03 232c1.882 8.254 13.715 8.267 15.6 0l10.7-46.811z" fill="#505795"/><g fill="#595965"><path d="m352.023 392.046h-64c-4.418 0-8-3.582-8-8s3.582-8 8-8h64c4.418 0 8 3.582 8 8s-3.582 8-8 8z"/><circle cx="72.023" cy="416.046" r="8"/><circle cx="72.023" cy="384.046" r="8"/><circle cx="440.023" cy="416.046" r="8"/><circle cx="440.023" cy="384.046" r="8"/></g><path d="m327.823 9.826-10.97 48c-.83 3.64-4.07 6.22-7.8 6.22h-106.06c-3.73 0-6.97-2.58-7.8-6.22l-10.97-48c-1.131-4.963 2.615-9.78 7.8-9.78h128c5.163 0 8.932 4.811 7.8 9.78z" fill="#9da0df"/><path d="m218.693.046h-26.67c-5.193 0-8.929 4.823-7.8 9.78l10.97 48c.83 3.64 4.07 6.22 7.8 6.22h30.622z" fill="#8286c6"/><path d="m249.583 292.796-112-152c-2-2.71-2.08-6.39-.22-9.19l28.37-42.54-27.37-27.36c-3.12-3.13-3.12-8.19 0-11.32l48-48c4.424-4.424 12.052-2.27 13.46 3.88l64 280c1.916 8.419-9.113 13.477-14.24 6.53z" fill="#595965"/><path d="m480.023 448.046v32c0 4.42-3.58 8-8 8h-51.75l-8-32h59.75c4.42 0 8-3.58 8-8z" fill="#595965"/><path d="m472.023 456.046h-16v24c0 4.42-3.58 8-8 8h24c4.42 0 8-3.58 8-8v-32c0 4.42-3.58 8-8 8z" fill="#44454e"/><path d="m374.683 131.606c1.86 2.8 1.78 6.48-.22 9.19l-112 152c-5.127 6.947-16.156 1.889-14.24-6.53l64-280c1.401-6.123 9.01-8.33 13.46-3.88l48 48c3.12 3.13 3.12 8.19 0 11.32l-27.37 27.36z" fill="#595965"/><path d="m346.313 89.066 27.37-27.36c3.12-3.13 3.12-8.19 0-11.32l-48-48c-4.445-4.445-12.057-2.25-13.46 3.88l-1.239 5.421 38.699 38.699c3.12 3.13 3.12 8.19 0 11.32l-27.37 27.36 28.37 42.54c1.86 2.8 1.78 6.48-.22 9.19l-100.015 135.734-2.225 9.736c-1.916 8.419 9.113 13.477 14.24 6.53l112-152c2-2.71 2.08-6.39.22-9.19z" fill="#44454e"/><circle cx="328.023" cy="136.046" fill="#edebfd" r="8"/><circle cx="184.023" cy="136.046" fill="#edebfd" r="8"/></g></svg>