<svg id="Layer_1" enable-background="new 0 0 512.02 512.02" height="512" viewBox="0 0 512.02 512.02" width="512" xmlns="http://www.w3.org/2000/svg"><g><g fill="#d2d2fc"><path d="m256.01 128.02c-4.418 0-8-3.582-8-8v-32c0-4.418 3.582-8 8-8s8 3.582 8 8v32c0 4.418-3.582 8-8 8z"/><path d="m360.01 272.02c-4.418 0-8-3.582-8-8v-32c0-4.418 3.582-8 8-8s8 3.582 8 8v32c0 4.418-3.582 8-8 8z"/><path d="m152.01 224.02c-4.418 0-8-3.582-8-8v-32c0-4.418 3.582-8 8-8s8 3.582 8 8v32c0 4.418-3.582 8-8 8z"/></g><path d="m336.01 120.02v144c0 4.42-3.58 8-8 8h-16v136c0 4.42-3.58 8-8 8h-96c-4.42 0-8-3.58-8-8v-184h-16c-4.42 0-8-3.58-8-8v-96c0-4.42 3.58-8 8-8h144c4.42 0 8 3.58 8 8z" fill="#edebfd"/><path d="m336.01 120.02v144c0 4.42-3.58 8-8 8h-16v136c0 4.42-3.58 8-8 8h-24c4.42 0 8-3.58 8-8v-136h16c4.413 0 8-3.582 8-8v-144c0-4.461-3.62-8-8-8 26.053 0 24.139-.016 24.62.03 4.009.223 7.38 3.726 7.38 7.97z" fill="#d2d2fc"/><path d="m312.01 274.69v80c0 3.16-1.86 6.03-4.75 7.31l-16.31 7.25c-24.7 10.98-53.77 23.9-79.69 35.41-5.3 2.35-11.25-1.53-11.25-7.31v-80c0-3.16 1.86-6.03 4.75-7.31 30.66-13.62 16.51-7.34 83.25-37 3.96-1.75 8.2-3.64 12.75-5.66 5.27-2.34 11.25 1.5 11.25 7.31z" fill="#f1cc76"/><path d="m312.01 274.69v80c0 3.16-1.86 6.03-4.75 7.31l-16.31 7.25-2.94 1.3v-97.51c3.96-1.75 8.2-3.64 12.75-5.66 5.27-2.34 11.25 1.5 11.25 7.31z" fill="#ebb15d"/><path d="m336.01 120.02v80c0 3.16-1.86 6.03-4.75 7.31-116.516 51.783-92.423 41.076-120 53.33-5.303 2.345-11.25-1.534-11.25-7.31v-29.33h-16c-4.42 0-8-3.58-8-8v-32c0-3.16 1.86-6.03 4.75-7.31 31.835-14.143 7.022-3.116 144-64 5.286-2.345 11.25 1.52 11.25 7.31z" fill="#f1cc76"/><path d="m296.01 56.02c0 22.06-17.94 40-40 40s-40-17.94-40-40c0-19.23 15.58-56 40-56s40 36.77 40 56z" fill="#e48c9b"/><path d="m248.01 1.396c19.767 6.809 32 37.588 32 54.623 0 19.321-13.762 35.48-32 39.195 24.861 5.066 48-14.026 48-39.195 0-23.412-20.596-64.061-48-54.623z" fill="#cc5b6f"/><path d="m336.01 120.02v80c0 3.16-1.86 6.03-4.75 7.31l-19.25 8.56c0-102.517.076-96.296-.15-97.45l12.9-5.73c5.257-2.325 11.25 1.5 11.25 7.31z" fill="#ebb15d"/><path d="m400.01 200.02c0 22.06-17.94 40-40 40s-40-17.94-40-40c0-19.23 15.58-56 40-56s40 36.77 40 56z" fill="#e48c9b"/><path d="m352.01 145.396c19.767 6.809 32 37.588 32 54.623 0 19.321-13.762 35.48-32 39.195 24.861 5.066 48-14.026 48-39.195 0-23.412-20.596-64.061-48-54.623z" fill="#cc5b6f"/><path d="m192.01 152.02c0 22.06-17.94 40-40 40s-40-17.94-40-40c0-19.23 15.58-56 40-56s40 36.77 40 56z" fill="#e48c9b"/><path d="m208.01 152.02c0 4.79-.85 9.39-2.4 13.65l-24.85 11.04c-2.89 1.28-4.75 4.15-4.75 7.31v-64c0-4.42 3.58-8 8-8h10c8.92 12.31 14 29.02 14 40z" fill="#d2d2fc"/><path d="m205.61 165.67c-4.7 12.92-15.88 22.75-29.6 25.55v-7.2c0-3.16 1.86-6.03 4.75-7.31z" fill="#ebb15d"/><path d="m144.01 97.396c19.767 6.809 32 37.588 32 54.623 0 19.321-13.762 35.48-32 39.195 24.861 5.066 48-14.026 48-39.195 0-23.412-20.596-64.061-48-54.623z" fill="#cc5b6f"/><path d="m424.01 264.02v144c0 4.42-3.58 8-8 8h-112c-4.42 0-8-3.58-8-8v-144c0-4.42 3.58-8 8-8h112c4.42 0 8 3.58 8 8z" fill="#edebfd"/><path d="m424.01 264.02v144c0 4.42-3.58 8-8 8h-24c4.42 0 8-3.58 8-8v-144c0-4.42-3.58-8-8-8h24c4.42 0 8 3.58 8 8z" fill="#d2d2fc"/><path d="m424.01 264.02v85.68l-116.03 65.27c-3.676 2.092-8.397.972-10.68-2.61-1.872-2.568-1.29-.808-1.29-84.34 0-2.87 1.54-5.52 4.03-6.95l115.64-65.05c5.075 0 8.33 3.798 8.33 8z" fill="#e48c9b"/><path d="m424.01 264.02v85.68l-24 13.5v-98.37l15.67-8.81c5.075 0 8.33 3.798 8.33 8z" fill="#cc5b6f"/><path d="m216.01 216.02v192c0 4.42-3.58 8-8 8h-112c-4.42 0-8-3.58-8-8v-192c0-4.42 3.58-8 8-8h112c4.42 0 8 3.58 8 8z" fill="#e2e0e0"/><path d="m232.01 216.02v35.42l-20.75 9.22c-5.303 2.345-11.25-1.534-11.25-7.31v-29.33h-16c-4.42 0-8-3.58-8-8v-8h48c4.42 0 8 3.58 8 8z" fill="#ebb15d"/><path d="m216.01 216.02v192c0 4.42-3.58 8-8 8h-112c-4.42 0-8-3.58-8-8v-192c0-4.42 3.58-8 8-8h112c4.42 0 8 3.58 8 8z" fill="#edebfd"/><path d="m232.01 251.44v46.49l-27.25 12.11c-2.89 1.28-4.75 4.15-4.75 7.31v-64c0 4.412 3.577 8 8 8 2.591 0 2.585-.395 24-9.91z" fill="#d2d2fc"/><path d="m232.01 395.44v12.58c0 4.42-3.58 8-8 8h-16c-4.42 0-8-3.58-8-8v-10.67c0 5.775 5.946 9.656 11.25 7.31z" fill="#d2d2fc"/><path d="m232.01 297.93v97.51l-20.75 9.22c-5.303 2.345-11.25-1.534-11.25-7.31v-80c0-3.16 1.86-6.03 4.75-7.31z" fill="#ebb15d"/><path d="m216.01 216.02v192c0 4.42-3.58 8-8 8h-24c4.42 0 8-3.58 8-8v-192c0-4.42-3.58-8-8-8h24c4.42 0 8 3.58 8 8z" fill="#d2d2fc"/><path d="m216.01 216.02v85.68l-128 72.25v-98.38l119.67-67.55c5.075 0 8.33 3.798 8.33 8z" fill="#79cb9c"/><path d="m216.01 216.02v85.68l-24 13.55v-98.38l15.67-8.85c5.075 0 8.33 3.798 8.33 8z" fill="#63ac7d"/><path d="m433.69 47.84c-12.93 2.78-23.08 12.93-25.86 25.86-1.795 8.383-13.841 8.402-15.64 0-2.78-12.93-12.93-23.08-25.86-25.86-8.383-1.795-8.402-13.841 0-15.64 12.93-2.78 23.08-12.93 25.86-25.86 1.798-8.398 13.823-8.356 15.64 0 2.78 12.93 12.93 23.08 25.86 25.86 8.383 1.794 8.402 13.841 0 15.64z" fill="#f1cc76"/><path d="m433.69 32.2c-12.93-2.78-23.08-12.93-25.86-25.86-1.703-7.831-13.445-9.261-15.82.709 2.995 12.587 12.99 22.422 25.68 25.151 8.383 1.795 8.402 13.841 0 15.64-12.69 2.728-22.685 12.563-25.68 25.15.057.238.128.469.18.709 1.795 8.383 13.841 8.402 15.64 0 2.78-12.93 12.93-23.08 25.86-25.86 8.383-1.794 8.402-13.84 0-15.639z" fill="#ebb15d"/><path d="m505.69 215.84c-12.93 2.78-23.08 12.93-25.86 25.86-1.795 8.383-13.841 8.402-15.64 0-2.78-12.93-12.93-23.08-25.86-25.86-8.383-1.795-8.402-13.841 0-15.64 12.93-2.78 23.08-12.93 25.86-25.86 1.798-8.398 13.823-8.356 15.64 0 2.78 12.93 12.93 23.08 25.86 25.86 8.383 1.794 8.402 13.841 0 15.64z" fill="#f1cc76"/><path d="m505.69 200.2c-12.93-2.78-23.08-12.93-25.86-25.86-1.703-7.831-13.445-9.261-15.82.709 2.995 12.587 12.99 22.422 25.68 25.151 8.383 1.795 8.402 13.841 0 15.64-12.69 2.729-22.685 12.563-25.68 25.151.057.238.128.469.18.709 1.795 8.383 13.841 8.402 15.64 0 2.78-12.93 12.93-23.08 25.86-25.86 8.383-1.795 8.402-13.841 0-15.64z" fill="#ebb15d"/><path d="m73.69 191.84c-12.93 2.78-23.08 12.93-25.86 25.86-1.795 8.383-13.841 8.402-15.64 0-2.78-12.93-12.93-23.08-25.86-25.86-8.383-1.795-8.402-13.841 0-15.64 12.93-2.78 23.08-12.93 25.86-25.86 1.798-8.398 13.823-8.356 15.64 0 2.78 12.93 12.93 23.08 25.86 25.86 8.383 1.794 8.402 13.841 0 15.64z" fill="#f1cc76"/><path d="m73.69 176.2c-12.93-2.78-23.08-12.93-25.86-25.86-1.703-7.831-13.445-9.261-15.82.709 2.995 12.587 12.99 22.422 25.68 25.151 8.383 1.795 8.402 13.841 0 15.64-12.69 2.728-22.685 12.563-25.68 25.15.057.238.128.469.18.709 1.795 8.383 13.841 8.402 15.64 0 2.78-12.93 12.93-23.08 25.86-25.86 8.383-1.794 8.402-13.84 0-15.639z" fill="#ebb15d"/><path d="m440.01 408.02v32c0 4.42-3.58 8-8 8h-352c-4.42 0-8-3.58-8-8v-32c0-4.42 3.58-8 8-8h352c4.42 0 8 3.58 8 8z" fill="#e1c3a7"/><path d="m440.01 408.02v32c0 4.42-3.58 8-8 8h-352c-4.42 0-8-3.58-8-8v-32c0-4.42 3.58-8 8-8h352c4.42 0 8 3.58 8 8z" fill="#696ead"/><path d="m432.01 400.02h-24c4.42 0 8 3.58 8 8v32c0 4.42-3.58 8-8 8h24c4.42 0 8-3.58 8-8v-32c0-4.42-3.58-8-8-8z" fill="#505795"/><path d="m464.01 440.02c0 39.7-32.3 72-72 72h-272c-39.7 0-72-32.3-72-72 0-4.42 3.58-8 8-8h400c4.42 0 8 3.58 8 8z" fill="#595965"/><path d="m456.01 432.02h-24c4.42 0 8 3.58 8 8 0 39.7-32.3 72-72 72h24c39.7 0 72-32.3 72-72 0-4.42-3.58-8-8-8z" fill="#44454e"/></g></svg>