<svg id="Layer_1" enable-background="new 0 0 512.007 512.007" height="512" viewBox="0 0 512.007 512.007" width="512" xmlns="http://www.w3.org/2000/svg"><g><path d="m152.004 24.003h-48c-4.418 0-8 3.582-8 8s3.582 8 8 8h16v168c0 4.418 3.582 8 8 8s8-3.582 8-8v-168h16c4.418 0 8-3.582 8-8s-3.582-8-8-8z" fill="#aa7569"/><path d="m208.004 217.383v29.24c0 16.375-21.121 22.798-24.92 12.04-4.366-12.361-21.104-14.535-28.41-3.49-3.156 4.755-10.166 4.782-13.34 0-6.313-9.544-20.331-9.568-26.66 0-3.156 4.755-10.166 4.782-13.34 0-7.318-11.062-24.052-8.849-28.41 3.49-3.847 10.893-24.92 4.205-24.92-12.04v-29.24c0-9.58 7.8-17.38 17.38-17.38h125.24c9.579 0 17.38 7.8 17.38 17.38z" fill="#ebb19c"/><path d="m208.004 217.383v29.24c0 16.37-21.12 22.8-24.92 12.04-2.45-6.92-8.76-10.65-15.14-10.65.09-1.01.06 1.124.06-30.63 0-9.58-7.8-17.38-17.38-17.38h40c9.579 0 17.38 7.8 17.38 17.38z" fill="#e58d72"/><path d="m200.004 264.003v24c0 4.42-3.58 8-8 8h-128c-4.42 0-8-3.58-8-8 0-24.899-.597-27.908 1.85-34.71 7.282-20.612 32.954-28.058 50.15-14.27 11.665-9.353 28.317-9.368 40 0 20.781-16.663 52-1.923 52 24.98z" fill="#79cb9c"/><path d="m200.004 264.003v24c0 4.42-3.58 8-8 8h-32c4.42 0 8-3.58 8-8v-24c0-12.5-6.75-22.38-16.06-27.69 20.56-12.09 48.06 2.44 48.06 27.69z" fill="#63ac7d"/><path d="m200.004 304.003c0 13.23-10.77 24-24 24h-96c-13.23 0-24-10.77-24-24s10.77-24 24-24h96c13.23 0 24 10.77 24 24z" fill="#e48c9b"/><path d="m176.004 280.003h-32c13.23 0 24 10.77 24 24s-10.77 24-24 24h32c13.23 0 24-10.77 24-24s-10.77-24-24-24z" fill="#cc5b6f"/><path d="m208.004 344.003c0 17.64-14.35 32-32 32h-96c-17.65 0-32-14.36-32-32s14.35-32 32-32h96c17.65 0 32 14.36 32 32z" fill="#ebb19c"/><path d="m176.004 312.003h-40c17.65 0 32 14.36 32 32s-14.35 32-32 32h40c17.65 0 32-14.36 32-32s-14.35-32-32-32z" fill="#e58d72"/><path d="m408.004 24.003h-48c-4.418 0-8 3.582-8 8s3.582 8 8 8h16v168c0 4.418 3.582 8 8 8s8-3.582 8-8v-168h16c4.418 0 8-3.582 8-8s-3.582-8-8-8z" fill="#aa7569"/><path d="m464.004 217.383v29.24c0 16.375-21.121 22.798-24.92 12.04-4.366-12.361-21.104-14.535-28.41-3.49-3.156 4.755-10.166 4.782-13.34 0-6.313-9.544-20.331-9.568-26.66 0-3.156 4.755-10.166 4.782-13.34 0-7.318-11.062-24.052-8.849-28.41 3.49-3.847 10.893-24.92 4.205-24.92-12.04v-29.24c0-9.58 7.8-17.38 17.38-17.38h125.24c9.579 0 17.38 7.8 17.38 17.38z" fill="#ebb19c"/><path d="m464.004 217.383v29.24c0 16.37-21.12 22.8-24.92 12.04-2.45-6.92-8.76-10.65-15.14-10.65.09-1.01.06 1.124.06-30.63 0-9.58-7.8-17.38-17.38-17.38h40c9.579 0 17.38 7.8 17.38 17.38z" fill="#e58d72"/><path d="m456.004 264.003v24c0 4.42-3.58 8-8 8h-128c-4.42 0-8-3.58-8-8 0-24.899-.596-27.908 1.85-34.71 7.282-20.612 32.954-28.058 50.15-14.27 11.665-9.353 28.317-9.368 40 0 20.781-16.663 52-1.923 52 24.98z" fill="#79cb9c"/><path d="m456.004 264.003v24c0 4.42-3.58 8-8 8h-32c4.42 0 8-3.58 8-8v-24c0-12.5-6.75-22.38-16.06-27.69 20.56-12.09 48.06 2.44 48.06 27.69z" fill="#63ac7d"/><path d="m456.004 304.003c0 13.23-10.77 24-24 24h-96c-13.23 0-24-10.77-24-24s10.77-24 24-24h96c13.229 0 24 10.77 24 24z" fill="#e48c9b"/><path d="m432.004 280.003h-32c13.23 0 24 10.77 24 24s-10.77 24-24 24h32c13.23 0 24-10.77 24-24s-10.771-24-24-24z" fill="#cc5b6f"/><path d="m464.004 344.003c0 17.64-14.35 32-32 32h-96c-17.65 0-32-14.36-32-32s14.35-32 32-32h96c17.65 0 32 14.36 32 32z" fill="#ebb19c"/><path d="m432.004 312.003h-40c17.65 0 32 14.36 32 32s-14.35 32-32 32h40c17.65 0 32-14.36 32-32s-14.35-32-32-32z" fill="#e58d72"/><path d="m511.764 369.943-6.91 27.64c-5.97 23.91-26.7 40.92-51.05 42.33-4.014 12.009-8.706 26.108-8.74 26.21-4.37 13.09-16.57 21.88-30.36 21.88h-317.4c-13.79 0-25.99-8.79-30.36-21.88-.531-1.596-4.78-14.363-8.74-26.21-24.35-1.41-45.08-18.42-51.05-42.33l-6.91-27.64c-1.263-5.03 2.543-9.94 7.76-9.94h496c5.227 0 9.019 4.92 7.76 9.94z" fill="#edebfd"/><g fill="#d2d2fc"><path d="m504.004 360.003h-55c5.227 0 9.02 4.92 7.76 9.94l-6.91 27.64c-5.97 23.91-26.7 40.92-51.05 42.33l-8.74 26.21c-4.37 13.09-16.57 21.88-30.36 21.88h55c13.79 0 25.99-8.79 30.36-21.88l8.74-26.21c24.35-1.41 45.08-18.42 51.05-42.33l6.91-27.64c1.262-5.03-2.543-9.94-7.76-9.94z"/><path d="m136.004 448.003c0 4.42-3.58 8-8 8h-64.43l-5.34-16h69.77c4.419 0 8 3.581 8 8z"/><path d="m453.774 440.003-5.34 16h-256.43c-4.42 0-8-3.58-8-8s3.58-8 8-8z"/></g></g></svg>