<svg id="Layer_1" enable-background="new 0 0 512.191 512.191" height="512" viewBox="0 0 512.191 512.191" width="512" xmlns="http://www.w3.org/2000/svg"><g><path d="m512.095 200.083v304c0 4.42-3.58 8-8 8h-496c-4.42 0-8-3.58-8-8v-304c0-6.49 7.36-10.28 12.63-6.52 84.77 60.15 92.58 65.7 243.37 172.71 417.142-296.04 150.618-106.92 243.37-172.71 5.27-3.76 12.63.03 12.63 6.52z" fill="#f1cc76"/><g fill="#ebb15d"><path d="m512.095 200.083v304c0 4.42-3.58 8-8 8h-40c4.42 0 8-3.58 8-8v-291.09c8.29-5.89 17.29-12.28 27.37-19.43 5.27-3.76 12.63.03 12.63 6.52z"/><path d="m508.725 206.603-72 51.1c-5.288 3.755-12.63-.035-12.63-6.52v-123.1c0-7.093 8.606-10.692 13.66-5.66l72 72c3.528 3.548 2.966 9.35-1.03 12.18z"/><path d="m88.095 128.083v123.1c0 6.485-7.343 10.275-12.63 6.52l-72-51.1c-4.003-2.835-4.551-8.638-1.03-12.18l72-72c5.047-5.025 13.66-1.442 13.66 5.66z"/><path d="m8.103 512.084c-7.872 0-11.03-10.269-4.445-14.657l192-128c3.676-2.451 8.644-1.457 11.094 2.219 2.451 3.676 1.458 8.644-2.219 11.094-205.851 137.233-192.882 129.344-196.43 129.344z"/><path d="m504.087 512.084c-3.74 0 10.552 8.643-196.43-129.345-3.677-2.45-4.67-7.418-2.219-11.094 2.449-3.677 7.414-4.67 11.094-2.219l192 128c6.592 4.393 3.419 14.658-4.445 14.658z"/></g><path d="m440.095 56.083v195.1c0 2.59-1.26 5.02-3.37 6.52l-176 124.9c-2.771 1.973-6.487 1.974-9.26 0l-176-124.9c-2.11-1.5-3.37-3.93-3.37-6.52v-195.1c0-4.42 3.58-8 8-8h352c4.42 0 8 3.58 8 8z" fill="#edebfd"/><path d="m432.095 48.083h-40c4.42 0 8 3.58 8 8 0 209.327.105 195.411-.189 196.776l-143.811 113.414-184-130.58v15.49c0 2.59 1.26 5.02 3.37 6.52l176 124.9c2.771 1.973 6.487 1.974 9.26 0l176-124.9c2.11-1.5 3.37-3.93 3.37-6.52 0-8.92 0-181.454 0-195.1 0-4.42-3.58-8-8-8z" fill="#d2d2fc"/><path d="m440.095 32.083v24c0 4.42-3.58 8-8 8h-352c-4.42 0-8-3.58-8-8v-24c0-17.64 14.36-32 32-32h304c17.669 0 32 14.386 32 32z" fill="#79cb9c"/><path d="m440.095 32.083v24c0 4.42-3.58 8-8 8h-50c4.42 0 8-3.58 8-8 0-25.022.954-30.056-3.65-38.81-5.35-10.21-16.05-17.19-28.35-17.19 23.683 0 52.288-.197 55.91.55 14.92 2.743 26.09 15.952 26.09 31.45z" fill="#63ac7d"/><path d="m309.045.083-32 64h-73.9l32-64z" fill="#e48c9b"/><path d="m272.045.083-32 64h37l32-64z" fill="#cc5b6f"/><path d="m419.915 2.343-30.87 61.74h-73.9l32-64c66.931 0 65.223-.751 72.77 2.26z" fill="#e48c9b"/><path d="m419.915 2.343-30.87 61.74h-32l30.87-61.74c-3.99-1.59-5.39-2.13-15.67-2.29 41.53-.11 41.22-.28 47.67 2.29z" fill="#cc5b6f"/><path d="m165.045 64.083 32-64h-73.9l-32 64z" fill="#e48c9b"/><path d="m160.045.083-32 64h37l32-64z" fill="#cc5b6f"/><path d="m400.095 96.083v96c0 4.42-3.58 8-8 8h-96c-4.42 0-8-3.58-8-8v-96c0-4.42 3.58-8 8-8h96c4.42 0 8 3.58 8 8z" fill="#e48c9b"/><path d="m400.095 96.083v96c0 4.42-3.58 8-8 8h-40c4.42 0 8-3.58 8-8v-96c0-4.42-3.58-8-8-8h40c4.42 0 8 3.58 8 8z" fill="#cc5b6f"/><path d="m400.095 160.073v32.01c0 4.42-3.58 8-8 8-101.96 0-97.4.41-99.68-.9-.47-.19-1.71-1.07-2.24-1.72-2.34-2.33-3.02-7.03-.33-10.38 19.18-23.97 10.22-12.77 32-40 2.93-3.65 8.47-4.1 11.91-.66l8.75 8.76c1.307-2.179 16.621-27.705 18.73-31.22 2.91-4.84 9.84-5.24 13.26-.68 10.79 14.39 7.39 9.86 24 32 1.08 1.44 1.6 3.12 1.6 4.79z" fill="#79cb9c"/><path d="m248.095 104.083h-128c-4.418 0-8-3.582-8-8s3.582-8 8-8h128c4.418 0 8 3.582 8 8s-3.582 8-8 8z" fill="#d2d2fc"/><path d="m248.095 144.083h-128c-4.418 0-8-3.582-8-8s3.582-8 8-8h128c4.418 0 8 3.582 8 8s-3.582 8-8 8z" fill="#d2d2fc"/><path d="m248.095 184.083h-128c-4.418 0-8-3.582-8-8s3.582-8 8-8h128c4.418 0 8 3.582 8 8s-3.582 8-8 8z" fill="#d2d2fc"/><path d="m248.095 224.083h-128c-4.418 0-8-3.582-8-8s3.582-8 8-8h128c4.418 0 8 3.582 8 8s-3.582 8-8 8z" fill="#d2d2fc"/><path d="m400.095 160.073v32.01c0 4.42-3.58 8-8 8h-40c4.42 0 8-3.58 8-8v-66.22l1.14-1.9c2.91-4.84 9.84-5.24 13.26-.68 10.79 14.39 7.39 9.86 24 32 1.08 1.44 1.6 3.12 1.6 4.79z" fill="#63ac7d"/></g></svg>