<svg id="Layer_1" enable-background="new 0 0 512.311 512.311" height="512" viewBox="0 0 512.311 512.311" width="512" xmlns="http://www.w3.org/2000/svg"><g><path d="m479.44 256.966c-42.647 56.104-114.629 75.968-177.56 55.24-2.41-.8-4.29-2.69-5.09-5.1-7.64-23.21-21.25-44.28-39.35-60.91-5.565-5.098-1.555-14.38 5.91-13.87 22.57 1.407 24.29 15.89 42.63 15.89 8.99 0 13.16-2.9 18.43-6.57 6.04-4.2 13.56-9.43 27.57-9.43 14.02 0 21.54 5.23 27.58 9.43 5.27 3.67 9.44 6.57 18.43 6.57s13.16-2.9 18.43-6.57c6.04-4.2 13.56-9.43 27.57-9.43 18.106 0 25.226 8.662 32.94 12.9 4.296 2.358 5.455 7.986 2.51 11.85z" fill="#ebb19c"/><path d="m352 .216c-108.238 0-186.204 106.25-151.99 210.12.8 2.41 2.69 4.3 5.1 5.09 19.52 6.42 37.12 16.78 52.32 30.77 1.35 1.24 3.09 1.98 4.92 2.09 16.43 1.04 19.24 15.93 43.63 15.93 14.01 0 21.53-5.23 27.57-9.43 5.27-3.67 9.44-6.57 18.43-6.57 9 0 13.17 2.9 18.44 6.57 6.04 4.2 13.56 9.43 27.57 9.43s21.53-5.23 27.57-9.43c5.27-3.67 9.44-6.57 18.43-6.57 12.572 0 15.886 5.779 25.22 10.92 3.307 1.816 7.272.927 9.27-1.12 2.49-2.201 20.98-26.448 29.06-60.03 24.925-98.269-50.898-197.77-155.54-197.77zm0 216c-30.88 0-56-25.12-56-56s25.12-56 56-56 56 25.12 56 56-25.12 56-56 56z" fill="#aa7569"/><path d="m331.93 1.375c6.831.683 19.059 3.177 30.19 6.85 98.344 32.384 142.479 150.624 83.35 240.02 11.38.44 14.77 5.95 23.74 10.89 3.04 1.67 6.75 1.18 9.24-1.1 1.29-.629 22.129-28.641 29.7-62.62 24.403-106.509-65.604-208.238-176.22-194.04z" fill="#9a6758"/><path d="m478.45 258.035c-34.921 45.163-90.154 68.004-146.39 60.94 48.09-5.97 88.54-33.13 113.41-70.73 11.38.44 14.77 5.95 23.74 10.89 3.04 1.67 6.75 1.181 9.24-1.1z" fill="#e58d72"/><path d="m311.99 302.106c-15.352-46.616-52.398-85.595-101.87-101.88-103.691-34.154-210.12 43.577-210.12 151.99 0 88.22 71.78 160 160 160 108.486 0 186.132-106.529 151.99-210.11zm-151.99 106.11c-30.88 0-56-25.12-56-56s25.12-56 56-56 56 25.12 56 56-25.12 56-56 56z" fill="#e48c9b"/><path d="m311.99 302.106c-24.1-73.196-97.163-118.344-172.06-108.73 63.064 7.985 113.346 51.893 132.06 108.73 31.99 97.07-34.18 196.73-131.93 208.87 116.473 14.631 208.604-97.603 171.93-208.87z" fill="#cc5b6f"/><g fill="#aa7569"><path d="m160 256.216c-4.418 0-8-3.582-8-8v-16c0-4.418 3.582-8 8-8s8 3.582 8 8v16c0 4.417-3.582 8-8 8z"/><path d="m208 272.216c-2.048 0-4.095-.781-5.657-2.343l-8-8c-3.124-3.125-3.124-8.189 0-11.314 3.125-3.123 8.189-3.123 11.314 0l8 8c5.055 5.056 1.406 13.657-5.657 13.657z"/><path d="m239.994 304.217c-5.88 0-9.826-6.226-7.149-11.58l8-16c1.977-3.952 6.78-5.552 10.733-3.577 3.951 1.976 5.553 6.781 3.577 10.733l-8 16c-1.401 2.803-4.226 4.424-7.161 4.424z"/><path d="m120 256.216h-16c-4.418 0-8-3.582-8-8s3.582-8 8-8h16c4.418 0 8 3.582 8 8s-3.582 8-8 8z"/><path d="m96 296.216c-7.065 0-10.711-8.602-5.657-13.657l8-8c3.125-3.123 8.189-3.123 11.314 0 3.124 3.125 3.124 8.189 0 11.314l-8 8c-1.562 1.561-3.609 2.343-5.657 2.343z"/><path d="m64.006 312.217c-2.935 0-5.76-1.621-7.161-4.424l-8-16c-1.976-3.952-.374-8.758 3.577-10.733 3.952-1.977 8.758-.374 10.733 3.577l8 16c2.679 5.36-1.272 11.58-7.149 11.58z"/><path d="m72 368.216c-4.418 0-8-3.582-8-8v-16c0-4.418 3.582-8 8-8s8 3.582 8 8v16c0 4.417-3.582 8-8 8z"/><path d="m56 400.216c-2.048 0-4.095-.781-5.657-2.343l-16-16c-3.124-3.125-3.124-8.189 0-11.314 3.125-3.123 8.189-3.123 11.314 0l16 16c5.055 5.056 1.406 13.657-5.657 13.657z"/><path d="m80 432.216c-7.065 0-10.711-8.602-5.657-13.657l16-16c3.125-3.123 8.189-3.123 11.314 0 3.124 3.125 3.124 8.189 0 11.314l-16 16c-1.562 1.561-3.609 2.343-5.657 2.343z"/><path d="m160 488.216c-4.418 0-8-3.582-8-8v-16c0-4.418 3.582-8 8-8s8 3.582 8 8v16c0 4.417-3.582 8-8 8z"/><path d="m120 464.216c-2.048 0-4.095-.781-5.657-2.343l-8-8c-3.124-3.125-3.124-8.189 0-11.314 3.125-3.123 8.189-3.123 11.314 0l8 8c5.055 5.056 1.406 13.657-5.657 13.657z"/><path d="m192 440.216h-16c-4.418 0-8-3.582-8-8s3.582-8 8-8h16c4.418 0 8 3.582 8 8s-3.582 8-8 8z"/><path d="m231.994 456.217c-5.88 0-9.826-6.226-7.149-11.58l8-16c1.977-3.952 6.78-5.552 10.733-3.577 3.951 1.976 5.553 6.781 3.577 10.733l-8 16c-1.401 2.803-4.226 4.424-7.161 4.424z"/><path d="m240 408.216c-7.065 0-10.711-8.602-5.657-13.657l16-16c3.125-3.123 8.189-3.123 11.314 0 3.124 3.125 3.124 8.189 0 11.314l-16 16c-1.562 1.561-3.609 2.343-5.657 2.343z"/><path d="m281 352.216c-4.418 0-8-3.582-8-8v-16c0-4.418 3.582-8 8-8s8 3.582 8 8v16c0 4.417-3.582 8-8 8z"/><path d="m248 352.216c-2.048 0-4.095-.781-5.657-2.343l-8-8c-3.124-3.125-3.124-8.189 0-11.314 3.125-3.123 8.189-3.123 11.314 0l8 8c5.055 5.056 1.406 13.657-5.657 13.657z"/></g></g></svg>