<svg id="Layer_1" enable-background="new 0 0 512.012 512.012" height="512" viewBox="0 0 512.012 512.012" width="512" xmlns="http://www.w3.org/2000/svg"><g><path d="m395.956 232.942c-3.94 33.545 1.081-9.147-29.51 250.81-1.9 16.11-15.56 28.26-31.78 28.26h-133.32c-16.22 0-29.88-12.15-31.78-28.26-31.073-264.052-26.022-221.121-29.51-250.81-.552-4.795 3.199-8.93 7.95-8.93h240c4.751 0 8.501 4.135 7.95 8.93z" fill="#edebfd"/><path d="m316.006 32.012v44.65c0 5.348-5.129 9.185-10.29 7.67-16.866-5.052-28.379-4.32-45.71-4.32-10.13 0-20.13 1.45-29.71 4.32-5.154 1.527-10.29-2.324-10.29-7.67v-44.65c0-17.64 14.36-32 32-32h32c17.64 0 32 14.36 32 32z" fill="#edebfd"/><path d="m316.006 32.012v44.65c0 5.35-5.13 9.19-10.29 7.67-11.45-3.43-20.43-4.2-30.44-4.33 1.025-2.204.73.403.73-47.99 0-16.29-12.24-29.78-28-31.75 2.656-.344 1.497-.25 36-.25 17.64 0 32 14.36 32 32z" fill="#d2d2fc"/><path d="m396.006 184.012c0 4.42-3.58 8-8 8h-240c-4.42 0-8-3.58-8-8 0-67.449 54.87-120 120-120 18.689 0 31.225-.71 50.29 4.99 48.732 14.483 85.71 59.799 85.71 115.01z" fill="#edebfd"/><path d="m396.006 184.012c0 4.42-3.58 8-8 8h-40c4.42 0 8-3.58 8-8 0-63.615-49.197-113.937-107.99-119.4 3.95-.4 7.95-.6 11.99-.6 18.69 0 31.23-.71 50.29 4.99 48.73 14.48 85.71 59.8 85.71 115.01z" fill="#d2d2fc"/><path d="m388.006 224.012c-10.811 0-228.208 0-240 0-4.751 0-8.502 4.135-7.95 8.93l2.71 23.07h204.476l-26.796 227.74c-1.9 16.11-15.56 28.26-31.78 28.26h46c16.22 0 29.88-12.15 31.78-28.26 8.573-72.861 27.558-234.191 29.51-250.81.551-4.795-3.2-8.93-7.95-8.93z" fill="#d2d2fc"/><path d="m420.006 200.012v16c0 13.23-10.77 24-24 24h-256c-13.23 0-24-10.77-24-24v-16c0-13.23 10.77-24 24-24h256c13.23 0 24 10.77 24 24z" fill="#edebfd"/><path d="m396.006 176.012h-48c13.23 0 24 10.77 24 24v16c0 13.23-10.77 24-24 24h48c13.23 0 24-10.77 24-24v-16c0-13.23-10.77-24-24-24z" fill="#d2d2fc"/><g fill="#f1cc76"><path d="m420.006 472.012c-7.065 0-10.711-8.602-5.657-13.657l12.687-12.687c3.119-3.119 3.119-8.193 0-11.313l-1.373-1.373c-9.38-9.382-9.379-24.561 0-33.941l1.373-1.373c3.115-3.115 3.139-8.174 0-11.313l-1.373-1.373c-9.38-9.382-9.379-24.561 0-33.941l1.373-1.373c3.115-3.115 3.139-8.174 0-11.313l-1.373-1.373c-9.38-9.382-9.379-24.561 0-33.941l1.373-1.373c3.119-3.119 3.119-8.193 0-11.313l-12.687-12.687c-3.124-3.125-3.124-8.189 0-11.314 3.125-3.123 8.189-3.123 11.314 0l12.687 12.687c9.357 9.357 9.357 24.584 0 33.941-1.766 1.766-3.717 3.423-3.717 7.029 0 3.602 2.004 5.316 3.717 7.029 9.357 9.357 9.357 24.584 0 33.941l-1.373 1.373c-3.119 3.119-3.119 8.193 0 11.313l1.373 1.373c9.357 9.357 9.357 24.584 0 33.941l-1.373 1.373c-3.115 3.115-3.139 8.174 0 11.313l1.373 1.373c9.357 9.357 9.357 24.584 0 33.941l-12.687 12.687c-1.562 1.563-3.609 2.344-5.657 2.344z"/><path d="m92.006 376.012c-2.048 0-4.095-.781-5.657-2.343l-12.687-12.687c-9.357-9.357-9.357-24.584 0-33.941l1.373-1.373c3.115-3.115 3.139-8.174 0-11.313l-1.373-1.373c-9.357-9.357-9.357-24.584 0-33.941l1.373-1.373c3.119-3.119 3.119-8.193 0-11.313l-1.373-1.373c-9.357-9.357-9.357-24.584 0-33.941 1.766-1.766 3.717-3.423 3.717-7.029 0-3.602-2.004-5.316-3.717-7.029-9.357-9.357-9.357-24.584 0-33.941l12.687-12.687c3.125-3.123 8.189-3.123 11.314 0 3.124 3.125 3.124 8.189 0 11.314l-12.687 12.687c-3.119 3.119-3.119 8.193 0 11.313l1.373 1.373c9.38 9.382 9.379 24.561 0 33.941l-1.373 1.373c-3.115 3.115-3.139 8.174 0 11.313l1.373 1.373c9.38 9.382 9.379 24.561 0 33.941l-1.373 1.373c-3.115 3.115-3.139 8.174 0 11.313l1.373 1.373c9.38 9.382 9.379 24.561 0 33.941l-1.373 1.373c-3.119 3.119-3.119 8.193 0 11.313l12.687 12.687c5.055 5.055 1.406 13.656-5.657 13.656z"/></g></g></svg>