<svg id="Layer_1" enable-background="new 0 0 512.691 512.691" height="512" viewBox="0 0 512.691 512.691" width="512" xmlns="http://www.w3.org/2000/svg"><g><path d="m200.594 217.515c-30.49 10.16-57.66 28.56-78.58 53.21-2.882 3.383-7.96 3.778-11.33.87-51.074-44.122-99.47-128.61-109.07-195.29-10.615-73.662 32.403-98.986 91.25-52.69 51.247 40.321 98.354 119.975 113 184.54.91 4.01-1.37 8.061-5.27 9.36z" fill="#edebfd"/><path d="m205.864 208.156c-24.488-107.949-130.294-234.484-184.57-203.131-5.594 3.229-10.12 7.938-13.54 13.981 54.469-29.2 158.243 95.249 183.228 202.051 3.167-1.266 6.366-2.46 9.612-3.542 3.9-1.299 6.18-5.35 5.27-9.359z" fill="#d2d2fc"/><path d="m175.964 222.946c0 2.93-1.6 5.63-4.17 7.04-10.04 5.46-19.59 11.96-28.41 19.33-3.119 2.596-7.644 2.447-10.57-.27-31.918-29.587-62.001-71.437-83.5-120.47-10.312-23.542-30.246-76.092-8.02-88.91 11.15-6.44 26.91.43 46.84 20.4 17.04 17.08 35.44 42.11 51.8 70.45 23.513 40.727 36.03 85.758 36.03 92.43z" fill="#e48c9b"/><path d="m87.654 170.515c-13.831-23.977-27.905-53.361-35.11-80.09-4.626-17.199-9.183-43.441 6.769-51.304-6.93-2.551-12.952-2.383-18.019.543-11.15 6.43-13.08 23.51-5.75 50.76 7.204 26.727 21.277 56.111 35.11 80.09 19.15 33.17 45.45 63.04 62.16 78.53 1.53 1.42 3.48 2.13 5.44 2.13 3.627 0 5.135-1.938 8.744-4.794-16.741-16.094-41.236-44.5-59.344-75.865z" fill="#cc5b6f"/><path d="m510.974 76.305c-9.652 67.039-58.228 151.297-108.96 195.2-3.321 2.885-8.429 2.547-11.33-.88-20.89-24.65-48.09-43.03-78.67-53.17-3.91-1.29-6.19-5.35-5.28-9.36 14.715-64.7 61.852-144.245 112.99-184.48 58.626-46.122 101.908-21.271 91.25 52.69z" fill="#edebfd"/><path d="m491.294 5.025c-8.735-5.046-19.296-6.023-31.123-3.098 28.302 8.694 31.036 45.003 26.803 74.378-9.086 63.11-53.002 142.529-101.529 188.443 1.782 1.922 3.539 3.871 5.239 5.876 2.892 3.418 7.999 3.774 11.33.88 84.289-72.941 144.764-234.458 89.28-266.479z" fill="#d2d2fc"/><path d="m477.044 90.426c-6.28 23.3-18.75 51.74-35.11 80.09-19.14 33.17-45.45 63.03-62.16 78.53-2.928 2.718-7.452 2.865-10.57.27-8.82-7.37-18.38-13.87-28.41-19.33-2.57-1.41-4.17-4.1-4.17-7.03 0-4.931 10.786-48.715 36.03-92.44 16.36-28.34 34.76-53.37 51.8-70.45 19.93-19.97 35.69-26.84 46.84-20.4 11.15 6.43 13.09 23.51 5.75 50.76z" fill="#e48c9b"/><path d="m350.794 235.295c17.736-84.238 94.376-190.582 129.24-183.609-1.567-5.543-4.478-9.563-8.74-12.021-11.15-6.44-26.91.43-46.84 20.4-17.04 17.08-35.44 42.11-51.8 70.45-23.513 40.728-36.03 85.768-36.03 92.44 0 2.93 1.6 5.62 4.17 7.03 11.208 6.102 9.775 6.419 10 5.31z" fill="#cc5b6f"/><path d="m407.114 503.346c-14.125 17.94-42.92 7.749-42.92-14.9 0-5.36 1.79-10.46 5.17-14.74 20.23-25.61 30.93-56.46 30.93-89.19 0-79.164-65.373-144.623-145.15-144-78.77.62-142.85 65.22-142.85 144 0 32.66 10.66 63.45 30.81 89.04 12.476 15.815 1.308 38.96-18.75 38.96-7.528 0-14.425-3.514-18.9-9.2-57.973-73.494-53.134-175.143 4.36-242.94 68.925-81.218 189.606-90.198 269.65-23.34 79.469 66.236 92.006 184.739 27.65 266.31z" fill="#edebfd"/><g fill="#d2d2fc"><path d="m243.766 241.058c-84.407-7.337-156.472 59.847-156.472 143.457 0 32.66 10.66 63.45 30.81 89.04 9.167 11.621 5.752 28.129-6.217 35.453 11.757 7.219 27.7 3.041 34.007-9.963 4.07-8.38 3-18.15-2.79-25.49-20.15-25.59-30.81-56.38-30.81-89.04 0-74.95 58.002-137.06 131.472-143.457z"/><path d="m448.284 382.335c-1.227-109.907-93.88-196.507-204.463-189.415 155.929 9.961 232.724 190.735 138.293 310.425-1.803 2.29-3.965 4.189-6.37 5.66 10.17 6.216 23.691 4.093 31.37-5.66 27.03-34.26 41.65-77.24 41.17-121.01z"/></g></g></svg>