<svg id="Layer_1" enable-background="new 0 0 512.037 512.037" height="512" viewBox="0 0 512.037 512.037" width="512" xmlns="http://www.w3.org/2000/svg"><g><path d="m191.401 388.285-112.82 112.81c-14.414 14.412-38.055 14.764-52.84 0l-14.8-14.8c-14.41-14.45-14.764-38.055 0-52.84l112.82-112.81c3.13-3.12 8.19-3.12 11.32 0l56.32 56.32c3.12 3.121 3.117 8.203 0 11.32z" fill="#ebb19c"/><path d="m191.401 388.285-112.82 112.81c-14.41 14.41-38.05 14.76-52.84 0-15.304-15.304-17.378-16.839-20.54-22.21 14.45 8.52 33.21 6.38 45.38-5.79l112.82-112.81c3.12-3.12 3.12-8.2 0-11.32l28 28c3.12 3.12 3.12 8.2 0 11.32z" fill="#e58d72"/><path d="m361.261 373.295-71.31 71.3c-14.81 14.81-38.75 14.79-53.56 0l-168.95-168.95c-14.79-14.81-14.81-38.76.01-53.56l71.29-71.31c3.12-3.12 8.2-3.12 11.32 0l180.22 180.22 30.98 30.98c3.12 3.12 3.12 8.2 0 11.32z" fill="#79cb9c"/><path d="m361.261 373.295-71.31 71.3c-14.81 14.81-38.75 14.79-53.56 0l-30.19-30.19c13.4 4.89 28.99 1.95 39.75-8.81l83.45-73.55c.33-.33.62-.68.88-1.05l30.98 30.98c3.12 3.12 3.12 8.2 0 11.32z" fill="#63ac7d"/><path d="m456.991 277.565-95.73 95.73c-3.15 3.13-8.19 3.11-11.32 0l-211.2-211.2c-3.12-3.13-3.12-8.19 0-11.32l95.73-95.73c3.12-3.12 8.2-3.12 11.32 0l211.2 211.2c3.12 3.12 3.12 8.2 0 11.32z" fill="#f1cc76"/><path d="m456.991 277.565-95.73 95.73c-3.15 3.13-8.19 3.11-11.32 0l-33.45-33.45c2.41.37 4.96-.39 6.82-2.24l99.09-97.01c1.81-1.82 2.57-4.31 2.26-6.68l32.33 32.33c3.12 3.12 3.12 8.2 0 11.32z" fill="#ebb15d"/><path d="m465.921 268.635-8.93 8.93c-3.121 3.121-8.203 3.117-11.32 0l-211.2-211.2c-3.121-3.121-3.117-8.204 0-11.32l8.93-8.93c61.514-61.494 161.019-61.481 222.52 0 61.493 61.514 61.481 161.018 0 222.52z" fill="#e48c9b"/><path d="m465.921 268.635-8.93 8.93c-3.12 3.12-8.2 3.12-11.32 0l-36-36c3.12 3.12 8.2 3.12 11.32 0l8.93-8.93c55.35-55.37 60.88-141.55 16.55-203.07 78.927 56.795 88.008 170.491 19.45 239.07z" fill="#cc5b6f"/></g></svg>