<svg id="Layer_1" enable-background="new 0 0 512 512" height="512" viewBox="0 0 512 512" width="512" xmlns="http://www.w3.org/2000/svg"><g><path d="m199.2 139.86c-55.79 15.8-102.82 54.65-129.02 106.59-1.904 3.794-6.531 5.517-10.56 3.63-36.22-17.11-59.62-54.04-59.62-94.08 0-57.35 46.65-104 104-104 47.56 0 89 32.15 100.77 78.18 1.08 4.2-1.4 8.5-5.57 9.68z" fill="#aa7569"/><path d="m204.77 130.18c-12.318-48.173-57.138-81.135-107.389-77.963 44.846 2.73 83.149 34.006 94.389 77.963 1.08 4.2-1.4 8.5-5.57 9.68-94.603 26.792-127.72 105.6-130.259 108.385 3.353 1.752 4.879 2.605 7.089 2.605 2.93 0 5.75-1.61 7.15-4.4 26.2-51.94 73.23-90.79 129.02-106.59 4.17-1.18 6.65-5.48 5.57-9.68z" fill="#9a6758"/><path d="m162.79 153.83c-28.05 14-52.96 34.58-72.04 59.49-2.135 2.8-5.849 3.86-9.15 2.64-24.88-9.29-41.6-33.39-41.6-59.96 0-35.29 28.71-64 64-64 31.4 0 57.94 22.44 63.11 53.35.58 3.47-1.17 6.91-4.32 8.48z" fill="#ebb19c"/><path d="m104 108c28.24 0 52.539 18.155 60.907 44.294 1.771-1.791 2.636-4.358 2.203-6.944-5.17-30.91-31.71-53.35-63.11-53.35-38.504 0-68.341 33.916-63.483 72.005 3.949-31.528 30.902-56.005 63.483-56.005z" fill="#e58d72"/><path d="m512 156c0 39.96-23.34 76.86-59.47 94.01-4.023 1.884-8.666.175-10.58-3.64-26.11-52.02-73.17-90.87-129.11-106.58-4.19-1.17-6.67-5.48-5.59-9.69 11.79-45.98 53.22-78.1 100.75-78.1 57.35 0 104 46.65 104 104z" fill="#aa7569"/><path d="m396.046 52.702c51.695 5.988 91.954 50.023 91.954 103.298 0 35.393-18.319 68.373-47.607 87.368.522.999 1.051 1.994 1.557 3.002 1.915 3.816 6.56 5.523 10.58 3.64 36.13-17.15 59.47-54.05 59.47-94.01 0-61.721-53.85-110.439-115.954-103.298z" fill="#9a6758"/><path d="m472 156c0 26.57-16.72 50.67-41.6 59.96-3.304 1.22-7.017.158-9.15-2.64-19.08-24.91-43.99-45.49-72.04-59.49-3.15-1.57-4.9-5.01-4.32-8.48 5.17-30.91 31.71-53.35 63.11-53.35 35.29 0 64 28.71 64 64z" fill="#ebb19c"/><path d="m460.516 119.484c-32.719-46.912-106.161-30.721-115.626 25.866-.58 3.47 1.17 6.91 4.32 8.48 4.031 2.012 7.989 4.176 11.883 6.453 8.571-46.473 61.986-66.91 99.423-40.799z" fill="#e58d72"/><path d="m480 340.86c-.139 37.031-9.507 73.907-27.44 106.65-4.22 7.71-12.29 12.49-21.07 12.49-18.161 0-29.802-19.519-21.03-35.58 13.76-25.11 21.21-53.61 21.53-82.42 1.076-97.505-78.014-177.772-175.57-178-133.523 0-219.301 142.833-154.89 260.41 8.77 16.012-2.734 35.59-21.02 35.59-8.586 0-16.724-4.595-21.02-12.42-34.598-63.042-37.377-141.405-3.59-208.34 36.929-73.203 112.839-123.24 200.08-123.24 123.949 0 224.474 99.817 224.02 224.86z" fill="#aa7569"/><g fill="#9a6758"><path d="m243.954 164.412c-102.005-6.852-187.954 73.814-187.954 175.588 0 29.51 7.44 58.69 21.53 84.41 6.492 11.852 1.921 26.074-8.992 32.39 3.634 2.091 7.763 3.2 11.972 3.2 18.259 0 29.805-19.552 21.02-35.59-61.388-112.059 14.454-251.412 142.424-259.998z"/><path d="m456.25 239.19c-39.901-79.483-122.812-127.599-212.212-122.873 165.333 8.687 263.3 187.355 184.522 331.192-2.155 3.937-5.317 7.103-9.061 9.266 11.519 6.674 26.512 2.699 33.061-9.266 34.625-63.219 37.22-141.576 3.69-208.319z"/></g></g></svg>