<svg id="Layer_1" enable-background="new 0 0 512.008 512.008" height="512" viewBox="0 0 512.008 512.008" width="512" xmlns="http://www.w3.org/2000/svg"><g><path d="m208.924 159.674-42.67 53.33c-1.56 1.95-3.88 3-6.25 3-2.548 0 3.776 2.638-80-37.04-4.619-2.194-6.088-8.136-2.83-12.23l60.58-75.73c2.934-3.657 8.48-4.09 11.91-.66l58.67 58.67c2.88 2.89 3.13 7.47.59 10.66z" fill="#ebb15d"/><path d="m432.004 178.964-76.58 36.27c-3.266 1.558-7.31.72-9.67-2.23l-42.67-53.33c-2.54-3.19-2.29-7.77.59-10.66l58.67-58.67c3.431-3.431 8.977-2.996 11.91.66l60.58 75.73c3.181 3.971 1.907 9.98-2.83 12.23z" fill="#ebb15d"/><path d="m511.894 137.324c-.045.287-38.399 230.372-40 240-.64 3.85-3.98 6.68-7.89 6.68h-416c-3.91 0-7.25-2.83-7.89-6.68l-40-240c-1.06-6.36 5.46-11.3 11.32-8.55l146.28 69.29 92.04-115.06c3.2-4 9.3-4 12.5 0l92.04 115.06c16.306-7.723 131.613-62.338 146.29-69.29 5.83-2.75 12.37 2.19 11.31 8.55z" fill="#f1cc76"/><path d="m511.894 137.324c-.066.416-38.203 229.192-40 240-.64 3.85-3.98 6.68-7.89 6.68h-40c3.91 0 7.25-2.83 7.89-6.68 27.8-166.89 36.49-218.33 39.09-234.53l29.6-14.02c5.83-2.75 12.37 2.19 11.31 8.55z" fill="#ebb15d"/><circle cx="368.004" cy="280.004" fill="#e48c9b" r="32"/><path d="m360.004 249.017c13.784 3.563 24 16.108 24 30.987s-10.216 27.424-24 30.987c20.263 5.237 40-10.164 40-30.987 0-20.846-19.759-36.218-40-30.987z" fill="#cc5b6f"/><circle cx="144.004" cy="280.004" fill="#e48c9b" r="32"/><path d="m136.004 249.016c13.789 3.562 24 16.108 24 30.988s-10.211 27.426-24 30.988c20.237 5.227 40-10.127 40-30.988 0-20.907-19.799-36.206-40-30.988z" fill="#cc5b6f"/><path d="m480.004 392.004v16c0 13.23-10.77 24-24 24h-400c-13.23 0-24-10.77-24-24v-16c0-13.23 10.77-24 24-24h400c13.23 0 24 10.77 24 24z" fill="#edebfd"/><path d="m456.004 368.004h-40c13.23 0 24 10.77 24 24v16c0 13.23-10.77 24-24 24h40c13.23 0 24-10.77 24-24v-16c0-13.23-10.77-24-24-24z" fill="#d2d2fc"/><ellipse cx="256.004" cy="272.004" fill="#79cb9c" rx="48" ry="72"/><path d="m244.004 202.189c20.928 7.801 36 35.682 36 69.815s-15.072 62.015-36 69.815c31.771 11.843 60-23.528 60-69.815 0-46.407-28.399-81.595-60-69.815z" fill="#63ac7d"/><path d="m72.004 272.004c0 28.06-10.32 52.92-26.92 64.88-4.806 3.457-11.605.667-12.57-5.17l-20.35-122.08c-.35-2.1.15-4.25 1.39-5.98 2.359-3.292 6.04-3.65 10.45-3.65 26.92 0 48 31.63 48 72z" fill="#79cb9c"/><path d="m18.774 200.414c-1.18.191-2.285.652-3.251 1.319 35.829 17.796 43.352 87.934 15.847 123.115l1.145 6.866c.964 5.828 7.749 8.638 12.57 5.17 16.6-11.96 26.92-36.82 26.92-64.88-.001-41.715-23.302-76.372-53.231-71.59z" fill="#63ac7d"/><path d="m499.474 211.834c-17.622 105.735-3.06 17.957-20.66 123.95-.87 4.82-5.9 7.82-10.65 6.07-10.67-3.95-19.72-13.14-26.1-25.5-6.36-12.31-10.06-27.77-10.06-44.35 0-49.016 31.355-83.818 63.03-68.48 3.14 1.51 4.93 4.87 4.44 8.31z" fill="#79cb9c"/><path d="m499.474 211.834c-17.622 105.735-3.06 17.957-20.66 123.95-.87 4.82-5.9 7.82-10.65 6.07-10.67-3.95-19.72-13.14-26.1-25.5 8.13-48.8 14.08-84.4 18.42-110.38 10.35-6.84 22.49-8.29 34.55-2.45 3.14 1.51 4.93 4.87 4.44 8.31z" fill="#63ac7d"/></g></svg>