<svg id="Layer_1" enable-background="new 0 0 511.995 511.995" height="512" viewBox="0 0 511.995 511.995" width="512" xmlns="http://www.w3.org/2000/svg"><g><path d="m312.008 456c0 8.051-1.729 16.264-5.41 24-20.265 42.555-80.872 42.646-101.18 0-3.68-7.733-5.41-15.946-5.41-24 0-4.42 3.58-8 8-8h96c4.42 0 8 3.58 8 8z" fill="#f1cc76"/><path d="m448.238 464h-384.46c-24.66 0-37.145-30.063-19.56-47.48 40.315-40.336 60.207-92.697 60.13-144.11l-.12-72.41c-.04-24.1 5.72-48.11 16.66-69.43 3.825-7.446 15.12-4.718 15.12 3.65v1.78c0 13.26 10.735 24 24 24 14.67 0 40.45-20.25 67.28-52.84 3.956-4.777 11.583-3.445 13.69 2.34 5.106 13.942 24.944 13.968 30.06 0 2.106-5.78 9.732-7.12 13.69-2.34 26.83 32.59 52.61 52.84 67.28 52.84 13.26 0 24-10.735 24-24v-1.74c0-8.372 11.296-11.094 15.12-3.65 10.99 21.44 16.59 44.63 16.63 68.92l.12 73.67c.077 52.007 19.548 102.909 60 143.35 17.351 17.385 5.128 47.45-19.64 47.45z" fill="#f1cc76"/><path d="m448.238 464h-44c24.77 0 36.99-30.06 19.64-47.45-40.45-40.44-59.92-91.34-60-143.35-.125-76.365 1.47-88.636-5.59-114.03 10.21-2.76 17.72-12.08 17.72-23.17v-1.74c0-8.37 11.3-11.09 15.12-3.65 10.99 21.44 16.59 44.63 16.63 68.92l.12 73.67c.08 52.01 19.55 102.91 60 143.35 17.35 17.39 5.13 47.45-19.64 47.45z" fill="#ebb15d"/><path d="m392.008 40v96c0 22.114-17.879 40-40 40-25.89 0-57.6-31.9-79.64-58.66-1.852-2.26-2.289-5.285-1.32-7.87 1.287-3.479.96-2.301.96-37.47 0-4.406-1.46-5.501-1.46-8.24 0-1.86.65-3.66 1.83-5.1 17.648-21.425 52.014-58.66 79.63-58.66 22.06 0 40 17.94 40 40z" fill="#e48c9b"/><path d="m392.008 40v96c0 22.11-17.88 40-40 40-6.24 0-12.82-1.86-19.52-5.05 12.25-6.83 20.52-19.91 20.52-34.95v-96c0-14.98-8.27-28.05-20.48-34.91 6.66-3.19 13.24-5.09 19.48-5.09 22.06 0 40 17.94 40 40z" fill="#cc5b6f"/><path d="m240.968 109.47c.969 2.584.529 5.613-1.32 7.87-22.04 26.76-53.75 58.66-79.64 58.66-22.114 0-40-17.879-40-40v-96c0-22.06 17.94-40 40-40 27.615 0 61.978 37.23 79.63 58.66 1.18 1.44 1.83 3.23 1.83 5.09 0 2.801-1.46 3.742-1.46 8.25 0 35.305-.321 34.009.96 37.47z" fill="#e48c9b"/><g fill="#cc5b6f"><path d="m280.011 88.002c-8.755 0-11.138-12.165-2.974-15.43l40-16c4.104-1.641 8.758.354 10.398 4.457 1.641 4.102-.354 8.758-4.457 10.398-43.467 17.388-40.816 16.575-42.967 16.575z"/><path d="m320.005 120.002c-2.14 0 .621.861-42.968-16.574-4.103-1.641-6.098-6.297-4.457-10.398s6.296-6.099 10.398-4.457l40 16c8.155 3.26 5.79 15.429-2.973 15.429z"/><path d="m192.011 120.002c-8.755 0-11.138-12.165-2.974-15.43l40-16c4.103-1.641 8.759.354 10.398 4.457 1.641 4.102-.354 8.758-4.457 10.398-43.467 17.388-40.816 16.575-42.967 16.575z"/><path d="m232.005 88.002c-2.14 0 .621.861-42.968-16.574-4.103-1.641-6.098-6.297-4.457-10.398s6.298-6.1 10.398-4.457l40 16c8.155 3.26 5.79 15.429-2.973 15.429z"/></g><path d="m288.008 72c0 33.758.625 36.134-1.95 43-4.59 12.56-16.67 21-30.05 21s-25.46-8.44-30.05-21c-2.697-7.193-1.95-11.043-1.95-43 0-28.513 34.561-42.656 54.62-22.63 5.898 5.916 9.38 13.948 9.38 22.63z" fill="#e48c9b"/><path d="m286.058 115c-6.107 16.712-25.079 25.529-42.05 18.65 8.21-3.34 14.9-10.02 18.05-18.65 2.57-6.87 1.95-9.24 1.95-43 0-13.534-8.451-24.955-19.84-29.67 21.771-8.666 43.84 7.752 43.84 29.67 0 33.76.62 36.13-1.95 43z" fill="#cc5b6f"/><path d="m200.588 464c.8 5.65 2.46 11.02 4.83 16h76.18c-7.27 15.25-21.25 26.72-38.09 30.58 31.32 7.167 63.226-13.587 67.92-46.58-14.172 0-99.295 0-110.84 0z" fill="#ebb15d"/></g></svg>