<svg id="Layer_1" enable-background="new 0 0 512 512" height="512" viewBox="0 0 512 512" width="512" xmlns="http://www.w3.org/2000/svg"><g><path d="m512 112v288c0 17.64-14.36 32-32 32h-176c-17.64 0-32-14.36-32-32v-288c0-17.64 14.36-32 32-32h176c17.64 0 32 14.36 32 32z" fill="#aa7569"/><path d="m480 80h-40c17.64 0 32 14.36 32 32v288c0 17.64-14.36 32-32 32h40c17.64 0 32-14.36 32-32v-288c0-17.64-14.36-32-32-32z" fill="#9a6758"/><circle cx="392" cy="160" fill="#595965" r="48"/><path d="m380 113.519c20.681 5.341 36 24.153 36 46.481s-15.319 41.14-36 46.481c30.406 7.852 60-15.237 60-46.481 0-31.25-29.595-54.333-60-46.481z" fill="#44454e"/><circle cx="392" cy="304" fill="#edebfd" r="72"/><path d="m380 233.015c34.05 5.715 60 35.312 60 70.985s-25.95 65.27-60 70.985c44.213 7.426 84-26.673 84-70.985 0-44.301-39.774-78.413-84-70.985z" fill="#d2d2fc"/><circle cx="392" cy="304" fill="#595965" r="48"/><path d="m380 257.519c20.681 5.341 36 24.153 36 46.481s-15.319 41.14-36 46.481c30.406 7.852 60-15.237 60-46.481 0-31.25-29.595-54.333-60-46.481z" fill="#44454e"/><path d="m453.913 354.599c24.126-29.466 24.126-71.732 0-101.197l7.744-7.744c3.124-3.125 3.124-8.189 0-11.314-3.125-3.123-8.189-3.123-11.314 0l-7.744 7.744c-29.466-24.126-71.731-24.126-101.197 0l-7.744-7.744c-3.125-3.123-8.189-3.123-11.314 0-3.124 3.125-3.124 8.189 0 11.314l7.744 7.744c-24.126 29.466-24.126 71.732 0 101.197l-7.744 7.744c-3.124 3.125-3.124 8.189 0 11.314 3.126 3.124 8.189 3.123 11.314 0l7.744-7.744c29.466 24.126 71.731 24.126 101.197 0l7.744 7.744c3.126 3.124 8.189 3.123 11.314 0 3.124-3.125 3.124-8.189 0-11.314zm-125.913-50.599c0-35.29 28.71-64 64-64s64 28.71 64 64-28.71 64-64 64-64-28.71-64-64z" fill="#595965"/><circle cx="392" cy="160" fill="#edebfd" r="8"/><g fill="#595965"><circle cx="472" cy="120" r="8"/><circle cx="312" cy="120" r="8"/><circle cx="472" cy="392" r="8"/><circle cx="312" cy="392" r="8"/></g><path d="m240 112v288c0 17.64-14.36 32-32 32h-176c-17.64 0-32-14.36-32-32v-288c0-17.64 14.36-32 32-32h176c17.64 0 32 14.36 32 32z" fill="#aa7569"/><path d="m208 80h-40c17.64 0 32 14.36 32 32v288c0 17.64-14.36 32-32 32h40c17.64 0 32-14.36 32-32v-288c0-17.64-14.36-32-32-32z" fill="#9a6758"/><circle cx="120" cy="160" fill="#595965" r="48"/><path d="m108 113.519c20.681 5.341 36 24.153 36 46.481s-15.319 41.14-36 46.481c30.406 7.852 60-15.237 60-46.481 0-31.25-29.595-54.333-60-46.481z" fill="#44454e"/><circle cx="120" cy="304" fill="#edebfd" r="72"/><path d="m108 233.015c34.05 5.715 60 35.312 60 70.985s-25.95 65.27-60 70.985c44.213 7.426 84-26.673 84-70.985 0-44.301-39.774-78.413-84-70.985z" fill="#d2d2fc"/><circle cx="120" cy="304" fill="#595965" r="48"/><path d="m108 257.519c20.681 5.341 36 24.153 36 46.481s-15.319 41.14-36 46.481c30.406 7.852 60-15.237 60-46.481 0-31.25-29.595-54.333-60-46.481z" fill="#44454e"/><path d="m181.913 354.599c24.126-29.466 24.126-71.732 0-101.197l7.744-7.744c3.124-3.125 3.124-8.189 0-11.314-3.125-3.123-8.189-3.123-11.314 0l-7.744 7.744c-29.466-24.126-71.731-24.126-101.197 0l-7.744-7.744c-3.125-3.123-8.189-3.123-11.314 0-3.124 3.125-3.124 8.189 0 11.314l7.744 7.744c-24.126 29.466-24.126 71.732 0 101.197l-7.744 7.744c-3.124 3.125-3.124 8.189 0 11.314 3.126 3.124 8.189 3.123 11.314 0l7.744-7.744c29.466 24.126 71.731 24.126 101.197 0l7.744 7.744c3.126 3.124 8.189 3.123 11.314 0 3.124-3.125 3.124-8.189 0-11.314zm-125.913-50.599c0-35.29 28.71-64 64-64s64 28.71 64 64-28.71 64-64 64-64-28.71-64-64z" fill="#595965"/><circle cx="120" cy="160" fill="#edebfd" r="8"/><circle cx="200" cy="120" fill="#595965" r="8"/><circle cx="40" cy="120" fill="#595965" r="8"/><circle cx="200" cy="392" fill="#595965" r="8"/><circle cx="40" cy="392" fill="#595965" r="8"/></g></svg>