<svg id="Layer_1" enable-background="new 0 0 512 512" height="512" viewBox="0 0 512 512" width="512" xmlns="http://www.w3.org/2000/svg"><g><path d="m352 424v56c0 4.42-3.58 8-8 8h-312c-17.65 0-32-14.36-32-32v-32z" fill="#595965"/><path d="m352 112v320c0 4.42-3.58 8-8 8h-336c-4.42 0-8-3.58-8-8v-320c0-4.42 3.58-8 8-8h336c4.42 0 8 3.58 8 8z" fill="#79cb9c"/><path d="m344 104h-32c4.42 0 8 3.58 8 8v320c0 4.42-3.58 8-8 8h32c4.42 0 8-3.58 8-8v-320c0-4.42-3.58-8-8-8z" fill="#63ac7d"/><path d="m296 184h-8v-72c0-61.757-50.243-112-112-112s-112 50.243-112 112v72h-8c-4.418 0-8 3.582-8 8s3.582 8 8 8h32c4.418 0 8-3.582 8-8s-3.582-8-8-8h-8v-72c0-52.935 43.065-96 96-96s96 43.065 96 96v72h-8c-4.418 0-8 3.582-8 8s3.582 8 8 8h32c4.418 0 8-3.582 8-8s-3.582-8-8-8z" fill="#595965"/><path d="m464 256v40c0 4.42-3.58 8-8 8h-56c-4.42 0-8-3.58-8-8 0-34.974-.307-33.264.84-35.58 3.05-6.08 19.23-36.42 39.16-36.42 17.657 0 32 14.314 32 32z" fill="#e48c9b"/><path d="m421.22 226.854c11.11 5.051 18.78 16.214 18.78 29.146v40c0 4.42-3.58 8-8 8h24c4.42 0 8-3.58 8-8v-40c0-23.276-24.649-38.591-42.78-29.146z" fill="#cc5b6f"/><path d="m336 248.16v55.84h-56c-4.42 0-8-3.58-8-8v-40c0-17.657 14.314-32 32-32 13.24 0 24.82 13.39 32 24.16z" fill="#63ac7d"/><path d="m376 296c0 4.42-3.58 8-8 8h-56c-4.42 0-8-3.58-8-8v-40c0-17.657 14.314-32 32-32 19.93 0 36.11 30.34 39.16 36.42 1.147 2.315.84.527.84 35.58z" fill="#e48c9b"/><path d="m375.16 260.42c-3.05-6.08-19.23-36.42-39.16-36.42-4.632 0-9.115.989-13.219 2.855 14.769 7.696 25.903 28.627 28.379 33.564 1.147 2.315.84.528.84 35.58 0 4.42-3.58 8-8 8h24c4.42 0 8-3.58 8-8 0-34.973.307-33.263-.84-35.579z" fill="#cc5b6f"/><path d="m408 264v32c0 4.42-3.58 8-8 8h-32c-4.42 0-8-3.58-8-8v-32c0-13.23 10.77-24 24-24 13.262 0 24 10.702 24 24z" fill="#e48c9b"/><path d="m376.025 241.368c9.235 3.264 15.975 12.089 15.975 22.632v32c0 4.42-3.58 8-8 8h16c4.42 0 8-3.58 8-8v-32c0-16.561-16.369-28.149-31.975-22.632z" fill="#cc5b6f"/><path d="m336 336v96c0 4.42-3.58 8-8 8h-88v-96c0-4.42 3.58-8 8-8z" fill="#63ac7d"/><path d="m336 440v40c0 4.42-3.58 8-8 8h-88v-48z" fill="#44454e"/><path d="m496 344v160c0 4.42-3.58 8-8 8h-208c-4.42 0-8-3.58-8-8v-160c0-4.42 3.58-8 8-8h208c4.42 0 8 3.58 8 8z" fill="#f1cc76"/><path d="m488 336h-32c4.42 0 8 3.58 8 8v160c0 4.42-3.58 8-8 8h32c4.42 0 8-3.58 8-8v-160c0-4.42-3.58-8-8-8z" fill="#ebb15d"/><path d="m352 336h64v176h-64z" fill="#e48c9b"/><path d="m384 336h32v176h-32z" fill="#cc5b6f"/><path d="m336 288v64h-104c-4.42 0-8-3.58-8-8v-48c0-4.42 3.58-8 8-8z" fill="#63ac7d"/><path d="m512 296v48c0 4.42-3.58 8-8 8h-240c-4.42 0-8-3.58-8-8v-48c0-4.42 3.58-8 8-8h240c4.42 0 8 3.58 8 8z" fill="#f1cc76"/><path d="m504 288h-32c4.42 0 8 3.58 8 8v48c0 4.42-3.58 8-8 8h32c4.42 0 8-3.58 8-8v-48c0-4.42-3.58-8-8-8z" fill="#ebb15d"/><path d="m336 288h96v64h-96z" fill="#e48c9b"/><path d="m400 288h32v64h-32z" fill="#cc5b6f"/><path d="m416 352h80v16h-80z" fill="#ebb15d"/><path d="m352 352h40v16h-40z" fill="#cc5b6f"/><path d="m272 352h80v16h-80z" fill="#ebb15d"/></g></svg>